<?xml version="1.0" standalone="no"?>
<!DOCTYPE svg PUBLIC "-//W3C//DTD SVG 1.1//EN" "http://www.w3.org/Graphics/SVG/1.1/DTD/svg11.dtd" >
<svg xmlns="http://www.w3.org/2000/svg">
<metadata>Generated by IcoMoon</metadata>
<defs>
<font id="cookoonfont" horiz-adv-x="1024">
<font-face units-per-em="1024" ascent="960" descent="-64" />
<missing-glyph horiz-adv-x="1024" />
<glyph unicode="&#x20;" horiz-adv-x="512" d="" />
<glyph unicode="&#xe900;" glyph-name="cookoon-bibliotheque-pictogrammes_vue_deux" horiz-adv-x="1163" d="M587.138 436.525c-5.346 0.005-9.817 3.744-10.944 8.75l-0.014 0.075c-23.719 103.588-39.396 224.090-43.547 347.514l-0.085 3.206c-0.004 0.107-0.006 0.233-0.006 0.359 0 6.204 5.030 11.234 11.234 11.234 6.078 0 11.028-4.827 11.228-10.856v-0.018c4.176-125.117 19.668-244.185 45.53-359.331l-2.414 12.788c0.18-0.752 0.283-1.615 0.283-2.503 0-5.354-3.748-9.833-8.763-10.957l-0.075-0.014c-0.727-0.153-1.564-0.242-2.422-0.247h-0.004zM628.772 274.212c-0.002 0-0.005 0-0.008 0-4.99 0-9.22 3.255-10.682 7.758l-0.022 0.079c-3.503 11.093-6.894 22.456-10.060 34.111-5.614 20.615-12.957 47.944-19.784 76.71-0.138 0.661-0.217 1.42-0.217 2.197 0 6.201 5.027 11.228 11.228 11.228 5.129 0 9.454-3.439 10.797-8.136l0.019-0.079c6.737-28.474 14.035-55.579 19.604-75.992 3.099-11.228 6.4-22.456 9.836-33.258 0.333-1.015 0.526-2.183 0.526-3.396 0-4.993-3.26-9.225-7.767-10.685l-0.079-0.022c-1.006-0.328-2.164-0.517-3.366-0.517-0.009 0-0.017 0-0.026 0h0.001zM683.43 138.801c-0.003 0-0.007 0-0.011 0-4.394 0-8.198 2.524-10.042 6.201l-0.029 0.065c-14.035 28.564-26.7 57.69-37.681 86.546-0.545 1.274-0.862 2.757-0.862 4.313 0 6.201 5.027 11.228 11.228 11.228 4.882 0 9.037-3.116 10.583-7.469l0.024-0.079c10.734-28.227 23.13-56.679 36.873-84.637 0.722-1.442 1.145-3.142 1.145-4.94 0-4.403-2.534-8.213-6.223-10.053l-0.065-0.029c-1.429-0.722-3.114-1.145-4.899-1.145-0.015 0-0.029 0-0.044 0h0.002zM459.34 441.263c-0.853 0.002-1.682 0.1-2.478 0.284l0.075-0.015c-5.089 1.138-8.836 5.617-8.836 10.97 0 0.847 0.094 1.672 0.272 2.466l-0.014-0.075c22.832 99.815 37.846 215.862 41.692 334.731l0.076 2.964c0.2 6.048 5.15 10.875 11.228 10.875 6.204 0 11.234-5.030 11.234-11.234 0-0.126-0.002-0.252-0.006-0.378v0.018c-3.99-123.319-19.189-240.769-44.651-354.341l2.366 12.559c-1.142-5.081-5.613-8.821-10.958-8.825h-0.001zM416.314 274.212c-1.228 0.004-2.41 0.201-3.517 0.562l0.081-0.023c-4.559 1.498-7.792 5.716-7.792 10.689 0 1.228 0.197 2.409 0.561 3.515l-0.023-0.079c3.481 10.846 6.737 22.029 9.926 33.235 6.4 23.759 13.249 49.404 19.739 76.036 1.243 4.954 5.657 8.564 10.914 8.564 6.206 0 11.236-5.031 11.236-11.236 0-0.949-0.118-1.87-0.339-2.75l0.017 0.078c-6.557-26.79-13.474-52.637-19.896-76.598-3.211-11.587-6.737-23.062-10.218-34.201-1.498-4.559-5.716-7.792-10.689-7.792v0zM358.355 129.527c-0.003 0-0.006 0-0.009 0-6.201 0-11.228 5.027-11.228 11.228 0 2.058 0.554 3.987 1.52 5.645l-0.029-0.053c15.338 26.7 18.504 35.571 26.116 56.971 3.391 9.544 7.613 21.446 14.125 38.175 1.547 4.473 5.723 7.627 10.635 7.627 6.201 0 11.228-5.027 11.228-11.228 0-1.622-0.344-3.163-0.962-4.555l0.028 0.072c-6.378-16.505-10.554-28.227-13.9-37.659-7.613-21.423-11.453-32.18-27.778-60.632-1.98-3.367-5.586-5.592-9.711-5.592-0.012 0-0.025 0-0.037 0h0.002zM395.745 57.128c-0.726 0.005-1.432 0.071-2.12 0.191l0.076-0.011c-5.253 1.007-9.168 5.565-9.168 11.037 0 0.718 0.067 1.421 0.196 2.102l-0.011-0.070c15.989 87.579 66.56 137.724 138.734 137.746 51.851 0 85.333-19.425 105.252-61.126 0.884-1.568 1.405-3.442 1.405-5.439 0-6.201-5.027-11.228-11.228-11.228-4.664 0-8.664 2.844-10.36 6.892l-0.028 0.074c-16.213 33.909-41.634 48.371-84.996 48.371-82.526 0-108.508-74.779-116.637-119.332-0.991-5.272-5.558-9.207-11.045-9.207-0.025 0-0.050 0-0.075 0h0.004zM525.474 852.637c-6.201 0-11.228 5.027-11.228 11.228v0 84.907c0 6.201 5.027 11.228 11.228 11.228s11.228-5.027 11.228-11.228v0-84.907c0-6.201-5.027-11.228-11.228-11.228v0zM570.229 799.394h-91.913c-6.201 0-11.228 5.027-11.228 11.228v0 48.326c0 6.201 5.027 11.228 11.228 11.228v0h92.070c6.201 0 11.228-5.027 11.228-11.228v0-48.326c0 0 0-0.001 0-0.001 0-6.201-5.027-11.228-11.228-11.228-0.055 0-0.11 0-0.166 0.001h0.008zM489.387 821.85h69.614v25.869h-69.457zM1151.596-64h-1140.368c-6.201 0-11.228 5.027-11.228 11.228s5.027 11.228 11.228 11.228v0h1140.368c6.201 0 11.228-5.027 11.228-11.228s-5.027-11.228-11.228-11.228v0zM654.619 228.289h-267.048c-0.004 0-0.009 0-0.013 0-4.446 0-8.289 2.585-10.108 6.333l-0.029 0.067-20.211 42.667c-0.689 1.413-1.091 3.073-1.091 4.828 0 6.201 5.027 11.228 11.228 11.228 0.005 0 0.009 0 0.014 0h307.648c6.105-0.125 11.006-5.103 11.006-11.226 0-1.764-0.407-3.434-1.132-4.919l0.029 0.066-20.211-42.667c-1.846-3.79-5.662-6.36-10.080-6.378h-0.002zM394.667 250.745h252.856l9.566 20.211h-272.011zM613.232 387.66h-179.649c-5.268 0.001-9.687 3.63-10.898 8.524l-0.016 0.077-10.218 42.667c-0.195 0.782-0.306 1.681-0.306 2.605 0 6.198 5.022 11.223 11.22 11.228h202.106c0.003 0 0.006 0 0.009 0 6.201 0 11.228-5.027 11.228-11.228 0-1.104-0.159-2.171-0.456-3.178l0.020 0.079-12.239-42.667c-1.398-4.721-5.697-8.107-10.785-8.107-0.006 0-0.011 0-0.017 0h0.001zM442.566 410.116h162.268l5.794 20.211h-172.912zM1052.295-64c-6.201 0-11.228 5.027-11.228 11.228v0 112.011h-76.912c-6.201 0-11.228 5.027-11.228 11.228v0 137.476h-84.592v-161.909c0-6.201-5.027-11.228-11.228-11.228v0h-96c-6.201 0-11.228 5.027-11.228 11.228v0 44.418h-52.884v-33.19c0-6.201-5.027-11.228-11.228-11.228v0h-56.994c-6.201 0-11.228 5.027-11.228 11.228v0 24.545h-135.433v-60.474c0-6.201-5.027-11.228-11.228-11.228v0h-160.606c-6.201 0-11.228 5.027-11.228 11.228v0 195.997h-76.912l-24.522-68.851v-98.088c0-6.201-5.027-11.228-11.228-11.228v0h-60.632v-91.935c0-6.201-5.027-11.228-11.228-11.228s-11.228 5.027-11.228 11.228v0 103.164c0 6.201 5.027 11.228 11.228 11.228v0h60.632v88.792c0.003 1.353 0.241 2.65 0.676 3.852l-0.025-0.079 27.823 78.237c1.596 4.382 5.727 7.455 10.575 7.455 0.001 0 0.001 0 0.002 0h96.067c6.201 0 11.228-5.027 11.228-11.228v0-196.087h138.15v60.407c0 6.201 5.027 11.228 11.228 11.228v0h157.889c6.201 0 11.228-5.027 11.228-11.228v0-24.477h34.582v33.235c0 6.201 5.027 11.228 11.228 11.228v0h75.34c6.201 0 11.228-5.027 11.228-11.228v0-44.463h73.544v161.909c0 6.201 5.027 11.228 11.228 11.228v0h107.048c6.201 0 11.228-5.027 11.228-11.228v0-137.476h76.867c6.201 0 11.228-5.027 11.228-11.228v0-123.239c0-6.201-5.027-11.228-11.228-11.228v0z" />
<glyph unicode="&#xe901;" glyph-name="cookoon-bibliotheque-pictogrammes_appartement-haussmanien1" d="M614.4-12.8c10.876 0 19.692-8.817 19.692-19.692s-8.817-19.692-19.692-19.692h-584.862c-10.876 0-19.692 8.817-19.692 19.692v960.985c0 10.876 8.817 19.692 19.692 19.692h960.985c10.876 0 19.692-8.817 19.692-19.692v-710.105c0-10.876-8.817-19.692-19.692-19.692s-19.692 8.817-19.692 19.692v690.412h-921.6v-921.6h565.169zM300.065 764.425l0.046-1.349v-209.132c0-10.876-8.817-19.692-19.692-19.692h-167.385c-10.876 0-19.692 8.817-19.692 19.692l0.046 210.481c3.729 54.326 48.885 96.488 103.338 96.488s99.609-42.163 103.338-96.488zM196.726 821.529c-33.749 0-61.735-26.131-64-58.452v-189.44h128v188.721c-2.614 33.365-30.462 59.172-64 59.172zM550.597 553.945c0-10.876-8.817-19.692-19.692-19.692h-166.991c-10.876 0-19.692 8.817-19.692 19.692v209.132c0 56.989 46.199 103.188 103.188 103.188s103.188-46.199 103.188-103.188v-209.132zM511.212 763.077c0 35.237-28.566 63.803-63.803 63.803s-63.803-28.566-63.803-63.803v-189.44h127.606v189.44zM300.065 344.979l0.046-1.349v-210.708c0-10.876-8.817-19.692-19.692-19.692h-167.385c-10.876 0-19.692 8.817-19.692 19.692l0.046 212.056c3.729 54.326 48.885 96.488 103.338 96.488s99.609-42.163 103.338-96.488zM196.726 402.083c-33.749 0-61.735-26.131-64-58.452v-191.015h128v190.296c-2.614 33.365-30.462 59.172-64 59.172zM550.597 132.923c0-10.876-8.817-19.692-19.692-19.692h-166.991c-10.876 0-19.692 8.817-19.692 19.692v210.708c0 56.989 46.199 103.188 103.188 103.188s103.188-46.199 103.188-103.188v-210.708zM511.212 343.631c0 35.237-28.566 63.803-63.803 63.803s-63.803-28.566-63.803-63.803v-191.015h127.606v191.015zM925.538 468.874v-250.486c0-10.876-8.817-19.692-19.692-19.692h-207.951c-10.876 0-19.692 8.817-19.692 19.692v250.486c0 27.452 10.938 53.772 30.395 73.137s45.828 30.18 73.187 30.051h40.566c56.989 0 103.188-46.199 103.188-103.188zM886.154 468.874c0 35.237-28.566 63.803-63.803 63.803h-40.659c-16.974 0.080-33.28-6.607-45.31-18.581s-18.794-28.248-18.794-45.223v-230.794h168.566v230.794zM802.658 637.44c-56.989 0-103.188 46.199-103.188 103.188s46.199 103.188 103.188 103.188c56.989 0 103.188-46.199 103.188-103.188s-46.199-103.188-103.188-103.188zM802.658 676.825c35.237 0 63.803 28.566 63.803 63.803s-28.566 63.803-63.803 63.803c-35.237 0-63.803-28.566-63.803-63.803s28.566-63.803 63.803-63.803zM634.092-12.406h336.738v211.102h-336.738v-211.102zM614.4 238.080h376.123c10.876 0 19.692-8.817 19.692-19.692v-250.486c0-10.876-8.817-19.692-19.692-19.692h-376.123c-10.876 0-19.692 8.817-19.692 19.692v250.486c0 10.876 8.817 19.692 19.692 19.692zM614.4 115.2c-10.876 0-19.692 8.817-19.692 19.692s8.817 19.692 19.692 19.692h376.123c10.876 0 19.692-8.817 19.692-19.692s-8.817-19.692-19.692-19.692h-376.123zM614.4 31.705c-10.876 0-19.692 8.817-19.692 19.692s8.817 19.692 19.692 19.692h376.123c10.876 0 19.692-8.817 19.692-19.692s-8.817-19.692-19.692-19.692h-376.123zM594.708 928.492c0 10.876 8.817 19.692 19.692 19.692s19.692-8.817 19.692-19.692v-710.105c0-10.876-8.817-19.692-19.692-19.692s-19.692 8.817-19.692 19.692v710.105z" />
<glyph unicode="&#xe902;" glyph-name="calendar" horiz-adv-x="1142" d="M770.923 856.283h-429.911c-7.009 0-12.227 5.585-12.227 12.474s5.218 12.474 12.227 12.474h429.911c7.009 0 12.691-5.585 12.691-12.474s-5.682-12.474-12.691-12.474zM1129.463 602.942h-1116.773c-7.009 0-12.691 5.585-12.691 12.474v252.717c0 6.889 5.682 12.474 12.691 12.474h192.019c7.009 0 14.556-4.961 14.556-11.85s-7.547-12.474-14.556-12.474c-4.673 0-64.449-0.208-179.328-0.624v-228.394h1091.391v229.017h-200.004c-7.009 0-12.691 5.585-12.691 12.474s5.682 12.474 12.691 12.474h212.694c7.009 0 12.691-5.585 12.691-12.474v-253.715c-0.206-6.742-5.828-12.103-12.691-12.099zM1129.463-63.958h-1116.773c-7.009 0-12.691 5.585-12.691 12.474v683.933c0 6.889 5.682 12.474 12.691 12.474h1116.773c7.009 0 12.691-5.585 12.691-12.474v-684.183c-0.138-6.791-5.78-12.226-12.691-12.224zM25.381-39.634h1091.391v659.984h-1091.391v-659.984zM904.805 757.926h-124.114c-7.009 0-12.691 5.585-12.691 12.474v177.127c0 6.889 5.682 12.474 12.691 12.474h124.114c7.009 0 12.691-5.585 12.691-12.474v-177.376c-0.138-6.791-5.78-12.226-12.691-12.224zM793.127 782.873h99.24v152.553h-99.24v-152.553zM333.728 757.926h-124.114c-7.009 0-12.691 5.585-12.691 12.474v177.127c0 6.889 5.682 12.474 12.691 12.474h124.114c7.009 0 12.691-5.585 12.691-12.474v-177.376c-0.138-6.791-5.78-12.226-12.691-12.224zM222.050 782.873h99.24v152.553h-99.24v-152.553z" />
<glyph unicode="&#xe903;" glyph-name="cookoon-bibliotheque-pictogrammes_accessibilite-handicape" horiz-adv-x="805" d="M777.33 84.189c9.534 3.33 19.963-1.699 23.293-11.233s-1.699-19.963-11.233-23.293c-28.503-9.956-57.845-17.324-90.51-22.234-9.13 0-15.265 4.795-19.892 11.764-5.819 8.762-10.383 23.466-16.3 48.857-3.085 13.238-14.299 66.020-15.222 70.221-7.714 35.097-14.099 59.442-20.859 77.637-6.214 16.726-11.854 24.483-10.745 24.483-15.664 0-80.282-10.608-174.253-28.097-9.118-1.7-9.118-1.7-18.21-3.406-36.988-6.95-75.634-14.399-113.618-21.847-13.295-2.607-25.557-5.028-36.497-7.2-11.225-2.234-11.225-2.234-13.69-2.728-10.355-2.076-20.31 5.027-21.717 15.494l-65.463 487.131c-1.345 10.009 5.678 19.213 15.687 20.558s19.213-5.678 20.558-15.687l62.869-467.832c9.561 1.895 20.023 3.958 31.215 6.152 38.072 7.466 76.81 14.932 113.902 21.902 9.122 1.712 9.122 1.712 18.272 3.417 98.136 18.264 161.793 28.714 180.944 28.714 32.982 0 46.654-36.799 67.322-130.841 0.991-4.51 12.132-56.948 15.12-69.771 3.27-14.033 6.153-24.429 8.416-30.764 23.981 4.344 47.59 10.563 70.609 18.604zM202.891 442.414l8.207-35.639c-100.156-23.065-171.241-112.062-171.601-214.806-0.202-117.058 93.561-212.621 210.098-214.644 119.016 1.22 215.817 96.231 219.25 214.675v65.829h36.571l-0.008-66.357c-4.009-138.605-116.783-249.294-255.943-250.714-137.013 2.37-246.777 114.241-246.541 251.307 0.419 119.765 83.254 223.472 199.965 250.35zM276.114 819.566c0.082 25.814-10.093 50.544-28.276 68.786s-42.881 28.494-68.696 28.494c-39.374 0.125-74.94-23.498-90.094-59.839s-6.907-78.233 20.89-106.119c27.798-27.886 69.663-36.265 106.052-21.226s60.124 50.53 60.124 89.904zM229.959 695.863c-50.069-20.693-107.674-9.163-145.922 29.206s-49.595 96.010-28.743 146.013c20.851 50.003 69.788 82.506 123.906 82.335 35.476 0 69.493-14.122 94.539-39.247 25.039-25.118 39.052-59.168 38.947-94.634-0.012-54.165-32.667-102.985-82.727-123.674zM211.5 406.872c-9.788-2.488-19.739 3.429-22.228 13.216s3.429 19.739 13.216 22.228l258.926 65.829c9.788 2.488 19.739-3.429 22.228-13.216s-3.429-19.739-13.216-22.228l-258.926-65.829z" />
<glyph unicode="&#xe904;" glyph-name="cookoon-logo" horiz-adv-x="987" d="M568.75 216.872c-33.702 15.599-72.767 15.599-106.469 0-14.129-5.426-23.423-18.771-23.423-33.631s9.294-28.205 23.423-33.631c33.578-16.128 72.891-16.128 106.469 0 14.129 5.426 23.423 18.771 23.423 33.631s-9.294 28.205-23.423 33.631zM692.139 617.040h2.108c11.111 9.284 17.528 22.856 17.569 37.158 0 27.505-22.772 49.802-50.863 49.802s-50.863-22.297-50.863-49.802c13.032-11.41 17.137-29.708 10.19-45.415 0 0 0-1.376 0-2.064-25.651-65.026-31.449-135.041-35.138-222.775h32.503c3.514 82.917 11.42 146.911 35.138 207.464 6.613 15.554 22.148 25.673 39.355 25.632zM940.168 237.694c-98.268-187.046-313.668-284.915-522.993-237.627s-359.159 227.668-363.799 437.962c-4.64 210.294 137.1 396.84 344.143 452.936s426.56-32.574 532.986-215.291l48.315 22.88c-117.226 204.52-361.392 304.894-592.593 243.608s-390.305-268.559-386.147-503.051c4.158-234.492 170.516-436.231 403.751-489.621s473.695 55.223 583.598 263.605l-47.261 24.6zM420.854 606.719c0 0 0 1.204 0 1.72-7.161 15.764-3.115 34.252 10.014 45.759 0 27.505-22.772 49.802-50.863 49.802s-50.863-22.297-50.863-49.802c0.041-14.302 6.458-27.874 17.569-37.158h1.933c17.1 0 32.537-10.031 39.179-25.46 24.895-66.837 37.908-137.356 38.476-208.497h32.503c-3.865 88.594-12.298 158.609-37.949 223.635zM766.222 629.837c-17.28-0.016-33.365-8.637-42.693-22.88 3.632-6.178 5.569-13.171 5.622-20.299-0.606-12.917-6.047-25.164-15.285-34.405-0.668-1.149-1.432-2.242-2.284-3.269-33.908-39.394-54.64-128.16-63.249-195.595h-260.024c-8.082 63.65-29.868 156.716-63.249 195.595-1.080 1.278-2.022 2.661-2.811 4.129-8.57 9.633-13.798 21.679-14.934 34.405 0.022 7.187 1.96 14.243 5.622 20.471-11.72 17.881-33.749 26.494-54.824 21.434s-36.537-22.673-38.479-43.834c-1.943-21.161 10.063-41.192 29.879-49.851 16.923 8.183 37.381 3.748 49.194-10.666 28.111-32.169 50.775-118.526 58.154-170.479h-11.244c-14.221-3.020-24.367-15.341-24.367-29.589s10.146-26.568 24.367-29.589h344.004c14.221 3.020 24.367 15.341 24.367 29.589s-10.146 26.568-24.367 29.589h-11.244c7.906 55.737 29.516 137.621 58.154 170.479l2.987 2.58c12.023 12.846 31.214 16.478 47.261 8.945 19.777 10.549 30.093 32.593 25.341 54.148s-23.437 37.469-45.897 39.091zM526.203 740.571c-28.002-0.094-50.679-22.298-50.775-49.716 0.050-7.881 2.103-15.626 5.974-22.536 14.925-5.439 25.274-18.86 26.529-34.405 0.068-1.031 0.068-2.065 0-3.096l2.811-240.838h30.57l2.811 240.838c-0.139 16.919 10.633 32.085 26.881 37.846 3.899 6.961 5.953 14.768 5.974 22.708-0.383 27.216-22.976 49.108-50.775 49.2z" />
<glyph unicode="&#xe905;" glyph-name="cookoon-bibliotheque-pictogrammes_appartement-haussmanien" d="M614.4-12.8c10.876 0 19.692-8.817 19.692-19.692s-8.817-19.692-19.692-19.692h-584.862c-10.876 0-19.692 8.817-19.692 19.692v960.985c0 10.876 8.817 19.692 19.692 19.692h960.985c10.876 0 19.692-8.817 19.692-19.692v-710.105c0-10.876-8.817-19.692-19.692-19.692s-19.692 8.817-19.692 19.692v690.412h-921.6v-921.6h565.169zM300.065 764.425l0.046-1.349v-209.132c0-10.876-8.817-19.692-19.692-19.692h-167.385c-10.876 0-19.692 8.817-19.692 19.692l0.046 210.481c3.729 54.326 48.885 96.488 103.338 96.488s99.609-42.163 103.338-96.488zM196.726 821.529c-33.749 0-61.735-26.131-64-58.452v-189.44h128v188.721c-2.614 33.365-30.462 59.172-64 59.172zM550.597 553.945c0-10.876-8.817-19.692-19.692-19.692h-166.991c-10.876 0-19.692 8.817-19.692 19.692v209.132c0 56.989 46.199 103.188 103.188 103.188s103.188-46.199 103.188-103.188v-209.132zM511.212 763.077c0 35.237-28.566 63.803-63.803 63.803s-63.803-28.566-63.803-63.803v-189.44h127.606v189.44zM300.065 344.979l0.046-1.349v-210.708c0-10.876-8.817-19.692-19.692-19.692h-167.385c-10.876 0-19.692 8.817-19.692 19.692l0.046 212.056c3.729 54.326 48.885 96.488 103.338 96.488s99.609-42.163 103.338-96.488zM196.726 402.083c-33.749 0-61.735-26.131-64-58.452v-191.015h128v190.296c-2.614 33.365-30.462 59.172-64 59.172zM550.597 132.923c0-10.876-8.817-19.692-19.692-19.692h-166.991c-10.876 0-19.692 8.817-19.692 19.692v210.708c0 56.989 46.199 103.188 103.188 103.188s103.188-46.199 103.188-103.188v-210.708zM511.212 343.631c0 35.237-28.566 63.803-63.803 63.803s-63.803-28.566-63.803-63.803v-191.015h127.606v191.015zM925.538 468.874v-250.486c0-10.876-8.817-19.692-19.692-19.692h-207.951c-10.876 0-19.692 8.817-19.692 19.692v250.486c0 27.452 10.938 53.772 30.395 73.137s45.828 30.18 73.187 30.051h40.566c56.989 0 103.188-46.199 103.188-103.188zM886.154 468.874c0 35.237-28.566 63.803-63.803 63.803h-40.659c-16.974 0.080-33.28-6.607-45.31-18.581s-18.794-28.248-18.794-45.223v-230.794h168.566v230.794zM802.658 637.44c-56.989 0-103.188 46.199-103.188 103.188s46.199 103.188 103.188 103.188c56.989 0 103.188-46.199 103.188-103.188s-46.199-103.188-103.188-103.188zM802.658 676.825c35.237 0 63.803 28.566 63.803 63.803s-28.566 63.803-63.803 63.803c-35.237 0-63.803-28.566-63.803-63.803s28.566-63.803 63.803-63.803zM634.092-12.406h336.738v211.102h-336.738v-211.102zM614.4 238.080h376.123c10.876 0 19.692-8.817 19.692-19.692v-250.486c0-10.876-8.817-19.692-19.692-19.692h-376.123c-10.876 0-19.692 8.817-19.692 19.692v250.486c0 10.876 8.817 19.692 19.692 19.692zM614.4 115.2c-10.876 0-19.692 8.817-19.692 19.692s8.817 19.692 19.692 19.692h376.123c10.876 0 19.692-8.817 19.692-19.692s-8.817-19.692-19.692-19.692h-376.123zM614.4 31.705c-10.876 0-19.692 8.817-19.692 19.692s8.817 19.692 19.692 19.692h376.123c10.876 0 19.692-8.817 19.692-19.692s-8.817-19.692-19.692-19.692h-376.123zM594.708 928.492c0 10.876 8.817 19.692 19.692 19.692s19.692-8.817 19.692-19.692v-710.105c0-10.876-8.817-19.692-19.692-19.692s-19.692 8.817-19.692 19.692v710.105z" />
<glyph unicode="&#xe906;" glyph-name="iban" d="M962.56 58.88h-901.12c-33.932 0-61.44-27.508-61.44-61.44s27.508-61.44 61.44-61.44h901.12c33.932 0 61.44 27.508 61.44 61.44s-27.508 61.44-61.44 61.44zM962.56-23.040h-901.12c-11.311 0-20.48 9.169-20.48 20.48s9.169 20.48 20.48 20.48h901.12c11.311 0 20.48-9.169 20.48-20.48s-9.169-20.48-20.48-20.48zM102.4 550.4c11.311 0 20.48-9.169 20.48-20.48v-409.6c0-11.311-9.169-20.48-20.48-20.48s-20.48 9.169-20.48 20.48v409.6c0 11.311 9.169 20.48 20.48 20.48zM307.2 550.4c11.311 0 20.48-9.169 20.48-20.48v-409.6c0-11.311-9.169-20.48-20.48-20.48s-20.48 9.169-20.48 20.48v409.6c0 11.311 9.169 20.48 20.48 20.48zM512 550.4c11.311 0 20.48-9.169 20.48-20.48v-409.6c0-11.311-9.169-20.48-20.48-20.48s-20.48 9.169-20.48 20.48v409.6c0 11.311 9.169 20.48 20.48 20.48zM716.8 550.4c11.311 0 20.48-9.169 20.48-20.48v-409.6c0-11.311-9.169-20.48-20.48-20.48s-20.48 9.169-20.48 20.48v409.6c0 11.311 9.169 20.48 20.48 20.48zM921.6 550.4c11.311 0 20.48-9.169 20.48-20.48v-409.6c0-11.311-9.169-20.48-20.48-20.48s-20.48 9.169-20.48 20.48v409.6c0 11.311 9.169 20.48 20.48 20.48zM61.44 591.36h901.12c27.853 0 36.045 13.312 38.502 20.48s2.867 23.552-20.48 39.117l-423.117 282.829c-27.927 16.997-63.004 16.997-90.931 0l-423.322-282.214c-22.733-15.565-22.733-31.13-20.275-39.731s10.65-20.48 38.502-20.48zM489.267 899.789c14.111 7.956 31.355 7.956 45.466 0l401.203-267.469h-847.872l401.203 267.469z" />
<glyph unicode="&#xe907;" glyph-name="cookoon-bibliotheque-pictogrammes_appartement" horiz-adv-x="805" d="M36.937 578.926v-602.697h389.486v602.697h-389.486zM18.651 615.497h426.057c10.099 0 18.286-8.187 18.286-18.286v-639.269c0-10.099-8.187-18.286-18.286-18.286h-426.057c-10.099 0-18.286 8.187-18.286 18.286v639.269c0 10.099 8.187 18.286 18.286 18.286zM767.269 919.771h-389.486v-304.274h66.926c10.099 0 18.286-8.187 18.286-18.286v-620.983h304.274v943.543zM426.423 578.926h-66.926c-10.099 0-18.286 8.187-18.286 18.286v340.846c0 10.099 8.187 18.286 18.286 18.286h426.057c10.099 0 18.286-8.187 18.286-18.286v-980.114c0-10.099-8.187-18.286-18.286-18.286h-340.846c-10.099 0-18.286 8.187-18.286 18.286v620.983zM590.994-23.771h91.429v91.429h-91.429v-91.429zM572.709 104.229h128c10.099 0 18.286-8.187 18.286-18.286v-128c0-10.099-8.187-18.286-18.286-18.286h-128c-10.099 0-18.286 8.187-18.286 18.286v128c0 10.099 8.187 18.286 18.286 18.286zM122.149-23.771h91.429v91.429h-91.429v-91.429zM103.863 104.229h128c10.099 0 18.286-8.187 18.286-18.286v-128c0-10.099-8.187-18.286-18.286-18.286h-128c-10.099 0-18.286 8.187-18.286 18.286v128c0 10.099 8.187 18.286 18.286 18.286zM18.651 493.714c-10.099 0-18.286 8.187-18.286 18.286s8.187 18.286 18.286 18.286h170.423c10.099 0 18.286-8.187 18.286-18.286s-8.187-18.286-18.286-18.286h-170.423zM18.651 408.503c-10.099 0-18.286 8.187-18.286 18.286s8.187 18.286 18.286 18.286h128c10.099 0 18.286-8.187 18.286-18.286s-8.187-18.286-18.286-18.286h-128zM359.497 749.349c-10.099 0-18.286 8.187-18.286 18.286s8.187 18.286 18.286 18.286h170.423c10.099 0 18.286-8.187 18.286-18.286s-8.187-18.286-18.286-18.286h-170.423zM359.497 834.56c-10.099 0-18.286 8.187-18.286 18.286s8.187 18.286 18.286 18.286h255.634c10.099 0 18.286-8.187 18.286-18.286s-8.187-18.286-18.286-18.286h-255.634zM359.497 664.137c-10.099 0-18.286 8.187-18.286 18.286s8.187 18.286 18.286 18.286h128c10.099 0 18.286-8.187 18.286-18.286s-8.187-18.286-18.286-18.286h-128zM18.651 323.291c-10.099 0-18.286 8.187-18.286 18.286s8.187 18.286 18.286 18.286h85.211c10.099 0 18.286-8.187 18.286-18.286s-8.187-18.286-18.286-18.286h-85.211z" />
<glyph unicode="&#xe908;" glyph-name="key" d="M701.63 353.185c82.55 0 165.107 29.587 227.95 88.762 60.892 57.323 94.42 133.562 94.42 214.638 0 81.090-33.529 157.329-94.42 214.652-125.686 118.35-330.214 118.35-455.9 0-60.892-57.323-94.42-133.562-94.42-214.652 0-81.075 33.529-157.315 94.42-214.638 62.843-59.175 145.4-88.762 227.95-88.762zM701.63 929.913c74.363 0 148.733-26.648 205.348-79.958 54.851-51.649 85.055-120.319 85.055-193.369 0-73.035-30.204-141.705-85.055-193.355-113.23-106.621-297.466-106.621-410.695 0-54.851 51.649-85.055 120.319-85.055 193.355 0 73.050 30.204 141.72 85.055 193.369 56.615 53.31 130.985 79.958 205.348 79.958zM152.73-63.871c4.080 0 8.053 1.611 11.001 4.558l429.531 429.538c6.078 6.078 6.078 15.924 0 22.002s-15.924 6.078-22.002 0l-423.506-423.506-106.553 23.43-8.707 84.239 67.343 13.569c6.146 1.246 10.948 6.047 12.179 12.201l14.184 70.898 71.043 14.313c6.139 1.246 10.94 6.047 12.179 12.186l14.321 71.066 71.050 14.298c6.146 1.246 10.948 6.032 12.186 12.186l15.43 76.596 124.529 125.352c6.078 6.078 6.078 16.082 0 22.159s-10.204 9.593-16.282 3.515l-133.569-132.352c-2.165-2.173-3.647-4.923-4.255-7.932l-14.321-71.050-71.050-14.313c-6.146-1.246-10.948-6.032-12.186-12.186l-14.321-71.066-71.058-14.313c-6.146-1.246-10.948-6.047-12.179-12.201l-14.184-70.898-71.050-14.313c-7.856-1.58-13.227-8.889-12.399-16.851l11.32-109.478c0.691-6.686 5.576-12.156 12.133-13.599l125.85-27.685c1.109-0.243 2.234-0.365 3.343-0.365zM71.56-46.032c3.981 0 7.962 1.519 11.001 4.558l314.484 314.5c6.078 6.078 6.078 15.924 0 22.002s-15.924 6.078-22.002 0l-314.484-314.5c-6.078-6.078-6.078-15.924 0-22.002 3.039-3.039 7.020-4.558 11.001-4.558zM796.444 656.593c19.424 0 38.848 7.405 53.632 22.186 14.332 14.335 22.219 33.386 22.219 53.651s-7.888 39.316-22.219 53.636c-14.324 14.335-33.371 22.232-53.632 22.232s-39.308-7.897-53.632-22.232c-14.324-14.319-22.219-33.371-22.219-53.636s7.888-39.316 22.219-53.651c14.785-14.78 34.209-22.186 53.632-22.186zM796.444 776.831c11.859 0 23.003-4.625 31.39-13.013s13.003-19.528 13.003-31.389c0-11.861-4.624-23.015-13.003-31.404-17.312-17.3-45.468-17.3-62.78 0-8.379 8.389-13.003 19.543-13.003 31.404s4.616 23 13.003 31.389c8.387 8.389 19.531 13.013 31.39 13.013z" />
<glyph unicode="&#xe909;" glyph-name="cookoon-bibliotheque-pictogrammes_apple-tv" horiz-adv-x="1182" d="M1124.832 138.697l-0.007 0.528 0.007 714.177c0.389 14.521-5.008 28.601-15.004 39.14s-23.771 16.674-37.778 17.046l-962.046 0.007c-14.521-0.379-28.296-6.514-38.292-17.053s-15.394-24.619-14.997-39.668l-0.007-714.177c-0.389-14.521 5.008-28.601 15.004-39.14s23.771-16.674 37.778-17.046l962.046-0.007c14.521 0.379 28.296 6.514 38.292 17.053s15.394 24.619 15.004 39.14zM1138.403 72.454c-17.187-18.122-40.872-28.669-66.354-29.328l-963.074 0.007c-24.968 0.652-48.652 11.2-65.84 29.321s-26.468 42.331-25.806 66.771l0.007 713.122c-0.669 24.967 8.612 49.177 25.799 67.298s40.872 28.669 66.354 29.328l963.074-0.007c24.968-0.652 48.652-11.2 65.84-29.321s26.468-42.331 25.806-66.771v-713.401c0.593-24.868-8.683-48.965-25.806-67.019zM253.637-52.972c-10.876 0-19.692 8.817-19.692 19.692s8.817 19.692 19.692 19.692h674.265c10.876 0 19.692-8.817 19.692-19.692s-8.817-19.692-19.692-19.692h-674.265zM571.077 62.818c0 10.876 8.817 19.692 19.692 19.692s19.692-8.817 19.692-19.692v-96.098c0-10.876-8.817-19.692-19.692-19.692s-19.692 8.817-19.692 19.692v96.098zM590.769 115.594c-24.144 0-43.717 19.573-43.717 43.717s19.573 43.717 43.717 43.717c24.144 0 43.717-19.573 43.717-43.717s-19.573-43.717-43.717-43.717zM590.769 154.978c2.393 0 4.332 1.94 4.332 4.332s-1.94 4.332-4.332 4.332c-2.393 0-4.332-1.94-4.332-4.332s1.94-4.332 4.332-4.332zM37.022 235.717v39.385h1107.495v-39.385z" />
<glyph unicode="&#xe90a;" glyph-name="localisation" horiz-adv-x="602" d="M332.499 115.202c33.135 56.59 66.269 115.619 97.18 174.101 15.302 28.951 29.695 57.096 43.024 84.223 61.721 125.624 97.048 222.1 97.048 274.952 0 148.329-120.245 268.574-268.574 268.574s-268.574-120.245-268.574-268.574c0-52.851 35.326-149.328 97.048-274.952 13.328-27.128 27.721-55.272 43.024-84.223 30.911-58.482 64.045-117.511 97.18-174.101 11.317-19.328 21.844-37.016 31.323-52.718 9.479 15.702 20.005 33.39 31.323 52.718zM599.868 648.478c0-59.163-36.314-158.337-100.134-288.233-13.465-27.406-27.992-55.813-43.428-85.016-31.134-58.904-64.476-118.303-97.817-175.245-11.669-19.93-22.507-38.132-32.236-54.236-3.408-5.641-6.435-10.619-9.046-14.886-1.571-2.568-2.658-4.334-3.225-5.25-5.887-9.512-19.723-9.512-25.61 0-0.567 0.916-1.654 2.682-3.225 5.25-2.611 4.268-5.638 9.245-9.046 14.886-9.729 16.104-20.567 34.306-32.236 54.236-33.341 56.942-66.684 116.342-97.817 175.245-15.435 29.203-29.963 57.61-43.428 85.016-63.82 129.896-100.134 229.069-100.134 288.233 0 164.963 133.729 298.692 298.692 298.692s298.692-133.729 298.692-298.692zM301.176 449.265c-112.967 0-204.544 91.577-204.544 204.544s91.577 204.544 204.544 204.544c112.967 0 204.544-91.577 204.544-204.544s-91.577-204.544-204.544-204.544zM301.176 479.383c96.333 0 174.426 78.093 174.426 174.426s-78.093 174.426-174.426 174.426c-96.333 0-174.426-78.093-174.426-174.426s78.093-174.426 174.426-174.426zM398.753 78.519c-8.132 1.741-13.314 9.745-11.573 17.878s9.745 13.314 17.878 11.573c64.939-13.902 106.943-39.732 106.943-74.433 0-51.013-94.679-84.691-210.824-84.691s-210.824 33.678-210.824 84.691c0 34.572 41.623 60.321 106.1 74.261 8.129 1.758 16.144-3.407 17.901-11.536s-3.407-16.144-11.536-17.901c-51.611-11.159-82.347-30.172-82.347-44.824 0-25.91 80.583-54.573 180.706-54.573s180.706 28.664 180.706 54.573c0 14.721-31.096 33.844-83.13 44.983z" />
<glyph unicode="&#xe90b;" glyph-name="cookoon-bibliotheque-pictogrammes_art" horiz-adv-x="1103" d="M306.516 74.136c25.62 25.62 26.211 66.973 0.592 94.146-21.089 25.024-19.512 62.026 3.628 85.167s60.142 24.716 86.401 2.494l183.622-183.623c40.701-41.231 96.222-64.439 154.158-64.439s113.457 23.208 154.249 64.531c136.648 136.625 177.536 342.114 103.596 520.641s-248.144 294.933-441.378 294.933c-193.233 0-367.438-116.405-441.378-294.933-73.902-178.436-33.093-383.807 103.388-520.432 26.35-24.693 67.564-24.043 93.122 1.515zM186.159 44.169l-0.402 0.391c-147.913 147.888-192.172 370.318-112.137 563.563s268.601 319.247 477.765 319.247c209.164 0 397.73-126.002 477.765-319.247s35.777-415.675-112.046-563.472c-48.101-48.727-113.717-76.156-182.187-76.156s-134.086 27.428-182.097 76.065l-182.298 182.399c-9.384 7.908-23.26 7.317-31.937-1.36s-9.269-22.553-2.102-31.106c39.512-41.837 38.574-107.515-2.117-148.207s-106.369-41.63-148.207-2.117zM766.658 592.661l0.085 0.085c8.51 8.432 13.297 19.915 13.297 31.894s-4.787 23.463-13.383 31.979c-12.943 12.981-32.434 16.881-49.375 9.878s-27.991-23.526-27.991-41.857c0-18.331 11.050-34.855 27.991-41.857s36.433-3.103 49.375 9.878zM702.238 546.385c-31.672 13.092-52.33 43.984-52.33 78.255s20.658 65.164 52.33 78.255c31.672 13.092 68.113 5.801 92.226-18.383 15.975-15.828 24.962-37.384 24.962-59.872 0-22.468-8.971-44.006-24.919-59.83-24.198-24.235-60.614-31.51-92.268-18.426zM854.252 347.569c-34.802 0-63.015 28.213-63.015 63.015s28.213 63.015 63.015 63.015c34.802 0 63.015-28.213 63.015-63.015s-28.213-63.015-63.015-63.015zM854.252 386.954c13.051 0 23.631 10.58 23.631 23.631s-10.58 23.631-23.631 23.631c-13.051 0-23.631-10.58-23.631-23.631s10.58-23.631 23.631-23.631zM687.808 149.198l0.064-0.064c12.429-12.567 29.369-19.639 47.045-19.639s34.616 7.072 47.109 19.704c25.958 26.006 25.932 68.127-0.058 94.101s-68.111 25.974-94.101 0c-25.99-25.974-26.016-68.095-0.058-94.101zM660.026 271.156c41.369 41.343 108.413 41.343 149.782 0s41.41-108.388 0.157-149.718c-19.827-20.048-46.851-31.329-75.048-31.329-28.181 0-55.191 11.269-75.016 31.297-41.285 41.397-41.233 108.417 0.125 149.75zM506.805 702.22l-0.129 0.129c-8.432 8.51-19.915 13.297-31.894 13.297s-23.463-4.787-32.736-14.099c-12.485-11.196-17.763-28.374-13.717-44.648s16.753-28.981 33.027-33.027c16.274-4.046 33.452 1.232 45.449 14.559 8.51 8.432 13.297 19.915 13.297 31.894s-4.787 23.463-13.297 31.894zM559.487 670.326c0-22.488-8.987-44.044-24.161-59.030-20.931-23.342-53.046-33.208-83.472-25.644s-54.182 31.32-61.746 61.746c-7.564 30.426 2.302 62.541 24.802 82.671 15.828 15.975 37.384 24.962 59.872 24.962 22.458 0 43.986-8.963 59.808-24.897 15.934-15.822 24.897-37.35 24.897-59.808z" />
<glyph unicode="&#xe90c;" glyph-name="losange" d="M141.241 444.236l374.523 374.523 374.523-374.523-374.523-374.523-374.523 374.523zM45.653 439.952l474.396-474.396 474.396 474.396-474.396 474.396-474.396-474.396zM20.684 439.952l499.364 499.364 499.364-499.364-499.364-499.364-499.364 499.364z" />
<glyph unicode="&#xe90d;" glyph-name="cookoon-bibliotheque-pictogrammes_ascenseur" horiz-adv-x="805" d="M130.926 321.097v105.691c0 10.099 8.187 18.286 18.286 18.286h211.749c10.099 0 18.286-8.187 18.286-18.286v-105.691c0-44.739-11.146-72.672-42.423-79.992v-195.391c0-10.099-8.187-18.286-18.286-18.286h-126.903c-10.099 0-18.286 8.187-18.286 18.286v195.484c-30.684 7.501-42.423 35.614-42.423 79.899zM167.497 321.097c0-34.678 5.852-45.349 24.137-45.349 10.099 0 18.286-8.187 18.286-18.286v-193.463h90.331v193.463c0 10.099 8.187 18.286 18.286 18.286 18.725 0 24.137 10.332 24.137 45.349v87.406h-175.177v-87.406zM254.903 450.926c-45.243 0-81.92 36.677-81.92 81.92s36.677 81.92 81.92 81.92c45.243 0 81.92-36.677 81.92-81.92s-36.677-81.92-81.92-81.92zM254.903 487.497c25.045 0 45.349 20.303 45.349 45.349s-20.303 45.349-45.349 45.349c-25.045 0-45.349-20.303-45.349-45.349s20.303-45.349 45.349-45.349zM427.154 321.097v105.691c0 10.099 8.187 18.286 18.286 18.286h211.749c10.099 0 18.286-8.187 18.286-18.286v-105.691c0-43.451-11.763-72.061-42.057-79.803v-195.58c0-10.099-8.187-18.286-18.286-18.286h-127.269c-10.099 0-18.286 8.187-18.286 18.286v195.523c-30.509 7.59-42.423 35.859-42.423 79.86zM463.726 321.097c0-34.396 6.050-45.349 24.137-45.349 10.099 0 18.286-8.187 18.286-18.286v-193.463h90.697v193.463c0 10.099 8.187 18.286 18.286 18.286 17.576 0 23.771 11.564 23.771 45.349v87.406h-175.177v-87.406zM551.497 450.926c-45.243 0-81.92 36.677-81.92 81.92s36.677 81.92 81.92 81.92c45.243 0 81.92-36.677 81.92-81.92s-36.677-81.92-81.92-81.92zM551.497 487.497c25.045 0 45.349 20.303 45.349 45.349s-20.303 45.349-45.349 45.349c-25.045 0-45.349-20.303-45.349-45.349s20.303-45.349 45.349-45.349zM40.594 662.674v-683.154h725.577v683.154h-725.577zM22.309 699.246h762.149c10.099 0 18.286-8.187 18.286-18.286v-719.726c0-10.099-8.187-18.286-18.286-18.286h-762.149c-10.099 0-18.286 8.187-18.286 18.286v719.726c0 10.099 8.187 18.286 18.286 18.286zM191.606 909.244l-71.888-71.888c-7.141-7.141-18.719-7.141-25.86 0s-7.141 18.719 0 25.86l84.846 84.846c7.152 7.152 18.751 7.139 25.888-0.028l84.48-84.846c7.126-7.156 7.101-18.734-0.056-25.86s-18.734-7.101-25.86 0.056l-71.55 71.86zM173.349 935.131c0 10.099 8.187 18.286 18.286 18.286s18.286-8.187 18.286-18.286v-169.691c0-10.099-8.187-18.286-18.286-18.286s-18.286 8.187-18.286 18.286v169.691zM686.654 863.188c7.126 7.156 18.703 7.181 25.86 0.056s7.181-18.703 0.056-25.86l-84.48-84.846c-7.136-7.167-18.736-7.18-25.888-0.028l-84.846 84.846c-7.141 7.141-7.141 18.719 0 25.86s18.719 7.141 25.86 0l71.888-71.888 71.55 71.86zM633.417 765.44c0-10.099-8.187-18.286-18.286-18.286s-18.286 8.187-18.286 18.286v169.691c0 10.099 8.187 18.286 18.286 18.286s18.286-8.187 18.286-18.286v-169.691z" />
<glyph unicode="&#xe90e;" glyph-name="mail" horiz-adv-x="1600" d="M84.16 878.464l715.84-622.464 715.968 622.592c12.416-11.776 20.032-28.48 20.032-47.040v-767.104c0-35.648-28.736-64.448-64.192-64.448h-1343.616c-36.096 0-64.192 28.864-64.192 64.448v767.104c0 18.496 7.744 35.136 20.16 46.912zM128.256 960c-70.848 0-128.256-57.28-128.256-127.616v-768.768c0-70.464 56.96-127.616 128.256-127.616h1343.552c70.848 0 128.256 57.28 128.256 127.616v768.768c0 70.464-56.96 127.616-128.256 127.616h-1343.552zM800 339.2l-640 556.8h1280l-640-556.8z" />
<glyph unicode="&#xe90f;" glyph-name="cookoon-bibliotheque-pictogrammes_barbecue" horiz-adv-x="805" d="M688.037 544.054c36.213 36.213 56.557 85.328 56.557 136.54 0.089 51.302-20.216 100.503-56.439 136.788-31.89 31.946-73.814 51.571-118.373 55.808v-384.826c44.503 4.232 86.377 23.813 118.255 55.69zM713.897 518.194c-43.071-43.071-101.488-67.268-162.4-67.268-10.099 0-18.286 8.187-18.286 18.286v423.131c0 10.099 8.187 18.286 18.286 18.286 60.981 0 119.458-24.252 162.541-67.409 43.079-43.153 67.229-101.666 67.128-162.641-0.004-60.906-24.201-119.317-67.268-162.384zM569.783 892.343c0-10.099-8.187-18.286-18.286-18.286s-18.286 8.187-18.286 18.286v42.057c0 10.099 8.187 18.286 18.286 18.286s18.286-8.187 18.286-18.286v-42.057zM255.269 366.080c-10.099 0-18.286 8.187-18.286 18.286s8.187 18.286 18.286 18.286h84.48c10.099 0 18.286-8.187 18.286-18.286s-8.187-18.286-18.286-18.286h-84.48zM85.943 535.406c-10.099 0-18.286 8.187-18.286 18.286s8.187 18.286 18.286 18.286h380.709c10.099 0 18.286-8.187 18.286-18.286s-8.187-18.286-18.286-18.286h-380.709zM167.655-41.146c-1.517-9.984-10.84-16.849-20.825-15.332s-16.849 10.84-15.332 20.825l42.057 276.846c1.517 9.984 10.84 16.849 20.825 15.332s16.849-10.84 15.332-20.825l-42.057-276.846zM424.229-57.051c-45.243 0-81.92 36.677-81.92 81.92s36.677 81.92 81.92 81.92c45.243 0 81.92-36.677 81.92-81.92s-36.677-81.92-81.92-81.92zM424.229-20.48c25.045 0 45.349 20.303 45.349 45.349s-20.303 45.349-45.349 45.349c-25.045 0-45.349-20.303-45.349-45.349s20.303-45.349 45.349-45.349zM385.112 239.167c-0.409 10.091 7.439 18.603 17.529 19.012s18.603-7.439 19.012-17.529l6.217-153.234c0.409-10.091-7.439-18.603-17.529-19.012s-18.603 7.439-19.012 17.529l-6.217 153.234zM175.909 112.274v36.571h231.863v-36.571zM297.456 197.12c-150.402 0-272.221 121.819-272.221 272.091 0 10.099 8.187 18.286 18.286 18.286h507.977c10.16 0 18.372-8.282 18.285-18.442-1.28-149.804-122.52-270.87-272.327-271.935zM532.349 450.926h-469.844c9.33-121.507 110.864-217.201 234.756-217.234 123.595 0.911 224.74 96.072 235.088 217.234z" />
<glyph unicode="&#xe910;" glyph-name="max-people" horiz-adv-x="1103" d="M315.077 644.923h-189.472c-47.54 0-86.22-38.769-86.22-86.406v-259.691c0-40.901 30.847-74.715 70.458-79.307v-244.135h32.274v275.937h-23.075c-26.133 0-47.395 21.299-47.395 47.492v259.703c0 29.804 24.199 54.058 53.947 54.058h189.484v32.348zM393.846 778.959v47.004c0 52.059-47.364 94.652-105.256 94.652h-25.796c-57.891 0-105.256-42.593-105.256-94.652v-47.004c0-52.059 47.364-94.652 105.256-94.652h25.796c57.879 0 105.256 42.593 105.256 94.652zM360.346 778.959c0-35.586-32.195-64.538-71.768-64.538h-25.796c-39.573 0-71.768 28.952-71.768 64.538v47.004c0 35.586 32.195 64.538 71.768 64.538h25.796c39.573 0 71.768-28.952 71.768-64.538v-47.004zM977.168 644.923h-189.476v-32.348h189.476c29.746 0 53.944-24.255 53.944-54.058v-259.691c0-26.193-21.249-47.492-47.393-47.492h-23.062v-275.95h32.272v244.135c39.609 4.58 70.455 38.405 70.455 79.307v259.691c0 47.637-38.678 86.406-86.217 86.406zM839.975 920.615h-25.796c-57.891 0-105.256-42.593-105.256-94.652v-47.004c0-52.059 47.364-94.652 105.256-94.652h25.796c57.891 0 105.256 42.593 105.256 94.652v47.004c0.013 52.059-47.352 94.652-105.256 94.652zM911.743 778.959c0-35.586-32.195-64.538-71.768-64.538h-25.796c-39.573 0-71.768 28.952-71.768 64.538v47.004c0 35.586 32.195 64.538 71.768 64.538h25.796c39.573 0 71.768-28.952 71.768-64.538v-47.004zM383.683 210.762c10.208 1.261 19.638 4.999 28.104 10.325 10.635-9.73 23.811-16.399 38.455-18.209v-227.482h29.243v258.154h-20.909c-23.68 0-42.945 20.545-42.945 45.798v282.261c0 28.745 21.927 52.128 48.882 52.128h213.094c26.954 0 48.882-23.384 48.882-52.128v-282.261c0-25.252-19.255-45.798-42.945-45.798h-20.898v-258.154h29.243v227.482c14.644 1.799 27.809 8.468 38.455 18.209 8.466-5.326 17.897-9.064 28.104-10.325v-235.366h29.243v266.026h-20.898c-6.637 0-12.858 1.752-18.477 4.625 4.6 10.115 7.426 21.305 7.426 33.288v282.273c0 45.938-35.048 83.314-78.125 83.314h-213.094c-43.077 0-78.125-37.365-78.125-83.314v-282.261c0-11.972 2.826-23.162 7.426-33.288-5.619-2.885-11.829-4.637-18.466-4.637h-20.898v-266.038h29.243v235.377h-0.022zM538.486 960c-57.891 0-105.256-42.593-105.256-94.652v-47.004c0-52.059 47.364-94.652 105.256-94.652h25.796c57.891 0 105.256 42.593 105.256 94.652v47.004c0 52.059-47.364 94.652-105.256 94.652h-25.796zM636.063 865.348v-47.004c0-35.586-32.195-64.538-71.768-64.538h-25.796c-39.573 0-71.768 28.952-71.768 64.538v47.004c0 35.586 32.195 64.538 71.768 64.538h25.796c39.573 0 71.768-28.952 71.768-64.538zM19.692-24.615h1063.385c10.876 0 19.692-8.817 19.692-19.692s-8.817-19.692-19.692-19.692h-1063.385c-10.876 0-19.692 8.817-19.692 19.692s8.817 19.692 19.692 19.692z" />
<glyph unicode="&#xe911;" glyph-name="cookoon-bibliotheque-pictogrammes_basics-cuisine" d="M920.596 335.423l30.747 30.747c25.919 26.107 25.919 68.237 0.050 94.294l-427.666 427.667c-26.107 25.919-68.237 25.919-94.294 0.050l-30.797-30.797c-12.567-12.429-19.639-29.369-19.639-47.045s7.072-34.616 19.717-47.122l427.794-427.794c12.429-12.567 29.369-19.639 47.045-19.639s34.616 7.072 47.045 19.639zM873.551 276.399c-28.196 0-55.22 11.281-74.971 31.252l-427.64 427.64c-20.048 19.827-31.329 46.851-31.329 75.048s11.281 55.22 31.252 74.971l30.77 30.77c41.465 41.166 108.376 41.166 149.891-0.050l427.767-427.767c41.166-41.465 41.166-108.376-0.050-149.891l-30.683-30.683c-19.823-20.022-46.83-31.289-75.007-31.289zM462.629 427.266c7.69 7.69 20.159 7.69 27.849 0s7.69-20.159 0-27.849l-65.105-65.104c-13.014-12.791-32.873-15.541-49.008-6.692l-56.74 31.701c-0.92 0.488-2.051 0.317-2.714-0.35-0.609-0.62-0.74-1.565-0.341-2.293l78.455-142.416c9.558-16.1 6.982-36.633-6.258-49.872s-33.772-15.816-49.485-6.482l-118.256 66.618c-0.659 0.377-1.493 0.229-1.865-0.208-0.485-0.584-0.485-1.429 0.598-2.77l85.534-113.914c10.446-14.083 10.875-33.222 1.071-47.759s-27.71-21.311-45.069-16.798l-96.282 27.117c-0.677 0.183-1.399-0.008-1.966-0.568l-115.791-113.428c-7.769-7.611-20.237-7.482-27.848 0.287s-7.482 20.237 0.287 27.848l115.723 113.361c10.464 10.35 25.64 14.359 40.061 10.468l96.104-27.070c0.808-0.21 1.661 0.113 2.128 0.805s0.446 1.604 0.018 2.182l-84.867 113.064c-12.599 15.171-12.599 37.167 0.119 52.48 12.754 15.066 34.439 18.893 51.477 9.16l118.541-66.784c0.619-0.368 1.409-0.269 1.918 0.241s0.608 1.299-0.074 2.468l-78.788 143c-8.774 16-6.024 35.859 6.838 48.944 12.966 13.057 32.951 16.085 49.571 7.254l56.973-31.827c0.762-0.418 1.708-0.287 2.207 0.203l64.985 64.985zM473.512 443.618l33.129-33.152 94.441 94.376-33.129 33.152-94.441-94.376zM431.743 457.557l122.3 122.215c7.693 7.688 20.161 7.683 27.849-0.010l60.968-61.011c7.688-7.693 7.683-20.161-0.010-27.849l-122.3-122.215c-7.693-7.688-20.161-7.683-27.849 0.010l-60.968 61.011c-7.688 7.693-7.683 20.161 0.010 27.849z" />
<glyph unicode="&#xe912;" glyph-name="payment" horiz-adv-x="1816" d="M89.669 960h1636.186c49.373 0 89.669-40.517 89.669-89.669 0-281.628 0-563.255 0-844.662 0-49.373-40.517-89.669-89.669-89.669h-1636.186c-49.373 0-89.669 40.296-89.669 89.669 0 281.406 0 563.034 0 844.662 0 49.373 40.296 89.669 89.669 89.669zM42.288 794.167h1730.947v76.163c0 25.904-21.476 47.381-47.381 47.381h-1636.186c-25.904 0-47.381-21.476-47.381-47.381v-76.163zM1773.236 635.862h-1730.947v-610.193c0-26.126 21.255-47.381 47.381-47.381h1636.186c26.126 0 47.381 21.255 47.381 47.381v610.193zM1773.236 751.879h-1730.947v-73.507h1730.947v73.507zM209.228 401.616h323.252v-126.865h-345.392v126.865h22.141zM488.199 357.334h-256.83v-38.525h256.83v38.525zM181.11 99.84h555.506v-42.51h-555.506z" />
<glyph unicode="&#xe913;" glyph-name="cookoon-bibliotheque-pictogrammes_cheminee" horiz-adv-x="1195" d="M510.085 530.415c-17.775 14.411-3.471 42.894 18.703 37.244 166.504-42.426 283.931-191.155 286.573-363.286 0-120.413-97.614-218.027-218.027-218.027s-218.027 97.614-218.027 218.035c0.033 86.553 55.366 163.404 137.439 190.888 12.276 4.111 25.354-3.571 27.741-16.294 2.987-15.919 10.082-30.609 20.385-42.72 24.363 68.826 3.42 146.968-54.788 194.161zM591.355 291.085c-5.951-11.013-20.062-14.559-30.513-7.668-23.251 15.333-41 37.358-51.114 62.868-53.193-26.562-87.733-81.213-87.756-141.912 0-96.849 78.511-175.36 175.36-175.36s175.36 78.511 175.363 175.032c-1.935 126.024-73.434 238.064-181.596 294.452 34.264-63.063 36.116-141.049 0.255-207.413zM106.667 698.453h-28.16c-9.785 0-18.316 6.657-20.694 16.149l-49.493 197.547c-3.374 13.467 6.81 26.518 20.694 26.518h1136.64c13.883 0 24.068-13.051 20.694-26.518l-49.493-197.547c-2.378-9.492-10.909-16.149-20.694-16.149h-28.16v-719.787c0-11.782-9.551-21.333-21.333-21.333h-148.053c-11.782 0-21.333 9.551-21.333 21.333v719.787h-599.893v-719.787c0-11.782-9.551-21.333-21.333-21.333h-148.053c-11.782 0-21.333 9.551-21.333 21.333v719.787zM56.351 896l38.804-154.88h32.845c11.782 0 21.333-9.551 21.333-21.333v-719.787h105.387v719.787c0 11.782 9.551 21.333 21.333 21.333h642.56c11.782 0 21.333-9.551 21.333-21.333v-719.787h105.387v719.787c0 11.782 9.551 21.333 21.333 21.333h32.845l38.804 154.88h-1081.965zM276.053-42.667v42.667h667.307v-42.667zM128 698.453v42.667h172.8v-42.667zM128 549.973v42.667h148.053v-42.667zM128 401.92v42.667h148.053v-42.667zM128 253.867v42.667h148.053v-42.667zM128 105.387v42.667h148.053v-42.667zM918.613 549.973v42.667h148.053v-42.667zM918.613 401.92v42.667h148.053v-42.667zM918.613 253.867v42.667h148.053v-42.667zM918.613 105.387v42.667h148.053v-42.667zM918.613 698.453v42.667h148.053v-42.667z" />
<glyph unicode="&#xe914;" glyph-name="user" horiz-adv-x="981" d="M971.733 29.867c-41.6 227.2-241.067 401.067-481.067 401.067s-439.467-173.867-481.067-401.067c-8.533-45.867 27.733-88.533 73.6-88.533h813.867c46.933 0 83.2 41.6 74.667 88.533zM929.067-8.533c-7.467-9.6-19.2-14.933-30.933-14.933h-814.933c-11.733 0-23.467 5.333-30.933 14.933-4.267 5.333-11.733 16-8.533 32 39.467 215.467 227.2 372.267 446.933 372.267s407.467-156.8 446.933-372.267c3.2-16-4.267-27.733-8.533-32zM490.667 465.067c135.467 0 244.267 109.867 244.267 244.267s-108.8 245.333-244.267 245.333c-135.467 0-244.267-109.867-244.267-244.267s108.8-245.333 244.267-245.333zM490.667 919.467c115.2 0 210.133-93.867 210.133-210.133s-94.933-209.067-210.133-209.067c-115.2 0-210.133 93.867-210.133 210.133s94.933 209.067 210.133 209.067z" />
<glyph unicode="&#xe915;" glyph-name="cookoon-bibliotheque-pictogrammes_chromecast" horiz-adv-x="473" d="M425.748 720.148c0 10.876 8.817 19.692 19.692 19.692s19.692-8.817 19.692-19.692v-587.271c-0.242-103.194-83.837-186.789-187.077-187.031h-83.542c-103.194 0.242-186.789 83.837-187.031 187.077v587.225c0 10.876 8.817 19.692 19.692 19.692s19.692-8.817 19.692-19.692v-587.178c0.191-81.514 66.224-147.547 147.692-147.738h83.449c81.514 0.191 147.547 66.224 147.738 147.692v587.225zM130.363 909.588v-169.748h211.889v169.748h-211.889zM110.671 948.972h251.274c10.876 0 19.692-8.817 19.692-19.692v-209.132c0-10.876-8.817-19.692-19.692-19.692h-251.274c-10.876 0-19.692 8.817-19.692 19.692v209.132c0 10.876 8.817 19.692 19.692 19.692zM174.868 845.785c0 10.876 8.817 19.692 19.692 19.692s19.692-8.817 19.692-19.692v-42.142c0-10.876-8.817-19.692-19.692-19.692s-19.692 8.817-19.692 19.692v42.142zM258.363 845.785c0 10.876 8.817 19.692 19.692 19.692s19.692-8.817 19.692-19.692v-42.142c0-10.876-8.817-19.692-19.692-19.692s-19.692 8.817-19.692 19.692v42.142zM27.175 700.455c-10.876 0-19.692 8.817-19.692 19.692s8.817 19.692 19.692 19.692h418.265c10.876 0 19.692-8.817 19.692-19.692s-8.817-19.692-19.692-19.692h-418.265zM110.671 616.566c-10.876 0-19.692 8.817-19.692 19.692s8.817 19.692 19.692 19.692h251.274c10.876 0 19.692-8.817 19.692-19.692s-8.817-19.692-19.692-19.692h-251.274z" />
<glyph unicode="&#xe916;" glyph-name="watch" horiz-adv-x="569" d="M568.889 448c0 92.824-44.885 175.142-113.873 227.081 0 0.171 0.095 0.303 0.095 0.474v265.481c0 10.468-8.476 18.963-18.963 18.963h-303.407c-10.468 0-18.963-8.495-18.963-18.963v-265.481c0-0.171 0.095-0.303 0.095-0.474-68.987-51.959-113.873-134.258-113.873-227.081s44.885-175.123 113.873-227.1c0-0.152-0.095-0.284-0.095-0.455v-265.481c0-10.487 8.495-18.963 18.963-18.963h303.407c10.487 0 18.963 8.476 18.963 18.963v265.481c0 0.171-0.095 0.303-0.095 0.455 68.987 51.959 113.873 134.277 113.873 227.1zM151.704 922.074h265.481v-222.701c-39.671 21.030-84.802 33.071-132.741 33.071s-93.070-12.041-132.741-33.071v222.701zM417.185-26.074h-265.481v222.682c39.671-21.011 84.802-33.052 132.741-33.052s93.070 12.041 132.741 33.052v-222.682zM284.444 201.481c-135.927 0-246.519 110.592-246.519 246.519s110.592 246.519 246.519 246.519c135.927 0 246.519-110.592 246.519-246.519s-110.592-246.519-246.519-246.519zM284.444 656.593c-10.468 0-18.963-8.495-18.963-18.963v-181.779l-70.296-70.296c-7.415-7.415-7.415-19.399 0-26.814 3.698-3.698 8.552-5.556 13.407-5.556s9.709 1.858 13.407 5.556l75.852 75.852c3.565 3.546 5.556 8.382 5.556 13.407v189.63c0 10.468-8.495 18.963-18.963 18.963z" />
<glyph unicode="&#xe917;" glyph-name="uniE917" horiz-adv-x="1179" d="M1008.498 835.243c-0.491 11.98-10.352 21.436-22.355 21.426h-793.148c-11.99 0.010-21.85-9.446-22.329-20.79l-0.008-454.101c0.46-14.455 10.751-26.718 24.365-29.577l359.438-61.981c23.298-3.218 46.929-3.218 69.714-0.080l359.41 61.957c14.083 2.947 24.341 15.1 24.899 29.458l0.013 453.687zM1039.515 381.285l-0.008-0.493c-0.915-28.767-21.395-53.172-50.108-59.17l-360.465-62.14c-26.116-3.607-52.603-3.607-79.232 0.080l-360.493 62.164c-28.171 5.894-48.651 30.3-49.574 59.56l0.013 455.23c1.174 28.619 24.729 51.209 53.359 51.185h793.122c28.643 0.024 52.198-22.566 53.385-51.821v-454.594z" />
<glyph unicode="&#xe918;" glyph-name="uniE918" horiz-adv-x="1179" d="M1008.498 835.243c-0.491 11.98-10.352 21.436-22.355 21.426h-793.148c-11.99 0.010-21.85-9.446-22.329-20.79l-0.008-454.101c0.46-14.455 10.751-26.718 24.365-29.577l359.438-61.981c23.298-3.218 46.929-3.218 69.714-0.080l359.41 61.957c14.083 2.947 24.341 15.1 24.899 29.458l0.013 453.687zM1039.515 381.285l-0.008-0.493c-0.915-28.767-21.395-53.172-50.108-59.17l-360.465-62.14c-26.116-3.607-52.603-3.607-79.232 0.080l-360.493 62.164c-28.171 5.894-48.651 30.3-49.574 59.56l0.013 455.23c1.174 28.619 24.729 51.209 53.359 51.185h793.122c28.643 0.024 52.198-22.566 53.385-51.821v-454.594z" />
<glyph unicode="&#xe919;" glyph-name="uniE919" horiz-adv-x="1179" d="M246.070 781.265v-346.608h686.701v346.608h-686.701zM230.555 812.296h717.731c8.569 0 15.515-6.946 15.515-15.515v-377.639c0-8.569-6.946-15.515-15.515-15.515h-717.731c-8.569 0-15.515 6.946-15.515 15.515v377.639c0 8.569 6.946 15.515 15.515 15.515z" />
<glyph unicode="&#xe91a;" glyph-name="uniE91A" horiz-adv-x="1179" d="M246.070 781.265v-346.608h686.701v346.608h-686.701zM230.555 812.296h717.731c8.569 0 15.515-6.946 15.515-15.515v-377.639c0-8.569-6.946-15.515-15.515-15.515h-717.731c-8.569 0-15.515 6.946-15.515 15.515v377.639c0 8.569 6.946 15.515 15.515 15.515z" />
<glyph unicode="&#xe91b;" glyph-name="uniE91B" horiz-adv-x="1179" d="M589.576 362.356c-10.454 0-18.928-8.475-18.928-18.928s8.475-18.928 18.928-18.928c10.454 0 18.928 8.475 18.928 18.928s-8.475 18.928-18.928 18.928z" />
<glyph unicode="&#xe91c;" glyph-name="uniE91C" horiz-adv-x="1179" d="M589.576 362.356c-10.454 0-18.928-8.475-18.928-18.928s8.475-18.928 18.928-18.928c10.454 0 18.928 8.475 18.928 18.928s-8.475 18.928-18.928 18.928z" />
<glyph unicode="&#xe91d;" glyph-name="uniE91D" horiz-adv-x="1179" d="M517.275 268.024c0 8.569 6.946 15.515 15.515 15.515s15.515-6.946 15.515-15.515v-94.642c0-8.569-6.946-15.515-15.515-15.515s-15.515 6.946-15.515 15.515v94.642z" />
<glyph unicode="&#xe91e;" glyph-name="uniE91E" horiz-adv-x="1179" d="M517.275 268.024c0 8.569 6.946 15.515 15.515 15.515s15.515-6.946 15.515-15.515v-94.642c0-8.569-6.946-15.515-15.515-15.515s-15.515 6.946-15.515 15.515v94.642z" />
<glyph unicode="&#xe91f;" glyph-name="uniE91F" horiz-adv-x="1179" d="M630.846 268.024c0 8.569 6.946 15.515 15.515 15.515s15.515-6.946 15.515-15.515v-94.642c0-8.569-6.946-15.515-15.515-15.515s-15.515 6.946-15.515 15.515v94.642z" />
<glyph unicode="&#xe920;" glyph-name="uniE920" horiz-adv-x="1179" d="M630.846 268.024c0 8.569 6.946 15.515 15.515 15.515s15.515-6.946 15.515-15.515v-94.642c0-8.569-6.946-15.515-15.515-15.515s-15.515 6.946-15.515 15.515v94.642z" />
<glyph unicode="&#xe921;" glyph-name="uniE921" horiz-adv-x="1179" d="M875.277 131.027c7.799-3.55 11.243-12.751 7.692-20.549s-12.751-11.243-20.549-7.692c-85.417 38.886-178.593 57.728-273.281 55.087-93.814 2.641-186.991-16.201-272.408-55.087-7.799-3.55-16.999-0.106-20.549 7.692s-0.106 16.999 7.692 20.549c89.722 40.846 187.595 60.638 285.265 57.863 98.543 2.775 196.416-17.018 286.138-57.863z" />
<glyph unicode="&#xe922;" glyph-name="uniE922" horiz-adv-x="1179" d="M875.277 131.027c7.799-3.55 11.243-12.751 7.692-20.549s-12.751-11.243-20.549-7.692c-85.417 38.886-178.593 57.728-273.281 55.087-93.814 2.641-186.991-16.201-272.408-55.087-7.799-3.55-16.999-0.106-20.549 7.692s-0.106 16.999 7.692 20.549c89.722 40.846 187.595 60.638 285.265 57.863 98.543 2.775 196.416-17.018 286.138-57.863z" />
<glyph unicode="&#xe923;" glyph-name="cookoon-bibliotheque-pictogrammes_cuisine_ouverte" horiz-adv-x="1249" d="M523.925 382.608h-261.307c-26.996 0-49.012 22.016-49.012 49.012v11.008c0 26.996 22.016 49.012 49.012 49.012h261.307c26.996 0 49.012-22.016 49.012-49.012v-11.008c0-26.996-22.016-49.012-49.012-49.012zM262.356 465.429c-12.58 0-22.802-10.222-22.802-22.802v-11.008c0-12.58 10.222-22.802 22.802-22.802h261.307c12.58 0 22.802 10.222 22.802 22.802v11.008c0 12.58-10.222 22.802-22.802 22.802h-261.307zM393.141-55.089c-7.339 0-13.105 5.766-13.105 13.105v429.047c0 7.339 5.766 13.105 13.105 13.105s13.105-5.766 13.105-13.105v-429.047c0-7.339-5.766-13.105-13.105-13.105zM546.203-55.089c-6.028 0-11.27 3.931-12.843 9.96l-101.954 429.047c-1.573 7.077 2.621 14.153 9.697 15.726s14.153-2.621 15.726-9.697l101.954-429.047c1.573-7.077-2.621-14.153-9.697-15.726-0.786-0.262-1.835-0.262-2.883-0.262zM236.671-57.448c-1.048 0-2.097 0-3.145 0.262-7.077 1.573-11.27 8.649-9.697 15.726l101.954 429.047c1.573 7.077 8.649 11.27 15.726 9.697s11.27-8.649 9.697-15.726l-101.692-428.785c-1.31-6.028-6.814-10.222-12.843-10.222zM463.382 280.653h-146.248c-7.339 0-13.105 5.766-13.105 13.105s5.766 13.105 13.105 13.105h146.248c7.339 0 13.105-5.766 13.105-13.105s-5.766-13.105-13.105-13.105zM989.666 382.608h-261.307c-26.996 0-49.012 22.016-49.012 49.012v11.008c0 26.996 22.016 49.012 49.012 49.012h261.307c26.996 0 49.012-22.016 49.012-49.012v-11.008c0-26.996-22.016-49.012-49.012-49.012zM728.096 465.429c-12.58 0-22.802-10.222-22.802-22.802v-11.008c0-12.58 10.222-22.802 22.802-22.802h261.307c12.58 0 22.802 10.222 22.802 22.802v11.008c0 12.58-10.222 22.802-22.802 22.802h-261.307zM858.881-55.089c-7.339 0-13.105 5.766-13.105 13.105v429.047c0 7.339 5.766 13.105 13.105 13.105s13.105-5.766 13.105-13.105v-429.047c0-7.339-5.766-13.105-13.105-13.105zM1011.944-55.089c-6.028 0-11.27 3.931-12.843 9.96l-101.954 429.047c-1.573 7.077 2.621 14.153 9.697 15.726s14.153-2.621 15.726-9.697l102.217-428.785c1.573-7.077-2.621-14.153-9.697-15.726-1.048-0.524-2.097-0.524-3.145-0.524zM702.673-57.448c-1.048 0-2.097 0-3.145 0.262-7.077 1.573-11.27 8.649-9.697 15.726l101.954 429.047c1.573 7.077 8.649 11.27 15.726 9.697s11.27-8.649 9.697-15.726l-101.954-429.047c-1.31-5.766-6.814-9.96-12.58-9.96zM929.122 280.653h-146.248c-7.339 0-13.105 5.766-13.105 13.105s5.766 13.105 13.105 13.105h146.248c7.339 0 13.105-5.766 13.105-13.105s-5.766-13.105-13.105-13.105zM434.289 646.274h-117.942c-23.064 0-41.935 18.871-41.935 41.935v81.249c0 7.339 5.766 13.105 13.105 13.105h175.603c7.339 0 13.105-5.766 13.105-13.105v-81.249c0-23.064-18.871-41.935-41.935-41.935zM300.621 756.353v-68.144c0-8.649 7.077-15.726 15.726-15.726h117.942c8.649 0 15.726 7.077 15.726 15.726v68.144h-149.393zM569.53 756.353h-106.672c-7.339 0-13.105 5.766-13.105 13.105s5.766 13.105 13.105 13.105h106.672c7.339 0 13.105-5.766 13.105-13.105s-5.766-13.105-13.105-13.105zM906.058 646.274h-144.152c-25.947 0-47.177 21.23-47.177 47.177v146.772c0 7.339 5.766 13.105 13.105 13.105h212.296c7.339 0 13.105-5.766 13.105-13.105v-146.772c0-25.947-21.23-47.177-47.177-47.177zM740.939 827.119v-133.668c0-11.532 9.435-20.967 20.967-20.967h144.152c11.532 0 20.967 9.435 20.967 20.967v133.668h-186.087zM940.13 827.119h-212.296c-7.339 0-13.105 5.766-13.105 13.105 0 41.935 34.072 76.007 76.007 76.007h86.491c41.935 0 76.007-34.072 76.007-76.007 0-7.077-6.028-13.105-13.105-13.105zM742.511 853.328h182.679c-5.766 21.23-25.161 36.693-47.963 36.693h-86.491c-23.064 0-42.459-15.464-48.225-36.693zM863.074 890.021c-7.339 0-13.105 5.766-13.105 13.105v30.665h-22.802v-30.665c0-7.339-5.766-13.105-13.105-13.105s-13.105 5.766-13.105 13.105v43.77c0 7.339 5.766 13.105 13.105 13.105h49.012c7.339 0 13.105-5.766 13.105-13.105v-43.77c0-7.077-5.766-13.105-13.105-13.105zM982.065 827.119h-299.835c-7.339 0-13.105 5.766-13.105 13.105s5.766 13.105 13.105 13.105h299.573c7.339 0 13.105-5.766 13.105-13.105s-5.766-13.105-12.843-13.105zM356.447 795.667c-3.407 0-7.077 1.31-9.697 4.193-4.98 5.242-4.456 13.629 0.786 18.609 11.27 10.484 8.649 16.774-0.524 33.024-2.883 4.98-5.504 9.96-7.601 15.201-8.911 23.064 8.911 42.983 20.967 50.846 6.028 3.931 14.153 2.359 18.084-3.669s2.359-14.153-3.669-18.084c-0.262-0.262-14.677-10.484-11.008-19.657 1.31-3.669 3.669-7.601 6.028-11.794 8.387-14.939 22.802-40.1-4.456-65.261-2.621-2.097-5.766-3.407-8.911-3.407zM409.915 795.667c-3.407 0-7.077 1.31-9.697 4.193-4.98 5.242-4.456 13.629 0.786 18.609 11.27 10.484 8.649 16.774-0.524 33.024-2.883 4.98-5.504 9.96-7.601 15.201-8.911 23.064 8.911 42.983 20.967 50.846 6.028 3.931 14.153 2.359 18.084-3.669s2.359-14.153-3.669-18.084c-0.262-0.262-14.677-10.484-11.008-19.657 1.31-3.669 3.669-7.601 6.028-11.794 8.387-14.939 22.802-40.1-4.456-65.261-2.359-2.097-5.504-3.407-8.911-3.407zM1236.034-64h-1222.929c-7.339 0-13.105 5.766-13.105 13.105s5.766 13.105 13.105 13.105h1222.929c7.339 0 13.105-5.766 13.105-13.105s-5.766-13.105-13.105-13.105zM1089.523-61.641h-927.025c-7.339 0-13.105 5.766-13.105 13.105v635.577c0 7.339 5.766 13.105 13.105 13.105h927.025c7.339 0 13.105-5.766 13.105-13.105v-635.839c0-7.077-5.766-12.843-13.105-12.843zM175.603-35.432h900.816v609.368h-900.816v-609.368zM1155.833 573.936h-1068.294c-7.339 0-13.105 5.766-13.105 13.105v72.862c0 7.339 5.766 13.105 13.105 13.105h1068.294c7.339 0 13.105-5.766 13.105-13.105v-72.862c0-7.077-6.028-13.105-13.105-13.105zM100.644 600.145h1042.084v46.653h-1042.084v-46.653z" />
<glyph unicode="&#xe924;" glyph-name="cookoon-bibliotheque-pictogrammes_frigo" horiz-adv-x="819" d="M138.445 896.922c-34.837 0-63.078-28.241-63.078-63.078v-750.797c0-34.837 28.241-63.078 63.078-63.078h541.901c34.837 0 63.078 28.241 63.078 63.078v750.797c0 34.837-28.241 63.078-63.078 63.078h-541.901zM138.445 937.882h541.901c57.459 0 104.038-46.58 104.038-104.038v-750.797c0-57.459-46.58-104.038-104.038-104.038h-541.901c-57.459 0-104.038 46.58-104.038 104.038v750.797c0 57.459 46.58 104.038 104.038 104.038zM200.704-63.181h-40.96v62.669h40.96zM659.456-63.181h-40.96v62.669h40.96zM54.886 563.098v40.96h709.427v-40.96zM159.744 812.954h40.96v-124.928h-40.96zM159.744 520.909h40.96v-250.266h-40.96z" />
<glyph unicode="&#xe925;" glyph-name="cookoon-bibliotheque-pictogrammes_jardin_deux" horiz-adv-x="1100" d="M737.945-50.046c-7.514 0-13.417 5.904-13.417 13.417v804.495c0 7.514 5.904 13.417 13.417 13.417s13.417-5.904 13.417-13.417v-804.495c0-7.245-5.904-13.417-13.417-13.417zM587.673 218.834c-7.245 0-13.149 5.904-13.417 13.149-0.268 7.514 5.635 13.417 13.149 13.686 78.893 1.878 125.048 38.91 137.392 110.289 1.073 6.44 6.709 11.27 13.149 11.27 0 0 0 0 0 0 6.44 0 12.075-4.83 13.149-11.27 8.587-49.107 48.302-76.478 118.071-81.308 111.363-5.367 189.182 60.377 202.868 172.008 12.075 97.409-53.669 189.182-149.736 209.040-3.757 0.805-7.245 3.22-9.124 6.709s-2.147 7.514-0.805 11.27c18.516 47.229 17.711 98.751-2.415 145.174-19.589 46.423-56.621 82.382-103.849 100.897-97.14 38.373-207.698-9.392-246.071-106.801-5.904-14.759-9.929-30.323-11.807-46.155-5.099-40.52 2.415-72.99 25.493-111.631 2.415-4.025 2.683-9.124 0.268-13.417s-6.709-6.709-11.27-6.977c-104.654-2.952-187.304-90.164-184.352-194.818 0.805-30.055 8.855-59.841 23.346-86.407 3.488-6.44 1.342-14.759-5.367-18.247-6.44-3.488-14.759-1.342-18.247 5.367-16.637 30.055-25.761 64.134-26.834 98.482-2.952 112.168 80.235 206.893 189.182 220.579-18.247 36.226-23.883 70.306-18.784 110.021 2.147 17.979 6.709 35.69 13.417 52.595 43.74 111.094 169.862 165.568 280.956 121.828 53.669-21.199 96.067-62.256 119.145-115.119 20.931-48.302 23.614-101.434 7.782-151.346 47.229-13.417 88.553-42.13 117.266-82.382 31.665-44.277 45.618-98.751 38.91-152.688-7.514-59.572-31.933-109.484-71.111-144.369-41.057-36.495-96.604-54.474-159.933-51.254-62.524 4.294-105.996 25.761-128.268 62.524-10.734-26.298-27.371-46.96-49.644-62.256-26.834-18.247-61.182-28.176-101.971-29.249-0.268 0.805-0.537 0.805-0.537 0.805zM739.556 497.375c-4.562 0-8.855 2.147-11.539 6.44-4.025 6.172-1.878 14.491 4.294 18.516l131.488 81.845c6.172 4.025 14.491 1.878 18.516-4.294s1.878-14.491-4.294-18.516l-131.488-81.845c-2.147-1.61-4.562-2.147-6.977-2.147zM730.7 430.289c-1.342 0-2.683 0.268-3.757 0.537l-165.568 49.912c-6.977 2.147-11.002 9.66-8.855 16.637s9.66 11.002 16.637 8.855l165.568-49.912c6.977-2.147 11.002-9.66 8.855-16.637-1.878-5.635-6.977-9.392-12.881-9.392zM1018.096-64h-1004.679c-7.514 0-13.417 5.904-13.417 13.417s5.904 13.417 13.417 13.417h1004.679c7.514 0 13.417-5.904 13.417-13.417s-5.904-13.417-13.417-13.417zM143.564-57.023c-4.83 0-9.66 2.683-11.807 7.245-13.149 25.224-10.465 53.132-8.050 79.966l0.268 1.878c4.83 53.4 32.738 102.239 74.868 130.952 31.665 21.736 86.675 42.667 168.252 19.321 7.245-2.147 11.27-9.392 9.124-16.637s-9.392-11.27-16.637-9.124c-56.621 16.369-106.801 11.002-145.442-15.564-35.421-24.151-59.036-65.744-63.329-111.363l-0.268-1.878c-2.415-25.224-4.294-46.96 5.099-65.476 3.488-6.709 0.805-14.759-5.635-17.979-2.147-1.073-4.294-1.342-6.44-1.342zM646.709-48.436c-1.342 0-2.683 0.268-4.025 0.537-6.977 2.147-11.002 9.66-8.855 16.637 13.417 43.74-6.709 89.895-47.497 110.021-4.562 2.147-7.514 6.977-7.514 12.075 0 1.342 0 2.683 0 4.025 0 1.073 0 2.147 0 2.952 0 101.434-82.65 184.084-184.084 184.084-59.572 0-131.757-19.321-137.124-111.899-0.537-7.514-6.709-13.149-14.222-12.612s-13.149 6.709-12.612 14.222c5.099 87.212 64.671 137.124 163.958 137.124 115.925 0 210.382-94.189 210.918-210.113 47.765-27.908 70.306-84.528 53.669-137.929-1.61-5.367-6.977-9.124-12.612-9.124zM938.398 652.746c-1.073 0-2.415 0.268-3.488 0.537-39.983 11.002-78.625 1.878-79.161 1.878-7.245-1.61-14.491 2.683-16.101 9.929s2.683 14.491 9.929 16.101c1.878 0.537 45.618 10.734 92.31-2.147 7.245-1.878 11.27-9.392 9.392-16.369-1.61-6.172-6.977-9.929-12.881-9.929zM585.795 45.753c-1.342 0-2.683 0.268-4.025 0.537-6.977 2.147-11.002 9.66-8.855 16.906 4.294 13.686 6.172 27.908 5.904 42.13-0.268 7.514 5.635 13.686 12.881 13.954 0.268 0 0.268 0 0.537 0 7.245 0 13.149-5.635 13.417-12.881 0.537-17.174-1.878-34.348-6.977-50.985-1.878-5.904-7.245-9.66-12.881-9.66z" />
<glyph unicode="&#xe926;" glyph-name="cookoon-bibliotheque-pictogrammes_hotel-particulier" horiz-adv-x="1182" d="M1029.12 375.926c0 10.876 8.817 19.692 19.692 19.692s19.692-8.817 19.692-19.692v-384.394c0-10.876-8.817-19.692-19.692-19.692h-913.329c-10.876 0-19.692 8.817-19.692 19.692v384.394c0 10.876 8.817 19.692 19.692 19.692s19.692-8.817 19.692-19.692v-364.702h873.945v364.702zM69.249 395.618h354.53c10.876 0 19.692-8.817 19.692-19.692s-8.817-19.692-19.692-19.692h-384.394c-14.137 0-23.669 14.455-18.1 27.449l144.148 336.345c3.103 7.241 10.223 11.935 18.1 11.935h295.778c10.876 0 19.692-8.817 19.692-19.692s-8.817-19.692-19.692-19.692h-282.793l-127.269-296.96zM987.398 692.578h-282.414c-10.876 0-19.692 8.817-19.692 19.692s8.817 19.692 19.692 19.692h295.385c7.87 0 14.985-4.686 18.092-11.917l144.542-336.345c5.585-12.997-3.947-27.467-18.092-27.467h-384.788c-10.876 0-19.692 8.817-19.692 19.692s8.817 19.692 19.692 19.692h354.891l-127.616 296.96zM251.274 731.963h56.714v152.812h-56.714v-152.812zM231.582 924.16h96.098c10.876 0 19.692-8.817 19.692-19.692v-192.197c0-10.876-8.817-19.692-19.692-19.692h-96.098c-10.876 0-19.692 8.817-19.692 19.692v192.197c0 10.876 8.817 19.692 19.692 19.692zM184.32 884.775c-10.876 0-19.692 8.817-19.692 19.692s8.817 19.692 19.692 19.692h191.409c10.876 0 19.692-8.817 19.692-19.692s-8.817-19.692-19.692-19.692h-191.409zM875.914 884.775v-152.812h56.714v152.812h-56.714zM856.222 924.16h96.098c10.876 0 19.692-8.817 19.692-19.692v-192.197c0-10.876-8.817-19.692-19.692-19.692h-96.098c-10.876 0-19.692 8.817-19.692 19.692v192.197c0 10.876 8.817 19.692 19.692 19.692zM808.96 884.775c-10.876 0-19.692 8.817-19.692 19.692s8.817 19.692 19.692 19.692h191.409c10.876 0 19.692-8.817 19.692-19.692s-8.817-19.692-19.692-19.692h-191.409zM443.471 11.225h296.96v489.157h-296.96v-489.157zM423.778 539.766h336.345c10.876 0 19.692-8.817 19.692-19.692v-528.542c0-10.876-8.817-19.692-19.692-19.692h-336.345c-10.876 0-19.692 8.817-19.692 19.692v528.542c0 10.876 8.817 19.692 19.692 19.692zM368.255 539.766h447.392l-223.696 284.037-223.696-284.037zM607.421 867.815l264.271-335.557c10.173-12.917 0.972-31.876-15.471-31.876h-528.542c-16.442 0-25.644 18.959-15.471 31.876l264.271 335.557c7.884 10.011 23.057 10.011 30.941 0zM875.914 203.422h56.714v56.714h-56.714v-56.714zM856.222 299.52h96.098c10.876 0 19.692-8.817 19.692-19.692v-96.098c0-10.876-8.817-19.692-19.692-19.692h-96.098c-10.876 0-19.692 8.817-19.692 19.692v96.098c0 10.876 8.817 19.692 19.692 19.692zM251.274 203.422h56.714v56.714h-56.714v-56.714zM231.582 299.52h96.098c10.876 0 19.692-8.817 19.692-19.692v-96.098c0-10.876-8.817-19.692-19.692-19.692h-96.098c-10.876 0-19.692 8.817-19.692 19.692v96.098c0 10.876 8.817 19.692 19.692 19.692zM539.569 11.225h104.763v248.911h-104.763v-248.911zM519.877 299.52h144.148c10.876 0 19.692-8.817 19.692-19.692v-288.295c0-10.876-8.817-19.692-19.692-19.692h-144.148c-10.876 0-19.692 8.817-19.692 19.692v288.295c0 10.876 8.817 19.692 19.692 19.692z" />
<glyph unicode="&#xe927;" glyph-name="cookoon-bibliotheque-pictogrammes_art_deux" horiz-adv-x="1260" d="M1041.317-63.745h-1028.584c-7.131 0-12.733 5.603-12.733 12.733s5.603 12.733 12.733 12.733h1028.584c7.131 0 12.733-5.603 12.733-12.733s-5.857-12.733-12.733-12.733zM595.657 252.801c0 0-0.255 0-0.255 0l-147.195 4.075c-12.733 0.255-25.212 3.056-37.181 7.895-6.367 2.801-9.423 10.187-6.876 16.808 2.801 6.367 10.187 9.423 16.808 6.876 8.913-3.82 18.081-5.857 27.758-5.857l147.195-4.075c7.131-0.255 12.478-6.112 12.478-12.988-0.255-7.385-5.857-12.733-12.733-12.733zM361.621 348.299c0 0-0.255 0-0.255 0-7.131 0.255-12.478 6.112-12.478 12.988 0.764 27.249 11.969 52.461 31.578 71.306s45.585 28.777 72.834 28.013c0 0 0 0 0 0l152.543-3.82c22.665-0.509 41.765-5.857 56.535-16.044 5.857-3.82 7.385-11.714 3.565-17.572s-11.714-7.385-17.572-3.565c-10.951 7.385-25.466 11.205-43.038 11.714l-152.288 3.82c0 0 0 0 0 0-20.373 0.509-39.727-6.876-54.498-21.137-14.77-14.006-23.174-33.106-23.684-53.479-0.764-6.621-6.367-12.224-13.242-12.224zM686.826 356.958c-2.292 0-4.584 0.509-6.621 1.783-37.435 22.92-46.349 66.976-21.646 107.213l65.448 106.958c7.385 12.224 24.957 28.268 35.398 34.634 6.112 3.565 13.752 1.528 17.572-4.329s1.528-13.752-4.329-17.572c-7.385-4.329-21.646-17.826-26.74-25.976l-65.448-106.958c-17.317-28.268-12.224-56.535 13.242-72.070 6.112-3.565 7.895-11.46 4.329-17.572-2.801-3.82-6.876-6.112-11.205-6.112zM790.729 354.411c-2.292 0-4.839 0.764-6.876 2.037-5.857 3.82-7.64 11.714-3.82 17.572l75.89 118.164c7.131 11.714 7.895 28.522 1.783 44.821-6.876 19.1-21.646 34.38-41.001 43.547l-10.441 4.075c-6.367 2.547-9.677 9.677-7.385 16.298 2.292 6.367 9.423 9.932 16.044 7.64 4.075-1.273 7.895-2.801 11.714-4.584l9.677-3.82c2.547-1.019 4.584-2.801 6.112-5.093 18.081-12.224 31.833-29.286 38.963-49.405 8.659-23.684 7.131-48.641-4.075-66.976 0 0 0-0.255-0.255-0.255l-76.144-118.164c-2.037-3.82-6.112-5.857-10.187-5.857zM790.474 583.353c-45.585 0-85.057 34.125-90.66 80.474l-21.392 180.556c0 0 0 0 0 0-5.857 49.914 30.050 95.499 79.964 101.356 24.193 2.801 48.131-3.82 67.231-19.1 19.1-15.025 31.324-36.671 34.125-60.864l23.938-200.674c0.764-6.876-4.075-13.242-11.205-14.261-6.876-0.764-13.242 4.075-14.261 11.205l-23.938 200.929c-4.075 35.907-36.926 61.883-72.834 57.554-36.162-4.329-61.883-36.926-57.809-73.088 0 0 0 0 0 0l21.392-180.556c4.329-35.907 37.181-61.883 73.088-57.554l43.038 5.348c6.876 1.019 13.242-4.075 14.261-10.951 0.764-6.876-4.075-13.242-10.951-14.261l-43.038-5.603c0 0 0 0-0.255 0-3.565-0.255-7.131-0.509-10.696-0.509zM913.986 672.231c0 0-0.255 0-0.255 0-7.131 0.255-12.478 6.112-12.478 12.988l4.584 181.829c1.019 36.162-27.758 66.467-63.92 67.486-15.28 0.509-30.305-4.584-42.274-14.006-5.603-4.329-13.497-3.311-17.826 2.037-4.329 5.603-3.311 13.497 2.037 17.826 16.553 13.242 37.435 20.118 58.827 19.609 50.169-1.273 90.151-43.293 88.877-93.461l-4.584-181.829c-0.255-6.876-6.112-12.478-12.988-12.478zM815.94-63.745c-6.367 0-11.714 4.584-12.478 10.951-1.019 6.876 3.82 13.497 10.696 14.516l15.789 2.292c21.646 6.112 39.982 21.137 50.169 41.255 9.168 18.336 10.441 38.454 3.82 55.771 0 0.255-0.255 0.509-0.255 0.764l-79.2 247.532c0 0.255-0.255 0.509-0.255 0.764-4.839 19.609-17.317 35.653-34.38 45.075-17.572 9.677-38.709 11.714-58.063 5.348l-35.143-11.205c-39.727-12.733-61.883-55.517-49.15-95.244l79.2-247.532c5.857-18.59 18.59-33.87 35.398-43.293 6.112-3.311 8.404-11.205 5.093-17.317s-11.205-8.404-17.317-5.093c-22.665 12.478-39.473 33.106-47.367 57.809l-79.2 247.532c-17.062 53.225 12.478 110.269 65.703 127.332l35.143 11.205c26.23 8.404 54.753 5.603 78.182-7.385s39.982-34.634 46.603-60.864l78.946-246.768c9.168-23.938 7.385-51.697-4.839-76.144-13.497-26.74-37.945-46.858-66.976-54.753-0.509-0.255-1.019-0.255-1.528-0.255l-16.553-2.292c-1.019 0-1.528 0-2.037 0zM882.662-61.453c-4.839 0-9.677 2.801-11.714 7.895-2.801 6.367 0.255 14.006 6.876 16.808l61.119 25.976c18.59 8.913 32.597 25.212 38.709 44.311 5.857 18.081 3.82 37.181-5.348 53.225-0.255 0.255-0.255 0.509-0.509 0.764l-100.592 215.19c0 0.255-0.255 0.509-0.255 0.764-12.478 31.324-45.585 49.659-78.691 43.802-6.876-1.273-13.497 3.311-14.77 10.187s3.311 13.497 10.187 14.77c44.821 7.895 89.641-16.808 106.704-59.082l100.083-214.681c12.478-22.41 15.025-48.131 7.131-73.088-8.149-25.976-27.249-47.877-52.206-59.846-0.255 0-0.255-0.255-0.509-0.255l-61.374-25.976c-1.528-0.255-3.311-0.764-4.839-0.764zM248.042-62.727c-5.093 0-9.932 3.311-11.969 8.404-2.547 6.621 1.019 14.006 7.64 16.298 20.882 7.64 37.69 23.174 47.113 43.293l98.3 220.284c10.187 22.92 10.951 48.641 2.037 72.070s-26.74 42.019-49.659 52.461c0 0 0 0 0 0s0 0 0 0c-22.92 10.187-48.641 10.951-72.070 2.037s-42.019-26.485-52.206-49.659c0 0 0 0 0 0l-98.3-220.538c-8.149-18.59-8.913-39.218-1.528-58.063s21.392-33.87 39.982-42.019c0.255 0 0.509-0.255 0.764-0.255l37.945-19.864c6.367-3.311 8.659-10.951 5.603-17.062-3.311-6.367-10.951-8.659-17.062-5.603l-38.199 19.609c-50.678 22.92-73.598 82.765-50.933 133.698l98.045 220.284c0 0 0 0 0 0.255 12.988 29.286 36.671 51.442 66.467 62.902s62.392 10.441 91.679-2.547c0 0 0 0 0 0s0 0 0 0c29.286-12.988 51.697-36.671 62.902-66.467 11.46-29.796 10.441-62.392-2.547-91.679l-98.045-220.284c-12.224-26.485-34.125-46.603-61.374-56.79-1.528-0.509-3.056-0.764-4.584-0.764zM353.982-64c-4.839 0-9.677 2.801-11.714 7.895-2.801 6.367 0.255 14.006 6.876 16.808 25.976 10.951 45.33 32.597 53.479 59.591l43.038 213.917c0 0.255 0.255 0.764 0.255 1.019 3.311 10.951 4.584 22.156 3.565 33.361-0.509 7.131 4.839 12.988 11.714 13.497 7.131 0.509 12.988-4.839 13.497-11.714 1.019-14.261-0.509-28.268-4.584-42.019l-43.038-213.917c0-0.255-0.255-0.764-0.255-1.019-10.187-34.38-34.889-62.138-67.995-76.144-1.528-0.764-3.056-1.273-4.839-1.273zM335.646 363.579c-27.758 0-53.479 16.044-66.722 44.057l-56.026 118.928c-18.081 38.199-1.528 84.039 36.671 102.12s84.039 1.528 102.12-36.671l56.026-118.928c6.112-12.733 8.404-26.994 6.876-41.001-0.764-6.876-7.131-11.969-14.006-11.205s-11.969 7.131-11.205 14.006c1.019 9.423-0.509 18.845-4.584 27.504l-56.026 118.928c-11.969 25.466-42.529 36.417-68.25 24.448-25.466-11.969-36.417-42.529-24.448-68.25l56.026-118.928c12.224-25.721 40.237-36.162 65.194-24.448 1.783 0.764 3.565 1.273 5.348 1.273h2.801c7.131 0 12.733-5.603 12.733-12.733s-5.603-12.733-12.733-12.733h-0.255c-9.677-4.329-19.864-6.367-29.541-6.367zM925.955 510.010c-43.802 0-81.492 33.616-87.604 79.71-6.367 48.641 25.212 93.207 71.815 101.101l182.848 31.324c23.429 4.075 47.113-1.783 66.467-16.553 20.118-15.28 33.106-38.454 35.907-64.175l1.528-14.77c2.801-24.957-4.329-49.405-20.118-68.504-14.77-18.081-35.653-29.286-58.827-31.324l-184.376-16.553c-2.547 0-5.093-0.255-7.64-0.255zM1107.529 697.697c-3.311 0-6.621-0.255-10.187-0.764 0 0 0 0 0 0l-182.848-31.324c-33.106-5.603-55.517-37.69-50.933-72.579 4.584-35.143 34.38-60.1 67.74-57.299l184.376 16.553c16.044 1.528 30.814 9.168 41.255 22.156 11.205 13.752 16.553 31.324 14.516 49.659l-1.528 14.77c-2.037 18.59-11.46 35.398-25.976 46.349-10.696 8.149-23.174 12.478-36.417 12.478zM1095.306 709.412v0 0zM252.116 604.49c-4.584 0-8.913 2.547-11.205 6.876l-45.33 85.821c-3.311 6.112-1.019 14.006 5.348 17.317 6.112 3.311 14.006 1.019 17.317-5.348l45.33-85.821c3.311-6.112 1.019-14.006-5.348-17.317-2.037-1.273-4.075-1.528-6.112-1.528zM1182.91 627.41c-6.112 0-11.46 4.329-12.478 10.441-1.273 6.876 3.311 13.497 10.187 14.77l52.206 9.423c6.876 1.273 13.497-3.311 14.77-10.187s-3.311-13.497-10.187-14.77l-52.206-9.423c-0.764-0.255-1.528-0.255-2.292-0.255zM1247.339 606.782c-5.857 0-11.205 4.075-12.478 9.932l-14.261 64.939c-1.528 6.876 2.801 13.752 9.677 15.28s13.752-2.801 15.28-9.677l14.261-64.939c1.528-6.876-2.801-13.752-9.677-15.28-1.019-0.255-1.783-0.255-2.801-0.255z" />
<glyph unicode="&#xe928;" glyph-name="cookoon-bibliotheque-pictogrammes_jacuzzi" d="M964.608 397.483c10.955 10.623 17.754 25.478 17.754 41.921 0 0.262-0.002 0.524-0.005 0.786v-0.040c0 0.001 0 0.003 0 0.004 0 33.178-26.896 60.075-60.075 60.075-0.24 0-0.48-0.001-0.719-0.004h-114.311c-2.575 16.522-16.702 29.016-33.747 29.016-0.136 0-0.271-0.001-0.406-0.002h-102.379c-0.115 0.001-0.25 0.002-0.386 0.002-17.045 0-31.172-12.494-33.723-28.823l-0.025-0.192h-534.187c-0.226 0.003-0.492 0.005-0.759 0.005-16.609 0-31.598-6.938-42.227-18.073l-0.022-0.023c-10.953-10.623-17.751-25.476-17.751-41.917 0-0.143 0.001-0.287 0.002-0.43v0.022c0.024-25.872 16.305-47.934 39.178-56.524l0.417-0.137v-71.68c-6.874-2.309-11.738-8.693-11.738-16.213s4.864-13.904 11.617-16.178l0.12-0.035v-82.261c-6.874-2.309-11.738-8.693-11.738-16.213s4.864-13.904 11.617-16.178l0.12-0.035v-83.285c-6.81-2.459-11.593-8.861-11.605-16.382v-0.002c0-9.426 7.641-17.067 17.067-17.067v0h850.603c9.426 0 17.067 7.641 17.067 17.067v0c-0.013 7.523-4.795 13.925-11.484 16.346l-0.121 0.038v83.968c6.874 2.309 11.738 8.693 11.738 16.213s-4.864 13.904-11.617 16.178l-0.12 0.035v82.261c6.874 2.309 11.738 8.693 11.738 16.213s-4.864 13.904-11.617 16.178l-0.12 0.035v71.339c8.526 3.233 15.808 7.992 21.848 13.998l-0.003-0.003zM667.648 493.056c0 0.009 0 0.019 0 0.029 0 1.011 0.732 1.85 1.695 2.018l0.012 0.002h102.4c0.975-0.169 1.707-1.009 1.707-2.019 0-0.010 0-0.020 0-0.030v0.002-181.589h-105.813zM648.533 277.333h259.755v-80.213h-792.917v80.213zM115.371 311.467v68.267h518.144v-68.267zM75.776 440.149c0 0.025 0 0.054 0 0.084 0 7.105 3.015 13.506 7.836 17.993l0.015 0.014c4.501 4.842 10.907 7.862 18.018 7.862 0.266 0 0.531-0.004 0.794-0.013l-0.039 0.001h529.066v-52.224h-529.067c-0.101-0.001-0.221-0.002-0.341-0.002-14.516 0-26.283 11.767-26.283 26.283 0 0.001 0 0.002 0 0.002v0zM908.629 82.432h-793.259v81.92h793.259zM908.629 313.173h-100.693v66.56h100.693zM940.373 421.717c-4.799-4.825-11.433-7.821-18.768-7.851h-113.67v52.224h113.664c14.327 0 25.941-11.614 25.941-25.941v0c0.011-0.276 0.017-0.601 0.017-0.926 0-6.824-2.744-13.008-7.188-17.508l0.003 0.003zM902.485 609.451h-66.219c-9.426 0-17.067-7.641-17.067-17.067s7.641-17.067 17.067-17.067v0h66.219c9.426 0 17.067 7.641 17.067 17.067s-7.641 17.067-17.067 17.067v0zM679.936 597.163h-65.536c-9.426 0-17.067-7.641-17.067-17.067s7.641-17.067 17.067-17.067v0h66.219c9.426 0 17.067 7.641 17.067 17.067s-7.641 17.067-17.067 17.067v0zM692.565 585.557c-2.161 4.863-6.948 8.192-12.514 8.192-0.041 0-0.081 0-0.122-0.001h0.006c5.838-0.125 10.763-3.896 12.6-9.12l0.029-0.096zM679.936 566.443c0.034 0 0.075 0 0.116 0 5.565 0 10.353 3.33 12.479 8.106l0.035 0.087c-2.161-4.863-6.948-8.192-12.514-8.192-0.041 0-0.081 0-0.122 0.001h0.006zM941.739 691.712h-37.547c-8.028-1.656-13.978-8.667-13.978-17.067s5.95-15.411 13.865-17.047l0.113-0.019h37.547c8.028 1.656 13.978 8.667 13.978 17.067s-5.95 15.411-13.865 17.047l-0.113 0.019zM731.477 691.712h-149.504c-8.028-1.656-13.978-8.667-13.978-17.067s5.95-15.411 13.865-17.047l0.113-0.019h149.504c8.028 1.656 13.978 8.667 13.978 17.067s-5.95 15.411-13.865 17.047l-0.113 0.019zM425.301 609.451h-66.219c-9.426 0-17.067-7.641-17.067-17.067s7.641-17.067 17.067-17.067v0h66.219c9.426 0 17.067 7.641 17.067 17.067s-7.641 17.067-17.067 17.067v0zM246.443 597.163h-125.611c-9.426 0-17.067-7.641-17.067-17.067s7.641-17.067 17.067-17.067v0h125.611c9.426 0 17.067 7.641 17.067 17.067s-7.641 17.067-17.067 17.067v0zM251.904 567.467c5.010 2.097 8.466 6.96 8.466 12.629s-3.456 10.532-8.376 12.596l-0.090 0.033c5.010-2.097 8.466-6.96 8.466-12.629s-3.456-10.532-8.376-12.596l-0.090-0.033zM464.555 745.301h-37.547c-9.426 0-17.067-7.641-17.067-17.067v0c0.187-9.349 7.717-16.879 17.049-17.066h37.565c9.426 0 17.067 7.641 17.067 17.067v0c0 9.426-7.641 17.067-17.067 17.067v0zM290.133 691.712h-43.691c-8.028-1.656-13.978-8.667-13.978-17.067s5.95-15.411 13.865-17.047l0.113-0.019h43.691c8.028 1.656 13.978 8.667 13.978 17.067s-5.95 15.411-13.865 17.047l-0.113 0.019zM813.056 779.776h-37.547c-9.426 0-17.067-7.641-17.067-17.067v0c0.187-9.349 7.717-16.879 17.049-17.066h37.565c9.426 0 17.067 7.641 17.067 17.067v0c0 9.426-7.641 17.067-17.067 17.067v0zM307.2 850.432h-102.4c-9.426 0-17.067-7.641-17.067-17.067v0c0-9.426 7.641-17.067 17.067-17.067v0h102.4c9.349 0.187 16.879 7.717 17.066 17.049v0.018c0 9.426-7.641 17.067-17.067 17.067v0zM663.893 831.317h-83.627c-9.349-0.187-16.879-7.717-17.066-17.049v-0.018c0-9.426 7.641-17.067 17.067-17.067v0h84.992c9.426 0 17.067 7.641 17.067 17.067v0c0 0.016 0 0.035 0 0.055 0 9.426-7.641 17.067-17.067 17.067-0.481 0-0.957-0.020-1.427-0.059l0.062 0.004z" />
<glyph unicode="&#xe92a;" glyph-name="cookoon-bibliotheque-pictogrammes_jardin" d="M242.834 874.291l-194.492-641.623c0.612-11.166 5.335-21.747 13.306-29.673 8.561-8.512 20.163-13.259 32.34-13.189h297.692c24.293 0 44.181 18.955 45.63 42.914l-194.476 641.572zM473.965 235.050c-0.259-45.261-37.024-81.816-82.285-81.816h-297.586c-21.808-0.125-42.766 8.45-58.231 23.827s-24.16 36.285-24.16 58.093l0.786 5.304 212.846 702.171c5.247 17.308 29.752 17.308 34.999 0l212.846-702.171 0.786-5.409zM261.119 234.99c-0.091-10.099-8.351-18.211-18.45-18.12s-18.211 8.351-18.12 18.45c0.43 47.785 21.294 93.1 57.321 124.496s83.769 45.868 131.164 39.761c10.016-1.291 17.089-10.457 15.799-20.473s-10.457-17.089-20.473-15.799c-37.024 4.771-74.32-6.535-102.463-31.060s-44.442-59.925-44.778-97.254zM75.525 364.773c-10.013-1.315-19.196 5.735-20.512 15.748s5.735 19.196 15.748 20.512c47.461 6.235 95.317-8.179 131.438-39.589s57.042-76.801 57.457-124.668c0.088-10.099-8.028-18.356-18.126-18.444s-18.356 8.028-18.444 18.126c-0.325 37.393-16.667 72.851-44.884 97.388s-65.602 35.797-102.677 30.926zM261.12 426.831c0.023-10.099-8.145-18.305-18.243-18.328s-18.305 8.145-18.328 18.243c-0.084 36.474 15.85 71.146 43.584 94.835s64.47 34.007 100.483 28.222c9.971-1.602 16.756-10.984 15.154-20.955s-10.984-16.756-20.955-15.154c-25.42 4.084-51.352-3.199-70.929-19.921s-30.825-41.196-30.765-66.943zM122.782 513.683c-9.977-1.562-19.332 5.261-20.893 15.238s5.261 19.332 15.238 20.893c35.968 5.63 72.6-4.738 100.281-28.383s43.649-58.205 43.712-94.611c0.017-10.099-8.155-18.3-18.254-18.317s-18.3 8.155-18.317 18.254c-0.044 25.729-11.329 50.155-30.893 66.866s-45.453 24.039-70.873 20.060zM710.949 217.234c-162.795 0-294.766 131.971-294.766 294.766s131.971 294.766 294.766 294.766c162.795 0 294.766-131.971 294.766-294.766s-131.971-294.766-294.766-294.766zM710.949 253.806c142.597 0 258.194 115.598 258.194 258.194s-115.598 258.194-258.194 258.194c-142.597 0-258.194-115.598-258.194-258.194s115.598-258.194 258.194-258.194zM729.234 299.008c-0.081-10.099-8.333-18.22-18.431-18.139s-18.22 8.333-18.139 18.431c0.598 74.805 48.065 141.193 118.655 165.954 9.53 3.343 19.965-1.673 23.308-11.202s-1.673-19.965-11.202-23.308c-56.036-19.656-93.715-72.356-94.19-131.737zM604.526 493.714c-10.099 0-18.286 8.187-18.286 18.286s8.187 18.286 18.286 18.286c68.875 0 124.709-55.834 124.709-124.709 0-10.099-8.187-18.286-18.286-18.286s-18.286 8.187-18.286 18.286c0 48.677-39.46 88.137-88.137 88.137zM729.234-41.326c0-10.099-8.187-18.286-18.286-18.286s-18.286 8.187-18.286 18.286v638.171c0 10.099 8.187 18.286 18.286 18.286s18.286-8.187 18.286-18.286v-638.171zM261.12-41.326c0-10.099-8.187-18.286-18.286-18.286s-18.286 8.187-18.286 18.286v680.96c0 10.099 8.187 18.286 18.286 18.286s18.286-8.187 18.286-18.286v-680.96z" />
<glyph unicode="&#xe92c;" glyph-name="cookoon-bibliotheque-pictogrammes_lave-vaisselle" d="M85.333 832v-725.333h853.333v725.333h-853.333zM64 874.667h896c11.782 0 21.333-9.551 21.333-21.333v-768c0-11.782-9.551-21.333-21.333-21.333h-896c-11.782 0-21.333 9.551-21.333 21.333v768c0 11.782 9.551 21.333 21.333 21.333zM42.667 64v-85.333h938.667v85.333h-938.667zM21.333 106.667h981.333c11.782 0 21.333-9.551 21.333-21.333v-128c0-11.782-9.551-21.333-21.333-21.333h-981.333c-11.782 0-21.333 9.551-21.333 21.333v128c0 11.782 9.551 21.333 21.333 21.333zM170.667 746.667v-554.667h682.667v554.667h-682.667zM149.333 789.333h725.333c11.782 0 21.333-9.551 21.333-21.333v-597.333c0-11.782-9.551-21.333-21.333-21.333h-725.333c-11.782 0-21.333 9.551-21.333 21.333v597.333c0 11.782 9.551 21.333 21.333 21.333zM352.427 661.333c-11.782 0-21.333 9.551-21.333 21.333s9.551 21.333 21.333 21.333h319.147c11.782 0 21.333-9.551 21.333-21.333s-9.551-21.333-21.333-21.333h-319.147zM42.667 917.333v-42.667h938.667v42.667h-938.667zM21.333 960h981.333c11.782 0 21.333-9.551 21.333-21.333v-85.333c0-11.782-9.551-21.333-21.333-21.333h-981.333c-11.782 0-21.333 9.551-21.333 21.333v85.333c0 11.782 9.551 21.333 21.333 21.333z" />
<glyph unicode="&#xe92e;" glyph-name="cookoon-bibliotheque-pictogrammes_loft" horiz-adv-x="1182" d="M39.385-26.978c-10.876 0-19.692 8.817-19.692 19.692s8.817 19.692 19.692 19.692h1101.982c10.876 0 19.692-8.817 19.692-19.692s-8.817-19.692-19.692-19.692h-1101.982zM46.688 358.032c-10.1-4.033-21.558 0.885-25.591 10.985s0.885 21.558 10.985 25.591l479.311 191.409c10.1 4.033 21.558-0.885 25.591-10.985s-0.885-21.558-10.985-25.591l-479.311-191.409zM115.397 413.735c0 10.876 8.817 19.692 19.692 19.692s19.692-8.817 19.692-19.692v-421.022c0-10.876-8.817-19.692-19.692-19.692s-19.692 8.817-19.692 19.692v421.022zM436.236 886.555c-9.24 5.736-12.081 17.876-6.345 27.117s17.876 12.081 27.117 6.345l694.745-431.262c9.24-5.736 12.081-17.876 6.345-27.117s-17.876-12.081-27.117-6.345l-694.745 431.262zM1025.969 530.314c0 10.876 8.817 19.692 19.692 19.692s19.692-8.817 19.692-19.692v-537.6c0-10.876-8.817-19.692-19.692-19.692s-19.692 8.817-19.692 19.692v537.6zM921.6 620.111c0-10.876-8.817-19.692-19.692-19.692s-19.692 8.817-19.692 19.692v187.471c0 10.876 8.817 19.692 19.692 19.692h95.705c10.876 0 19.692-8.817 19.692-19.692v-246.548c0-10.876-8.817-19.692-19.692-19.692s-19.692 8.817-19.692 19.692v226.855h-56.32v-167.778zM634.092 12.406h296.172v152.418h-296.172v-152.418zM614.4 204.209h335.557c10.876 0 19.692-8.817 19.692-19.692v-191.803c0-10.876-8.817-19.692-19.692-19.692h-335.557c-10.876 0-19.692 8.817-19.692 19.692v191.803c0 10.876 8.817 19.692 19.692 19.692zM786.117 184.517c0 10.876 8.817 19.692 19.692 19.692s19.692-8.817 19.692-19.692v-191.803c0-10.876-8.817-19.692-19.692-19.692s-19.692 8.817-19.692 19.692v191.803zM686.080 428.702c-50.464 0-91.372 40.909-91.372 91.372s40.909 91.372 91.372 91.372c50.464 0 91.372-40.909 91.372-91.372s-40.909-91.372-91.372-91.372zM686.080 468.086c28.712 0 51.988 23.276 51.988 51.988s-23.276 51.988-51.988 51.988c-28.712 0-51.988-23.276-51.988-51.988s23.276-51.988 51.988-51.988zM250.88 12.8h152.418v200.074h-152.418v-200.074zM231.188 252.258h191.803c10.876 0 19.692-8.817 19.692-19.692v-239.458c0-10.876-8.817-19.692-19.692-19.692h-191.803c-10.876 0-19.692 8.817-19.692 19.692v239.458c0 10.876 8.817 19.692 19.692 19.692zM231.188 308.578c-10.876 0-19.692 8.817-19.692 19.692s8.817 19.692 19.692 19.692h191.409c10.876 0 19.692-8.817 19.692-19.692s-8.817-19.692-19.692-19.692h-191.409zM499.003 857.6c0 10.876 8.817 19.692 19.692 19.692s19.692-8.817 19.692-19.692v-864.886c0-10.876-8.817-19.692-19.692-19.692s-19.692 8.817-19.692 19.692v864.886z" />
<glyph unicode="&#xe930;" glyph-name="cookoon-bibliotheque-pictogrammes_maison" d="M919.771-0.731v509.806c0 10.099 8.187 18.286 18.286 18.286s18.286-8.187 18.286-18.286v-528.091c0-10.099-8.187-18.286-18.286-18.286h-852.846c-10.099 0-18.286 8.187-18.286 18.286v528.091c0 10.099 8.187 18.286 18.286 18.286s18.286-8.187 18.286-18.286v-509.806h816.274zM367.543 509.074c0-10.099-8.187-18.286-18.286-18.286h-304.64c-12.934 0-21.78 13.061-16.98 25.072l162.377 406.309c2.776 6.945 9.501 11.5 16.98 11.5h609.28c7.479 0 14.204-4.555 16.98-11.5l162.377-406.309c4.8-12.010-4.046-25.072-16.98-25.072h-304.64c-10.099 0-18.286 8.187-18.286 18.286 0 79.579-64.512 144.091-144.091 144.091s-144.091-64.512-144.091-144.091zM511.634 689.737c93.605 0 170.583-71.188 179.749-162.377h260.269l-147.762 369.737h-584.512l-147.762-369.737h260.269c9.166 91.19 86.144 162.377 179.749 162.377zM590.994 346.697c0-10.099-8.187-18.286-18.286-18.286h-122.149c-10.099 0-18.286 8.187-18.286 18.286v141.897c0 28.353 15.126 54.551 39.68 68.728s54.806 14.176 79.36 0c24.554-14.176 39.68-40.375 39.68-68.728v-141.897zM554.423 488.594c0 15.287-8.155 29.413-21.394 37.056s-29.55 7.643-42.789 0c-13.239-7.643-21.394-21.769-21.394-37.056v-123.611h85.577v123.611zM468.846-19.017c0-10.099-8.187-18.286-18.286-18.286s-18.286 8.187-18.286 18.286v142.263c0 43.829 35.531 79.36 79.36 79.36s79.36-35.531 79.36-79.36v-142.263c0-10.099-8.187-18.286-18.286-18.286s-18.286 8.187-18.286 18.286v142.263c0 23.631-19.157 42.789-42.789 42.789s-42.789-19.157-42.789-42.789v-142.263zM712.777 121.051h125.806v85.211h-125.806v-85.211zM694.491 242.834h162.377c10.099 0 18.286-8.187 18.286-18.286v-121.783c0-10.099-8.187-18.286-18.286-18.286h-162.377c-10.099 0-18.286 8.187-18.286 18.286v121.783c0 10.099 8.187 18.286 18.286 18.286zM712.777 324.389h125.806v85.211h-125.806v-85.211zM694.491 446.171h162.377c10.099 0 18.286-8.187 18.286-18.286v-121.783c0-10.099-8.187-18.286-18.286-18.286h-162.377c-10.099 0-18.286 8.187-18.286 18.286v121.783c0 10.099 8.187 18.286 18.286 18.286zM184.686 121.051h125.806v85.211h-125.806v-85.211zM166.4 242.834h162.377c10.099 0 18.286-8.187 18.286-18.286v-121.783c0-10.099-8.187-18.286-18.286-18.286h-162.377c-10.099 0-18.286 8.187-18.286 18.286v121.783c0 10.099 8.187 18.286 18.286 18.286zM184.686 324.389h125.806v85.211h-125.806v-85.211zM166.4 446.171h162.377c10.099 0 18.286-8.187 18.286-18.286v-121.783c0-10.099-8.187-18.286-18.286-18.286h-162.377c-10.099 0-18.286 8.187-18.286 18.286v121.783c0 10.099 8.187 18.286 18.286 18.286z" />
<glyph unicode="&#xe932;" glyph-name="cookoon-bibliotheque-pictogrammes_parking" d="M85.577-20.846h90.331v48.274h-90.331v-48.274zM67.291 64h126.903c10.099 0 18.286-8.187 18.286-18.286v-84.846c0-10.099-8.187-18.286-18.286-18.286h-126.903c-10.099 0-18.286 8.187-18.286 18.286v84.846c0 10.099 8.187 18.286 18.286 18.286zM678.4-20.846h90.331v48.274h-90.331v-48.274zM660.114 64h126.903c10.099 0 18.286-8.187 18.286-18.286v-84.846c0-10.099-8.187-18.286-18.286-18.286h-126.903c-10.099 0-18.286 8.187-18.286 18.286v84.846c0 10.099 8.187 18.286 18.286 18.286zM847.726 45.714c0-10.099-8.187-18.286-18.286-18.286h-804.571c-10.099 0-18.286 8.187-18.286 18.286v169.326c0 4.85 1.927 9.501 5.356 12.93l84.846 84.846c3.429 3.429 8.080 5.356 12.93 5.356h635.246c4.863 0 9.526-1.937 12.958-5.384l84.48-84.846c3.412-3.427 5.328-8.066 5.328-12.902v-169.326zM811.154 207.489l-73.792 74.111h-620.074l-74.134-74.134v-143.466h768v143.489zM136.74 318.171h608.22c10.099 0 18.286-8.187 18.286-18.286s-8.187-18.286-18.286-18.286h-635.246c-12.941 0-21.787 13.074-16.974 25.087l84.846 211.749c2.78 6.937 9.501 11.484 16.974 11.484h188.343c10.099 0 18.286-8.187 18.286-18.286s-8.187-18.286-18.286-18.286h-175.971l-70.192-175.177zM24.869 112.274c-10.099 0-18.286 8.187-18.286 18.286s8.187 18.286 18.286 18.286h190.537c10.099 0 18.286-8.187 18.286-18.286s-8.187-18.286-18.286-18.286h-190.537zM638.903 112.274c-10.099 0-18.286 8.187-18.286 18.286s8.187 18.286 18.286 18.286h190.537c10.099 0 18.286-8.187 18.286-18.286s-8.187-18.286-18.286-18.286h-190.537zM723.749 366.080c-162.189 0-293.669 131.48-293.669 293.669s131.48 293.669 293.669 293.669c162.189 0 293.669-131.48 293.669-293.669s-131.48-293.669-293.669-293.669zM723.749 402.651c141.991 0 257.097 115.106 257.097 257.097s-115.106 257.097-257.097 257.097c-141.991 0-257.097-115.106-257.097-257.097s115.106-257.097 257.097-257.097zM743.76 656.783c34.989 2.301 62.192 31.352 62.192 66.417s-27.203 64.116-60.993 66.377h-66.56v-132.763l65.36-0.031zM678.4 511.634c0-10.099-8.187-18.286-18.286-18.286s-18.286 8.187-18.286 18.286v296.229c0 10.099 8.187 18.286 18.286 18.286l86.046-0.039c54.214-3.565 96.364-48.578 96.364-102.909s-42.15-99.344-97.564-102.949h-66.56v-108.617z" />
<glyph unicode="&#xe934;" glyph-name="cookoon-bibliotheque-pictogrammes_piscine" d="M992.183 30.354c0-10.099-8.187-18.286-18.286-18.286s-18.286 8.187-18.286 18.286c0 61.562-58.88 61.562-58.88 0 0-49.222-31.413-82.879-71.984-83.017-40.683-0.138-72.108 33.46-72.108 83.017 0 29.876-15.508 46.513-35.229 46.446-19.749-0.067-35.354-16.844-35.354-46.446 0-49.207-31.231-82.879-71.663-83.017-40.513-0.139-71.853 33.426-72.062 82.94-0.126 29.888-15.719 46.487-35.518 46.386-19.807-0.101-35.431-16.861-35.431-46.309 0-49.050-31.324-82.673-71.769-82.88-40.614-0.208-71.956 33.327-71.956 82.88 0 29.876-15.508 46.513-35.229 46.446-19.749-0.067-35.354-16.844-35.354-46.446 0-49.186-31.281-83.083-71.707-83.428-40.707-0.347-72.019 33.404-72.019 83.428 0 30.674-13.812 47.013-30.366 46.858-16.66-0.156-30.708-16.861-30.708-46.858 0-10.099-8.187-18.286-18.286-18.286s-18.286 8.187-18.286 18.286c0 48.86 28.769 83.070 66.937 83.428 38.468 0.36 67.28-33.721 67.28-83.428 0-30.357 15.463-47.026 35.135-46.858 19.742 0.168 35.447 17.187 35.447 46.858 0 49.21 31.318 82.879 71.8 83.017 40.595 0.139 71.925-33.472 71.925-83.017 0-29.853 15.474-46.41 35.198-46.309 19.765 0.101 35.385 16.867 35.385 46.309 0 49.060 31.333 82.673 71.815 82.88 40.62 0.208 72.067-33.269 72.276-82.803 0.126-29.924 15.688-46.59 35.366-46.523 19.674 0.067 35.217 16.825 35.217 46.446 0 49.21 31.318 82.879 71.8 83.017 40.595 0.139 71.925-33.472 71.925-83.017 0-29.864 15.573-46.513 35.412-46.446 19.867 0.068 35.536 16.857 35.536 46.446 0 110.324 132.023 110.324 132.023 0zM992.183 245.029c0-10.099-8.187-18.286-18.286-18.286s-18.286 8.187-18.286 18.286c0 61.196-58.88 61.196-58.88 0 0-49.063-31.419-82.673-71.952-82.88-40.702-0.208-72.139 33.315-72.139 82.88 0 29.853-15.474 46.41-35.198 46.309-19.765-0.101-35.385-16.867-35.385-46.309 0-49.047-31.237-82.673-71.632-82.88-40.532-0.208-71.885 33.281-72.094 82.803-0.126 29.911-15.753 46.59-35.549 46.523-19.791-0.067-35.399-16.838-35.399-46.446 0-49.21-31.318-82.879-71.8-83.017-40.595-0.139-71.925 33.472-71.925 83.017 0 29.853-15.474 46.41-35.198 46.309-19.765-0.101-35.385-16.867-35.385-46.309 0-49.026-31.288-82.877-71.676-83.29-40.726-0.417-72.050 33.259-72.050 83.29 0 30.652-13.778 46.907-30.332 46.721-16.681-0.187-30.743-16.882-30.743-46.721 0-10.099-8.187-18.286-18.286-18.286s-18.286 8.187-18.286 18.286c0 48.698 28.775 82.862 66.903 83.29 38.488 0.432 67.314-33.576 67.314-83.29 0-30.334 15.43-46.922 35.104-46.721 19.758 0.202 35.479 17.21 35.479 46.721 0 49.050 31.324 82.673 71.769 82.88 40.614 0.208 71.956-33.327 71.956-82.88 0-29.876 15.508-46.513 35.229-46.446 19.749 0.067 35.354 16.844 35.354 46.446 0 49.22 31.326 82.879 71.846 83.017 40.601 0.138 72.036-33.414 72.245-82.94 0.126-29.9 15.654-46.487 35.335-46.386 19.69 0.101 35.248 16.848 35.248 46.309 0 49.050 31.324 82.673 71.769 82.88 40.614 0.208 71.956-33.327 71.956-82.88 0-29.84 15.539-46.41 35.381-46.309 19.882 0.101 35.568 16.88 35.568 46.309 0 109.958 132.023 109.958 132.023 0zM498.834 303.909c0-10.099-8.187-18.286-18.286-18.286s-18.286 8.187-18.286 18.286l0.031 518.98c-2.722 46.619 20.602 90.91 60.583 115.041s90.038 24.131 130.018 0c39.98-24.131 63.305-68.422 60.614-113.975v-42.789c0-10.099-8.187-18.286-18.286-18.286s-18.286 8.187-18.286 18.286l0.031 43.855c1.931 33.067-14.613 64.483-42.971 81.599s-63.864 17.116-92.222 0c-28.358-17.116-44.902-48.532-42.94-82.665v-520.046zM799.086 205.166c0-10.099-8.187-18.286-18.286-18.286s-18.286 8.187-18.286 18.286l0.031 617.723c-2.722 46.619 20.602 90.91 60.583 115.041s90.038 24.131 130.018 0c39.98-24.131 63.305-68.422 60.614-113.975v-42.789c0-10.099-8.187-18.286-18.286-18.286s-18.286 8.187-18.286 18.286l0.031 43.855c1.931 33.067-14.613 64.483-42.971 81.599s-63.864 17.116-92.222 0c-28.358-17.116-44.902-48.532-42.94-82.665v-618.789zM480.549 526.994c-10.099 0-18.286 8.187-18.286 18.286s8.187 18.286 18.286 18.286h300.251c10.099 0 18.286-8.187 18.286-18.286s-8.187-18.286-18.286-18.286h-300.251zM480.549 655.726c-10.099 0-18.286 8.187-18.286 18.286s8.187 18.286 18.286 18.286h300.251c10.099 0 18.286-8.187 18.286-18.286s-8.187-18.286-18.286-18.286h-300.251zM480.549 398.263c-10.099 0-18.286 8.187-18.286 18.286s8.187 18.286 18.286 18.286h300.251c10.099 0 18.286-8.187 18.286-18.286s-8.187-18.286-18.286-18.286h-300.251z" />
<glyph unicode="&#xe936;" glyph-name="cookoon-bibliotheque-pictogrammes_sauna" d="M501.394 618.789c-91.294 0-165.303 74.009-165.303 165.303s74.009 165.303 165.303 165.303c91.294 0 165.303-74.009 165.303-165.303s-74.009-165.303-165.303-165.303zM501.394 655.36c71.096 0 128.731 57.635 128.731 128.731s-57.635 128.731-128.731 128.731c-71.096 0-128.731-57.635-128.731-128.731s57.635-128.731 128.731-128.731zM378.149 310.938c-4.187 2.264-8.197 4.431-9.034 4.884-7.14 3.874-12.493 6.835-17.559 9.739-75.308 43.165-99.579 92.037-99.579 227.399 0 10.099 8.187 18.286 18.286 18.286h461.166c10.099 0 18.286-8.187 18.286-18.286 0-135.743-23.717-184.462-98.175-227.377-5.071-2.923-10.46-5.917-17.507-9.751-1.312-0.714-5.12-2.775-9.027-4.89v-220.244c0-10.099-8.187-18.286-18.286-18.286h-210.286c-10.099 0-18.286 8.187-18.286 18.286v220.24zM288.696 534.674c1.832-108.499 21.208-143.086 81.046-177.384 4.775-2.737 9.902-5.574 16.813-9.323 1.532-0.831 14.588-7.881 18.625-10.080 5.88-3.203 9.54-9.363 9.54-16.058v-212.846h173.714v212.846c0 6.696 3.66 12.856 9.54 16.058 3.588 1.954 16.034 8.684 18.581 10.070 6.806 3.703 11.956 6.564 16.723 9.312 58.994 34.002 77.939 68.458 79.723 177.406h-424.305zM799.156 922.233c7.621 6.627 19.171 5.821 25.797-1.8s5.821-19.171-1.8-25.797c-43.102-37.48-39.782-54.488 1.978-101.724 1.819-2.057 1.819-2.057 3.654-4.137 49.224-55.882 55.5-94.463-4.039-144.489-7.732-6.497-19.266-5.495-25.763 2.237s-5.495 19.266 2.237 25.763c40.149 33.735 37.528 49.852 0.122 92.316-1.792 2.032-1.792 2.032-3.61 4.087-53.437 60.444-61.012 99.252 1.423 153.544zM925.327 922.233c7.621 6.627 19.171 5.821 25.797-1.8s5.821-19.171-1.8-25.797c-43.136-37.509-39.828-54.525 1.896-101.787 1.793-2.031 1.793-2.031 3.601-4.083 49.177-55.902 55.482-94.434-3.884-144.463-7.722-6.508-19.258-5.523-25.766 2.199s-5.523 19.258 2.199 25.766c40.015 33.722 37.377 49.845-0.008 92.342-1.767 2.006-1.767 2.006-3.559 4.035-53.386 60.472-60.93 99.28 1.523 153.587zM74.31 922.233c7.621 6.627 19.171 5.821 25.797-1.8s5.821-19.171-1.8-25.797c-43.136-37.509-39.828-54.525 1.896-101.787 1.793-2.031 1.793-2.031 3.601-4.083 49.177-55.902 55.482-94.434-3.884-144.463-7.722-6.508-19.258-5.523-25.766 2.199s-5.523 19.258 2.199 25.766c40.015 33.722 37.377 49.845-0.008 92.342-1.767 2.006-1.767 2.006-3.559 4.035-53.386 60.472-60.93 99.28 1.523 153.587zM200.481 922.233c7.621 6.627 19.171 5.821 25.797-1.8s5.821-19.171-1.8-25.797c-43.051-37.436-39.817-54.451 1.479-101.575 1.895-2.162 1.895-2.162 3.807-4.349 48.719-55.821 54.543-94.549-5.603-144.494-7.769-6.452-19.298-5.384-25.75 2.386s-5.384 19.298 2.386 25.75c40.771 33.857 38.345 49.996 1.414 92.311-1.865 2.133-1.865 2.133-3.758 4.293-52.886 60.35-60.255 99.116 2.028 153.275zM796.45 347.137c-9.048 4.485-12.747 15.456-8.262 24.504s15.456 12.747 24.504 8.262c93.007-46.103 148.039-111.677 148.039-184.246 0-140.967-207.062-249.417-459.703-249.417-252.5 0-458.971 108.389-458.971 249.417 0 72.648 54.818 138.219 147.673 184.246 9.048 4.485 20.019 0.786 24.504-8.262s0.786-20.019-8.262-24.504c-81.663-40.48-127.344-95.121-127.344-151.479 0-114.45 187.437-212.846 422.4-212.846 235.102 0 423.131 98.481 423.131 212.846 0 56.243-45.887 110.921-127.71 151.479z" />
<glyph unicode="&#xe938;" glyph-name="cookoon-bibliotheque-pictogrammes_systeme-son" horiz-adv-x="1103" d="M364.702 587.815v-602.585h373.366v602.585h-373.366zM345.009 627.2h412.751c10.876 0 19.692-8.817 19.692-19.692v-641.969c0-10.876-8.817-19.692-19.692-19.692h-412.751c-10.876 0-19.692 8.817-19.692 19.692v641.969c0 10.876 8.817 19.692 19.692 19.692zM43.717 908.8v-923.569h144.148v923.569h-144.148zM24.025 948.185h183.532c10.876 0 19.692-8.817 19.692-19.692v-962.954c0-10.876-8.817-19.692-19.692-19.692h-183.532c-10.876 0-19.692 8.817-19.692 19.692v962.954c0 10.876 8.817 19.692 19.692 19.692zM914.905 908.8v-923.569h144.148v923.569h-144.148zM895.212 948.185h183.532c10.876 0 19.692-8.817 19.692-19.692v-962.954c0-10.876-8.817-19.692-19.692-19.692h-183.532c-10.876 0-19.692 8.817-19.692 19.692v962.954c0 10.876 8.817 19.692 19.692 19.692zM895.212 358.597v39.385h183.532v-39.385zM24.025 358.597v39.385h183.532v-39.385zM551.385 37.612c-74.173 0-134.302 60.129-134.302 134.302s60.129 134.302 134.302 134.302c74.173 0 134.302-60.129 134.302-134.302s-60.129-134.302-134.302-134.302zM551.385 76.997c52.421 0 94.917 42.496 94.917 94.917s-42.496 94.917-94.917 94.917c-52.421 0-94.917-42.496-94.917-94.917s42.496-94.917 94.917-94.917zM665.994 538.585c-12.616 0-22.843-10.227-22.843-22.843s10.227-22.843 22.843-22.843c12.616 0 22.843 10.227 22.843 22.843s-10.227 22.843-22.843 22.843zM436.775 538.585c-12.616 0-22.843-10.227-22.843-22.843s10.227-22.843 22.843-22.843c12.616 0 22.843 10.227 22.843 22.843s-10.227 22.843-22.843 22.843zM551.385 381.834c-36.108 0-65.378 29.271-65.378 65.378s29.271 65.378 65.378 65.378c36.108 0 65.378-29.271 65.378-65.378s-29.271-65.378-65.378-65.378zM551.385 421.218c14.356 0 25.994 11.638 25.994 25.994s-11.638 25.994-25.994 25.994c-14.356 0-25.994-11.638-25.994-25.994s11.638-25.994 25.994-25.994z" />
<glyph unicode="&#xe93b;" glyph-name="cookoon-bibliotheque-pictogrammes_vaisselle" horiz-adv-x="1182" d="M1007.852-31.705c0-10.876-8.817-19.692-19.692-19.692s-19.692 8.817-19.692 19.692v957.44c0 10.876 8.817 19.692 19.692 19.692h10.24c87.671 0 150.055-281.857 150.055-649.846 0-10.876-8.817-19.692-19.692-19.692h-120.911v-307.594zM1007.852 315.274h101.157c-1.061 168.787-15.743 319.885-40.433 431.437-18.818 85.022-42.822 139.686-60.724 154.956v-586.393zM33.083 881.231c0 10.876 8.817 19.692 19.692 19.692s19.692-8.817 19.692-19.692l-0.028-188.906c-2.366-44.663 20.115-86.983 58.448-110.026s86.254-23.043 124.587 0c38.333 23.043 60.814 65.363 58.42 111.068v187.865c0 10.876 8.817 19.692 19.692 19.692s19.692-8.817 19.692-19.692l-0.028-186.823c3.137-59.211-26.668-115.317-77.486-145.865s-114.35-30.548-165.169 0c-50.819 30.548-80.624 86.654-77.514 144.823v187.865zM173.686 880.443c0 10.876 8.817 19.692 19.692 19.692s19.692-8.817 19.692-19.692v-912.148c0-10.876-8.817-19.692-19.692-19.692s-19.692 8.817-19.692 19.692v912.148zM590.769-51.397c-178.798 0-323.742 144.944-323.742 323.742s144.944 323.742 323.742 323.742c178.798 0 323.742-144.944 323.742-323.742s-144.944-323.742-323.742-323.742zM590.769-12.012c157.046 0 284.357 127.311 284.357 284.357s-127.311 284.357-284.357 284.357c-157.046 0-284.357-127.311-284.357-284.357s127.311-284.357 284.357-284.357z" />
</font>
</defs>
</svg>
