<?xml version="1.0" standalone="no"?>
<!DOCTYPE svg PUBLIC "-//W3C//DTD SVG 1.1//EN" "http://www.w3.org/Graphics/SVG/1.1/DTD/svg11.dtd" >
<svg xmlns="http://www.w3.org/2000/svg">
<metadata>Generated by IcoMoon</metadata>
<defs>
<font id="cookoon" horiz-adv-x="1024">
<font-face units-per-em="1024" ascent="960" descent="-64" />
<missing-glyph horiz-adv-x="1024" />
<glyph unicode="&#x20;" horiz-adv-x="512" d="" />
<glyph unicode="&#xe900;" glyph-name="addcookoon" d="M101.855 692.912l414.196 246.009 414.196-246.009v-491.993l-414.196-246.009-414.196 246.009v491.993zM613.055 655.983h0.012c-3.595-0.799-5.779-4.381-4.98-7.938l2.222-9.96c-72.13-19.646-117.088-92.737-100.65-166.515l0.287-1.286c0.524-2.359 2.484-4.106 4.893-4.344 2.459-0.187 4.73 1.148 5.629 3.42 3.295 8.113 4.081 14.853 4.705 20.295 1.023 9.448 1.248 12.332 14.291 15.227 9.074 1.972 15.552-3.919 25.1-13.929 9.149-9.648 19.646-20.619 35.422-17.075 15.826 3.495 20.607 17.774 24.813 30.442 4.393 13.081 7.726 21.218 16.788 23.253 9.074 1.985 15.464-3.882 25-13.842 9.161-9.686 19.658-20.619 35.422-17.062 15.826 3.532 20.707 17.823 24.913 30.442 4.393 13.13 7.813 21.218 16.875 23.24 13.043 2.933 14.516 0.474 19.471-7.651 2.883-4.668 6.353-10.472 12.831-16.426 1.735-1.61 4.368-1.96 6.453-0.736 2.084 1.173 3.145 3.682 2.684 5.991l-0.225 1.298c-16.426 73.728-88.119 120.908-161.809 108.114l-2.209 9.973c-0.686 3.108-3.47 5.23-6.503 5.23-0.474 0-0.961-0.050-1.435-0.162zM644.346 515.479c-3.545-0.799-5.791-4.344-4.993-7.926l45.769-206.006h-12.456c-14.79 0-26.848-11.97-26.848-26.748h97.792c0 14.828-12.020 26.848-26.848 26.848h-18.086l-46.493 208.864c-0.686 3.058-3.345 5.155-6.328 5.155-0.499 0-1.011-0.062-1.51-0.187zM631.453 461.522c-1.947 1.76-4.431 2.596-7.589 2.584-2.671-0.175-5.28-1.41-7.202-3.607l-76.935-87.632h-217.252c-2.846 0-5.579-1.111-7.576-3.145l-65.49-66.788c-4.106-4.156-4.031-10.747 0.212-14.853 2.034-1.985 4.631-3.045 7.289-3.045 2.721 0 5.479 1.011 7.551 3.145l62.37 63.555h217.626c3.021 0 5.891 1.273 7.926 3.595l80.081 91.239c3.819 4.393 3.382 11.121-1.011 14.953zM331.050 387.433c-2.783 0-4.98-2.234-4.98-4.98 0-2.783 2.247-5.067 4.98-5.067h195.209c2.783 0 5.080 2.284 5.080 5.067 0 2.796-2.334 4.98-5.080 4.98h-195.209zM450.51 310.41c0-19.608 15.926-35.522 35.522-35.522 19.608 0 35.522 15.876 35.522 35.522s-15.864 35.522-35.522 35.522c-19.596 0-35.522-15.926-35.522-35.522zM464.539 310.41c0 11.845 9.686 21.493 21.493 21.493 11.87 0 21.418-9.648 21.418-21.493 0-11.87-9.548-21.505-21.418-21.505-11.807 0-21.493 9.636-21.493 21.505zM485.208 315.015c-2.247-0.387-3.882-2.334-3.882-4.606-0.012-2.584 2.072-4.693 4.656-4.705h0.050c2.571 0.025 4.631 2.134 4.618 4.705-0.037 2.521-2.084 4.568-4.618 4.606-0.137 0.012-0.262 0.025-0.412 0.025-0.137 0-0.287-0.012-0.412-0.025z" />
<glyph unicode="&#xe901;" glyph-name="bank" d="M785.238 236.1c0-6.065-4.852-10.796-10.796-10.796h-453.568c-5.944 0-10.796 4.731-10.796 10.796v410.261c0 5.58 4.246 10.311 9.826 10.796 0.364 0.121 0.607 0.121 0.97 0h248.437c5.944 0 10.796-4.731 10.796-10.796v-399.465h183.538v248.316h-151.513c-5.944 0.121-10.675 4.974-10.554 10.918 0 6.065 4.974 10.796 10.918 10.675h161.945c5.944 0 10.796-4.852 10.796-10.796v-269.908zM514.844 919.424l-412.444-239.096v-478.193l412.444-239.096 412.444 239.096v478.193l-412.444 239.096zM407.245 246.898h75.696v86.371h-75.696zM425.32 532.212c5.216-3.882 13.101-7.642 21.107-10.796 8.249-3.397 17.832-7.157 26.202-13.586 8.37-6.308 15.649-16.498 15.649-29.356 0-12.495-7.157-22.927-16.498-28.75-6.429-4.124-13.708-6.551-21.229-7.642v-12.009c-0.121-5.944-5.095-10.675-11.039-10.554-5.944 0-10.675 4.974-10.675 10.918v11.645c-12.373 1.82-22.321 6.672-28.992 12.859-4.367 4.003-4.61 10.918-0.485 15.285s11.039 4.61 15.406 0.485c3.154-2.911 12.616-7.885 24.868-7.885 8.249 0 15.77 2.062 20.501 5.095 4.61 2.911 6.551 5.58 6.551 10.554 0 5.338-2.062 8.249-7.278 12.252-5.095 3.882-12.98 7.521-21.107 10.796s-17.711 7.036-26.081 13.465c-8.37 6.308-15.77 16.498-15.77 29.356 0 12.495 7.278 22.927 16.619 28.871 6.308 4.003 13.586 6.429 21.229 7.521v11.645c-0.121 5.58 4.003 10.432 9.583 11.039h1.334c6.065-0.121 10.796-5.095 10.675-11.039v-11.645c12.495-1.82 22.442-6.672 28.992-12.737 4.367-4.124 4.61-11.039 0.485-15.406-4.003-4.367-10.918-4.61-15.285-0.485-3.275 3.033-12.737 7.885-24.989 7.885-8.128 0-15.77-2.062-20.38-5.095-4.731-2.911-6.672-5.459-6.672-10.554 0-5.338 2.184-8.249 7.278-12.131v0zM331.671 635.566v-388.668h53.982v97.167c0 5.58 4.246 10.19 9.826 10.796h98.259c5.944 0 10.796-4.852 10.796-10.796v-97.167h53.982v388.668h-226.844z" />
<glyph unicode="&#xe902;" glyph-name="broken-door" d="M514.907 942.933l412.382-246.142v-492.533l-412.382-246.267-412.507 246.267v492.533l412.507 246.142zM603.449 652.8l-131.271-131.271 39.675-40.165 14.205 14.205-26.45 25.96 103.841 103.352 90.126-90.126-103.352-103.841-25.96 26.45-14.205-14.205 40.165-39.675 131.271 131.271-118.046 118.046zM556.517 369.776l-39.675 40.165-14.205-14.205 26.45-25.96-103.841-103.352-90.126 90.126 103.352 103.841 25.96-26.45 14.205 14.205-40.165 39.675-131.271-131.271 118.046-118.046 131.271 131.271zM603.022 343.124l62.344-62.344 13.854 13.854-62.344 62.344-13.854-13.854zM642.844 379.281l59.083-29.586 8.773 17.519-59.083 29.586-8.773-17.519zM557.511 308.383l29.586-59.083 17.519 8.773-29.586 59.083-17.519-8.773zM352.711 593.435l62.344-62.344 13.854 13.854-62.344 62.344-13.854-13.854zM420.978 632.649l29.586-59.083 17.519 8.773-29.586 59.083-17.519-8.773zM318.578 521.503l59.083-29.586 8.773 17.519-59.083 29.586-8.773-17.519z" />
<glyph unicode="&#xe903;" glyph-name="camera" d="M744.722 295.555c0-25.353-20.622-45.975-45.854-45.975h-368.046c-25.232 0-45.854 20.622-45.854 45.975v240.795c0 25.353 20.622 46.097 45.854 46.097h76.060l29.478 59.198c0.97 1.698 3.518 4.124 7.157 4.124h142.657c2.911 0.121 5.823-1.577 7.157-4.124l29.478-59.198h76.060c25.232 0 45.854-20.744 45.854-46.097v-240.795zM514.844 925.867l-412.444-239.096v-478.193l412.444-239.096 412.444 239.096v478.193l-412.444 239.096zM514.844 320.908c-52.405 0-95.105 42.579-95.105 95.105 0 52.405 42.7 95.105 95.105 95.105s95.105-42.7 95.105-95.105c0-52.526-42.7-95.105-95.105-95.105zM698.867 566.555h-81.033c-2.911 0-5.823 1.82-7.157 4.488l-29.478 58.955h-132.71l-29.478-58.955c-1.334-2.669-4.246-4.488-7.157-4.488h-81.033c-16.74 0-29.963-13.222-29.963-30.205v-240.795c0-16.983 13.222-30.205 29.963-30.205h368.046c16.74 0 29.963 13.222 29.963 30.205v240.795c0 16.983-13.222 30.205-29.963 30.205zM594.058 416.013c0-43.913-35.3-79.335-79.214-79.335-43.792 0-79.214 35.422-79.214 79.335 0 43.792 35.422 79.214 79.214 79.214 43.913 0 79.214-35.422 79.214-79.214z" />
<glyph unicode="&#xe904;" glyph-name="cb" d="M758.494 432.436l-351.132-211.516c-6.156-3.694-14.282-1.724-17.975 4.432l-130.505 216.687c-3.694 6.156-1.724 14.282 4.432 17.975l351.132 211.516c6.279 3.817 14.282 1.724 17.975-4.432l130.505-216.687c3.817-6.156 1.847-14.282-4.432-17.975v0zM510.905 931.556l-408.505-242.665v-485.33l408.505-242.665 408.628 242.665v485.33l-408.628 242.665zM733.871 448.071l-328.847-197.973-52.818 87.783 328.724 198.096zM644.857 595.69l-328.724-198.096-28.071 46.785 328.724 197.973z" />
<glyph unicode="&#xe905;" glyph-name="check" d="M714.262 553.075l-267.216-267.216c-6.587-6.587-17.276-6.587-23.863 0l-107.756 107.756c-6.587 6.587-6.587 17.276 0 23.863l31.942 31.942c6.463 6.587 17.276 6.587 23.739 0l52.076-52.076c6.587-6.463 17.276-6.463 23.863 0l211.411 211.411c6.587 6.587 17.276 6.587 23.863 0l31.942-31.942c6.463-6.463 6.463-17.276 0-23.739v0zM514.782 937.244l-412.382-244.969v-489.937l412.382-244.969 412.507 244.969v489.937l-412.507 244.969z" />
<glyph unicode="&#xe906;" glyph-name="cleaning" d="M617.673 400.841c2.69 3.235 4.278 5.4 5.964 8.191 8.472-2.649 15.041-9.714 16.746-18.775 2.52-13.352-6.263-26.213-19.615-28.724-10.269-1.937-20.357 2.848-25.535 11.431 0.615 0.661 1.203 1.347 1.762 2.056 2.527 1.931 4.828 4.016 6.812 6.197 3.002 3.288 5.5 6.778 8.641 11.787 0.528 0.736 1.017 1.496 1.468 2.283-8.939-12.417-20.304-22.972-33.399-30.971 8.748-14.662 25.922-22.854 43.41-19.555 22.616 4.253 37.496 26.043 33.228 48.657-2.86 15.193-13.763 27.081-27.828 31.711-2.936-8.603-6.866-16.745-11.655-24.289zM617.469 400.521c-0.069-0.12-0.118-0.194-0.181-0.281 0.060 0.094 0.12 0.188 0.181 0.281zM602.14 408.26l-0.066 0.055c0.004 0.005 0.008 0.011 0.014 0.019 0.475 0.65 0.671 0.918 0.825 1.132-0.226-0.315-0.227-0.309-0.274-0.448 0.404 0.62 0.801 1.245 1.19 1.874-0.597-0.709-1.262-1.488-2.008-2.356 0 0 0.241-0.238 0.227-0.258-0.838-1.149-1.25-1.735-1.63-2.38-0.023-0.036-0.083-0.131-0.293-0.456-0.077-0.118-0.077-0.118-0.16-0.247-0.177-0.272-0.177-0.272-0.377-0.586l-0.021-0.037c0.885 1.208 1.744 2.437 2.574 3.686zM629.328 425.13c3.962 11.611 6.112 24.061 6.112 37.014 0 31.134-12.422 59.368-32.579 80.015-2.292-1.969-4.694-3.836-7.201-5.591l-6.672-4.67c-0.423 0.413-0.85 0.822-1.28 1.228l-3.9 5.493c-2.629 3.704-6.479 6.072-11.547 6.788l-0.84 0.119c-1.324 0.804-2.669 1.578-4.033 2.32-2.233 2.041-4.995 3.415-8.345 4.034-1.411 0.601-2.839 1.169-4.283 1.704l-0.364 0.311c-2.946 2.515-6.824 3.93-11.715 3.998l-1.813 0.025-1.646 0.76c-2.411 1.114-5.217 1.71-8.442 1.71-0.338 0-0.69-0.027-1.608-0.122-0.372-0.038-0.372-0.038-0.765-0.077l-0.881-0.084-0.88 0.099c-1.099 0.123-2.014 0.184-2.868 0.184-1.323 0-2.646-0.122-4.017-0.361l-1.473-0.256-1.472 0.26c-1.343 0.237-2.62 0.357-3.909 0.357-2.225 0-4.292-0.316-6.273-0.923l-0.725-0.222-0.753-0.091c-2.25-0.272-4.261-0.872-6.056-1.769l-0.739-0.369c-0.794-0.188-1.584-0.385-2.37-0.592l-1.24 0.077c-4.038-0.016-7.134-0.871-9.826-2.439l-0.903-0.526-1.003-0.293c-0.549-0.16-1.124-0.364-1.742-0.617l-5.981-2.447-3.976 5.094c-1.881 2.41-3.637 4.903-5.263 7.474-17.786-9.715-32.712-24.009-43.194-41.297 3.030-3.981 5.653-8.34 7.79-13.030l1.725-3.788-1.923-3.691c-0.444-0.853-0.836-1.856-1.199-3.068-0.088-1.366-0.314-2.756-0.698-4.364 10.436 30.734 35.788 54.58 67.432 62.915l1.054-0.066 1.317 0.658c7.231 1.711 14.774 2.616 22.528 2.616 11.91 0 23.322-2.136 33.872-6.046l1.455-1.242 2.362-0.381c0.157-0.025 0.312-0.052 0.466-0.081 2.854-1.215 5.638-2.562 8.345-4.034 0.068-0.062 0.135-0.125 0.202-0.188l1.976-1.869 1.854-0.262c5.863-3.561 11.32-7.722 16.286-12.399l1.007-1.419 0.273 0.191c18.13-17.703 29.385-42.414 29.385-69.754 0-18.801-5.323-36.36-14.544-51.251 2.644 3.139 3.975 4.924 5.286 7.105 0.637 1.054 1.158 2.177 1.559 3.353l2.132 6.26 6.594-0.502c3.433-0.262 6.761-0.936 9.928-1.979zM580.517 364.317c-1.526 2.557-2.795 5.312-3.765 8.236l-2.034 6.131 5.349 3.622c1.537 1.040 2.855 2.324 3.925 3.81l0.796 1.106 1.1 0.803c2.042 1.49 3.846 3.085 5.306 4.69 2.221 2.433 4.227 5.247 6.941 9.59l0.366 0.539c0.285 0.387 0.535 0.783 0.757 1.201l0.308 0.53c-17.739-24.201-46.374-39.915-78.678-39.915-52.749 0-95.715 41.899-97.432 94.231-0.025-0.44-0.051-0.873-0.078-1.309-0.123-1.948-0.275-3.825-0.468-5.766-0.039-2.154 0.2-4.278 0.706-6.258l1.035-4.053-2.57-3.301c-3.102-3.983-6.586-7.584-10.396-10.753 14.698-46.305 58.034-79.858 109.204-79.858 21.844 0 42.259 6.114 59.629 16.725zM412.070 498.031c2.723 8.261 6.36 16.106 10.792 23.416-15.28 20.075-40.919 30.559-66.774 25.681-36.995-6.962-61.348-42.618-54.371-79.614 6.977-37.010 42.621-61.35 79.617-54.358 11.35 2.13 21.691 7.094 30.35 14.295-3.185 10.034-5.026 20.668-5.31 31.688-0.010-0.16-0.020-0.319-0.030-0.478-0.117-1.847-0.261-3.612-0.448-5.452l-0.040-0.614c-0.066-2.275 0.051-4.548 0.353-6.781-7.396-8.238-17.082-13.83-28.034-15.886-27.74-5.242-54.457 13.001-59.688 40.749-5.23 27.732 13.027 54.461 40.76 59.68 22 4.15 43.797-6.548 54.25-25.763-0.358-1.018-0.68-2.076-0.978-3.188l-0.29-1.084v-1.122c0-0.259-0.052-0.646-0.161-1.169zM410 490.995c-2.241-6.893-2.944-9.387-2.701-12.113-0.086-0.416-0.144-0.8-0.193-1.3-0.057-1.243-0.101-2.319-0.141-3.361 0.6 5.727 1.622 11.329 3.035 16.774zM426.415 486.286c-1.078-3.308-1.364-4.226-1.678-5.452-0.163-0.638-0.261-1.12-0.297-1.417 0.011 0.093 0.010 0.36-0.114 0.938l0.359-1.665-0.308-1.675c-0.080-0.438-0.166-0.804-0.277-1.239-0.036-0.928-0.070-1.849-0.104-2.816 0.502 4.544 1.315 8.993 2.42 13.327zM602.861 542.159c24.415 20.974 36.404 53.572 30.278 86.108-9.348 49.592-57.123 82.218-106.711 72.87-49.58-9.349-82.205-57.124-72.857-106.699 2.15-11.384 6.405-22.077 12.485-31.693 2.999 1.638 6.079 3.146 9.232 4.516l-0.474 1.159c0.81 0.331 1.613 0.629 2.421 0.894 0.334 0.109 0.668 0.213 1.004 0.311l0.296-1.013c-0.565-0.225-1.127-0.454-1.687-0.688l-0.514 0.882c0.298 0.174 0.599 0.343 0.902 0.507 1.215 0.66 2.467 1.246 3.756 1.757 0.265-0.408 0.535-0.814 0.808-1.217 12.198 4.428 25.362 6.843 39.089 6.843 14.972 0 29.274-2.873 42.384-8.097-5.224 3.735-11.528 5.901-18.58 6.297-4.252 1.691-8.923 2.559-13.912 2.559-1.057 0-1.811-0.054-3.172-0.193-1.324 0.126-2.568 0.193-3.83 0.193-1.842 0-3.656-0.131-5.47-0.383-1.792 0.252-3.579 0.383-5.401 0.383-3.672 0-7.183-0.499-10.549-1.458-3.124-0.44-6.086-1.252-8.859-2.416-4.47-0.129-8.652-0.982-12.508-2.51-5.216 8.022-8.845 16.975-10.649 26.532-7.601 40.31 18.93 79.161 59.249 86.763 40.324 7.601 79.175-18.93 86.778-59.259 4.986-26.486-4.796-53.022-24.724-70.084-4.026 3.289-8.839 5.615-14.257 6.794 9.402-5.341 17.974-11.974 25.474-19.657zM577.086 561.986c-4.135 2.333-8.43 4.416-12.864 6.229 4.819-1.182 9.148-3.296 12.864-6.229zM510.899 942.93l414.202-246v-491.987l-414.202-246-414.189 246v491.987l414.189 246zM577.387 561.816c-0.1 0.057-0.2 0.114-0.301 0.17 0.061-0.048 0.121-0.096 0.182-0.145 0.040-0.008 0.079-0.017 0.119-0.026zM564.222 568.215c-0.207 0.051-0.415 0.1-0.624 0.147-0.108 0.079-0.217 0.158-0.326 0.236 0.317-0.126 0.634-0.254 0.95-0.384zM481.799 569.853c-1.096-0.398-2.184-0.812-3.264-1.242l2.094-7.179-3.781 6.491c-0.522-0.217-1.041-0.439-1.559-0.664l2.757-6.739 6.726 5.251c-1.038 1.33-2.029 2.691-2.972 4.081zM428.557 493.505c-0.804-2.367-1.519-4.775-2.142-7.219 0.010 0.031 0.020 0.063 0.031 0.095 0.139 0.427 0.139 0.427 0.279 0.86 0.812 2.511 1.415 4.516 1.832 6.265zM423.996 472.959c-0.392-3.551-0.593-7.16-0.593-10.815 0-1.089 0.018-2.174 0.053-3.254 0.115 2.040 0.205 4.212 0.31 7.278 0.029 0.848 0.136 4.063 0.158 4.731 0.024 0.72 0.048 1.401 0.071 2.061zM412.070 498.031c-0.763-2.314-1.454-4.66-2.070-7.036 0.072 0.22 0.145 0.445 0.219 0.674 0.135 0.415 0.135 0.415 0.268 0.824 0.831 2.569 1.344 4.385 1.583 5.539zM406.965 474.221c-0.416-3.969-0.629-7.998-0.629-12.077 0-1.005 0.013-2.007 0.039-3.006 0.127 2.102 0.221 4.292 0.335 7.614 0.029 0.836 0.135 4.046 0.158 4.723 0.032 0.95 0.063 1.836 0.097 2.746zM601.769 404.96c0.189-2.584 0.189-2.584 3.059-6.324 4.273-2.182 4.273-2.182 6.961-1.85 1.128 0.457 1.926 0.78 2.495 1.018l-12.006 10.338c-0.213-0.495-0.254-0.872-0.509-3.183zM602.14 408.26c0.167 0.252 0.334 0.505 0.499 0.759-0.030-0.088-0.078-0.234-0.214-0.557-0.057-0.121-0.105-0.222-0.147-0.318l-0.139 0.117zM617.673 400.841c-0.068-0.107-0.136-0.213-0.204-0.32 0.034 0.059 0.072 0.13 0.119 0.218 0.028 0.034 0.057 0.068 0.085 0.102zM617.289 400.24c-1.082-1.681-2.207-3.333-3.373-4.952 0.079 0.138 0.157 0.276 0.233 0.415 0.030 0.047 0.067 0.103 0.129 0.199 0.081 0.124 0.081 0.124 0.168 0.259 0.28 0.433 0.421 0.656 0.607 0.96 0.039 0.065 0.351 0.508 0.821 1.153 0.457 0.624 0.701 0.958 0.901 1.237 0.215 0.3 0.215 0.3 0.443 0.632 0.026 0.036 0.049 0.067 0.071 0.097zM672.986 573.531c17.247 0 31.233-13.983 31.233-31.233 0-17.239-13.988-31.221-31.233-31.221s-31.233 13.981-31.233 31.221c0 17.25 13.986 31.233 31.233 31.233zM672.986 590.598c-26.672 0-48.3-21.623-48.3-48.3 0-26.666 21.63-48.287 48.3-48.287s48.3 21.621 48.3 48.287c0 26.677-21.628 48.3-48.3 48.3zM536.26 277.812c6.838 0 12.386-5.546 12.386-12.386 0-6.829-5.549-12.373-12.386-12.373s-12.386 5.545-12.386 12.373c0 6.84 5.548 12.386 12.386 12.386zM536.26 294.879c-16.262 0-29.452-13.185-29.452-29.452 0-16.258 13.193-29.44 29.452-29.44s29.452 13.182 29.452 29.44c0 16.267-13.191 29.452-29.452 29.452zM459.967 338.092c17.242 0 31.233-13.991 31.233-31.233 0-17.239-13.988-31.221-31.233-31.221s-31.233 13.981-31.233 31.221c0 17.242 13.991 31.233 31.233 31.233zM459.967 355.159c-26.668 0-48.3-21.632-48.3-48.3 0-26.666 21.63-48.287 48.3-48.287s48.3 21.621 48.3 48.287c0 26.668-21.632 48.3-48.3 48.3z" />
<glyph unicode="&#xe907;" glyph-name="concierge" d="M720.156 571.585c10.29-10.292 15.992-24.055 15.992-39.058 0-14.879-5.703-28.643-15.992-38.934s-24.051-16.119-38.927-16.119c-15.001 0-28.762 5.828-39.051 16.119-8.554 8.556-13.761 18.351-15.497 29.263l-76.739-76.877 193.15-193.183-35.58-34.966-29.753 29.759-29.877-29.759-90.004 90.020 29.877 29.759-73.144 73.157-74.136-74.273 29.753-29.759-90.004-90.020-29.753 29.759-29.877-29.759-36.076 36.082 194.389 193.679-77.483 77.496c-2.232-10.912-7.438-21.203-15.497-29.263-10.29-10.292-24.051-15.995-38.927-15.995s-28.638 5.704-38.927 15.995c-10.414 10.292-16.116 24.055-16.116 39.058 0 14.879 5.703 28.643 16.116 38.934 0.496 0.62 1.116 1.116 1.612 1.736-2.851 1.736-5.703 3.968-7.934 6.324-10.414 10.292-16.116 24.055-16.116 38.934s5.703 28.643 16.116 39.058c10.29 10.292 24.051 15.995 38.927 15.995s28.638-5.704 39.051-15.995c1.612-1.736 3.347-4.092 5.083-6.324 1.116 2.232 3.471 4.588 5.207 6.324 10.29 10.292 24.051 15.995 38.927 15.995s28.638-5.704 39.051-15.995c21.695-21.327 21.695-56.293 0-77.992-9.794-9.796-22.935-15.499-36.696-16.119l82.938-82.952 83.31 82.952c-13.761 0.62-27.026 6.324-36.696 16.119-21.819 21.203-21.819 56.169 0 77.992 10.29 10.292 24.051 15.995 38.927 15.995s28.638-5.704 38.927-15.995c1.736-1.736 3.471-4.092 5.207-6.324 1.116 2.232 3.471 4.588 5.207 6.324 10.29 10.292 24.051 15.995 38.927 15.995s28.638-5.704 38.927-15.995c10.414-10.416 16.116-24.179 16.116-39.058s-5.703-28.643-16.116-38.934c-2.851-2.356-5.083-4.588-7.934-6.324 0.496-0.62 1.116-1.116 1.116-2.852v0zM513.742 937.244l-411.342-244.393v-488.786l411.342-244.393 411.465 244.393v488.786l-411.465 244.393zM450.144 599.111c-11.405-11.531-30.869-11.531-41.779 0-5.827 5.704-8.678 13.143-8.678 21.203-1.116 7.44 2.355 14.879 8.058 20.583s13.141 8.68 21.199 8.68c8.058 0 15.497-2.976 21.199-8.68 11.529-11.407 11.529-30.379 0-41.786zM361.379 599.111c-11.529-11.531-30.993-11.531-41.903 0-5.703 5.704-8.554 13.143-8.554 21.203-1.24 7.44 2.232 14.879 7.934 20.583 5.827 5.704 13.265 8.68 21.323 8.68 7.934 0 15.373-2.976 21.199-8.68 11.405-11.407 11.405-30.379 0-41.786zM367.082 512.564c-11.529-11.531-30.993-11.531-41.903 0-5.703 5.704-8.554 13.143-8.554 21.203 0 7.936 2.851 15.375 8.554 21.203 5.827 5.704 13.265 8.556 21.199 8.556 8.058 0 15.497-2.852 21.199-8.556 10.91-12.027 10.91-30.999-0.496-42.406zM712.098 533.147c-0.496-7.44-3.967-14.879-9.174-20.583-11.405-11.531-30.869-11.531-41.779 0-11.529 11.407-11.529 30.379 0 41.786 5.703 5.704 13.141 8.556 21.199 8.556s15.497-2.852 21.199-8.556c5.703-5.704 8.554-13.143 8.554-21.203zM717.801 619.695c0-8.060-2.851-15.499-8.554-21.203-11.405-11.407-30.993-11.407-41.779 0-12.645 12.027-12.645 30.999-0.62 42.406 5.703 5.704 13.141 8.68 21.199 8.68s15.497-2.976 21.199-8.68c5.703-5.704 8.554-13.143 8.554-21.203zM628.416 619.695c0-8.060-2.851-15.499-8.554-21.203-11.529-11.407-30.993-11.407-41.903 0-12.025 12.027-12.025 30.999-0.496 42.406 5.703 5.704 13.141 8.68 21.199 8.68 7.934 0 15.497-2.976 21.199-8.68s8.554-13.143 8.554-21.203z" />
<glyph unicode="&#xe908;" glyph-name="cookoon-mark1" d="M514.907 942.933l412.382-246.142v-492.533l-412.382-246.267-412.507 246.267v492.533l412.507 246.142zM514.856 544.711l-76.812-45.833v-91.713l76.812-45.857 76.788 45.857v91.713l-76.788 45.833z" />
<glyph unicode="&#xe909;" glyph-name="cookoon-mark2" d="M514.907 942.933l412.382-246.142v-492.533l-412.382-246.267-412.507 246.267v492.533l412.507 246.142zM418.145 544.711l-76.812-45.833v-91.713l76.812-45.857 76.788 45.857v91.713l-76.788 45.833zM617.256 544.711l-76.812-45.833v-91.713l76.812-45.857 76.788 45.857v91.713l-76.788 45.833z" />
<glyph unicode="&#xe90a;" glyph-name="cookoon-mark3" d="M514.907 942.933l412.382-246.142v-492.533l-412.382-246.267-412.507 246.267v492.533l412.507 246.142zM315.745 544.711l-76.812-45.833v-91.713l76.812-45.857 76.788 45.857v91.713l-76.788 45.833zM514.856 544.711l-76.812-45.833v-91.713l76.812-45.857 76.788 45.857v91.713l-76.788 45.833zM713.967 544.711l-76.812-45.833v-91.713l76.812-45.857 76.788 45.857v91.713l-76.788 45.833z" />
<glyph unicode="&#xe90b;" glyph-name="datetime-picker" d="M760.358 681.922h-53.878v12.616c0 5.229-4.356 9.462-9.724 9.462s-9.724-4.233-9.724-9.462v-12.616h-168.55v12.616c0 5.229-4.35 9.462-9.724 9.462s-9.724-4.233-9.724-9.462v-12.616h-162.067v12.616c0 5.229-4.35 9.462-9.724 9.462s-9.724-4.233-9.724-9.462v-12.616h-53.878c-16.758 0-30.397-13.272-30.397-29.578v-294.084c0-16.312 13.64-29.584 30.397-29.584h95.38c5.692-76.289 71.258-136.675 151.086-136.675 79.821 0 145.394 60.386 151.086 136.675h99.159c16.764 0 30.404 13.272 30.404 29.578v294.091c0 16.306-13.64 29.578-30.397 29.578zM510.114 210.924c-72.833 0-132.085 57.661-132.085 128.525s59.258 128.525 132.085 128.525c72.827 0 132.085-57.661 132.085-128.525s-59.258-128.525-132.085-128.525zM771.307 358.253c0-5.873-4.914-10.654-10.949-10.654h-98.952c-4.369 77.525-70.551 139.299-151.293 139.299-80.748 0-146.93-61.774-151.293-139.299h-95.179c-6.035 0-10.949 4.781-10.949 10.654v241.665h518.615v-241.665zM771.307 618.842h-518.615v33.502c0 5.873 4.914 10.654 10.949 10.654h53.878v-18.924c0-5.229 4.35-9.462 9.724-9.462s9.724 4.233 9.724 9.462v18.924h162.067v-18.924c0-5.229 4.35-9.462 9.724-9.462s9.724 4.233 9.724 9.462v18.924h168.55v-18.924c0-5.229 4.356-9.462 9.724-9.462s9.724 4.233 9.724 9.462v18.924h53.878c6.035 0 10.949-4.781 10.949-10.654v-33.502zM518.481 338.561v105.078c0 5.547-3.994 10.050-8.929 10.050s-8.929-4.502-8.929-10.050v-107.195c0.095-3.558 2.143-7.671 2.744-8.629l32.211-51.876c1.738-2.794 4.512-4.295 7.322-4.295 1.768 0 3.554 0.59 5.108 1.816 4.042 3.182 5.030 9.44 2.203 13.996l-31.729 51.105z" />
<glyph unicode="&#xe90c;" glyph-name="email" d="M704.568 481.437c-1.354-32.134-10.711-59.712-28.194-82.981-17.483-23.146-43.707-34.842-78.549-34.842-11.45 0-21.422 3.201-29.794 9.726s-14.282 15.513-17.852 27.086c-6.402-12.066-14.528-21.053-24.131-27.086s-20.93-8.988-33.857-8.988c-20.684 0-36.689 8.741-47.77 26.224s-15.143 40.629-12.189 69.438c3.694 37.305 14.159 67.222 31.641 89.753 17.36 22.531 38.536 33.734 63.406 33.734 16.99 0 30.779-1.97 41.121-5.787s21.669-9.603 34.104-17.606l-0.739-0.862h1.108l-11.204-126.319c-1.108-14.035 0-23.515 3.078-28.686s7.264-7.756 12.558-7.756c16.867 0 30.41 8.003 40.629 24.008s16.005 36.32 17.113 60.943c2.339 51.833-7.633 92.338-30.041 121.517-22.407 29.056-57.127 43.584-104.034 43.584-44.569 0-80.15-15.636-106.743-46.908-26.593-31.395-40.998-73.378-43.214-125.949-2.462-52.202 8.249-93.323 32.257-123.487 23.885-30.164 58.358-45.184 103.419-45.184 12.435 0 25.362 1.477 38.659 4.432 13.297 2.832 24.747 6.525 34.35 10.957l8.372-32.38c-9.849-6.156-22.407-10.957-37.674-14.528-15.143-3.447-30.041-5.171-44.569-5.171-58.235 0-103.173 18.345-134.691 54.91-31.518 36.689-46.046 86.798-43.584 150.45 2.709 62.79 21.422 113.022 56.388 150.696s80.888 56.634 137.892 56.634c57.003 0 100.587-17.852 130.874-53.556 30.287-35.581 44.199-84.336 41.86-146.018v0zM511.027 931.556l-408.627-242.665v-485.33l408.627-242.542 408.504 242.542v485.33l-408.504 242.665zM556.581 542.258l-9.726-109.328c-0.123-0.616-0.246-1.108-0.246-1.477v-1.477c-5.294-10.219-11.204-17.36-17.975-21.176-6.648-3.817-14.035-5.663-22.284-5.663-9.48 0-16.252 4.802-20.438 14.405s-5.54 23.762-4.063 42.476c2.585 28.686 8.249 50.109 16.744 64.267s20.93 21.299 37.305 21.299c3.57 0 7.141-0.369 10.588-0.862 3.324-0.616 6.771-1.477 10.096-2.462z" />
<glyph unicode="&#xe90d;" glyph-name="fire" d="M514.907 942.933l412.382-246.142v-492.533l-412.382-246.267-412.507 246.267v492.533l412.507 246.142zM518.161 217.835c90.163 0 153.128 70.571 153.128 171.617 0 86.204-36.386 146.995-63.761 185.23-41.205 57.537-98.463 102.298-100.881 104.175-4.102 3.191-9.83 3.174-13.926 0.006-4.102-3.174-5.541-8.732-3.499-13.5 0.182-0.41 17.471-41.512 11.469-96.37-4.807-43.964-22.642-68.056-31.755-76.663-5.774 9.478-14.569 34.657-20.565 59.733-0.973 4.079-4.107 7.287-8.158 8.357-4.073 1.064-8.368-0.171-11.224-3.231-3.118-3.328-76.277-82.642-76.277-173.904 0-100.506 64.944-165.45 165.45-165.45zM431.923 524.989c16.623-57.924 30.714-57.919 36.375-57.919 0.518 0 1.593 0.074 2.105 0.142 12.146 1.667 45.722 33.644 52.907 99.305 3.009 27.551 0.796 51.803-2.628 70.298 19.86-18.204 46.706-45.17 68.352-75.389 40.596-56.695 59.5-111.343 59.5-171.975 0-87.649-53.612-148.861-130.372-148.861-88.018 0-142.694 54.676-142.694 142.694 0 59.193 36.039 114.893 56.457 141.705z" />
<glyph unicode="&#xe90e;" glyph-name="glasshole-search" d="M773.357 186.643c-8.028-8.028-20.516-8.028-29.436 0l-171.264 172.157c-79.388-62.44-197.133-58.872-268.493 12.488-79.388 79.388-79.388 205.161 0 284.549s205.161 79.388 284.549 0c75.82-75.82 79.388-188.213 12.488-268.493l172.157-171.264c8.028-8.028 8.028-21.408 0-29.436zM560.763 628.185c-63.030 63.161-164.778 63.161-228.708 0s-63.030-165.122 0-229.186c63.030-64.064 164.778-63.161 228.708 0s63.93 166.024 0 229.186zM397.785 455.087c8.169-7.969 8.169-20.364 0-29.219s-20.875-7.969-29.952 0c-4.538 4.427-4.538 4.427-8.169 7.969-47.197 46.041-47.197 120.416 0 170.884 4.538 4.427 4.538 4.427 8.169 7.969 8.169 7.969 20.875 7.969 29.952 0 8.169-7.969 8.169-20.364 0-29.219-4.538 0-4.538-4.427-8.169-7.969-29.952-29.219-29.952-83.229 0-112.447 4.538-3.542 8.169-7.969 8.169-7.969z" />
<glyph unicode="&#xe90f;" glyph-name="home" d="M514.844 925.867l-412.444-239.096v-478.193l412.444-239.096 412.444 239.096v478.193l-412.444 239.096zM301.95 511.239l212.894 152.119 213.015-152.119-7.885-11.039-205.13 146.539-205.13-146.539-7.764 11.039zM651.558 245.576v211.681h13.465v-225.267h-300.357v225.267h13.465v-211.681h273.426z" />
<glyph unicode="&#xe910;" glyph-name="lenght-picker" d="M764.937 484.701c-0.522 3.483-3.114 6.248-6.511 7.083l-26.369 6.359c-15.306 3.661-26.485 12.177-31.346 23.999-4.937 11.802-3.073 25.736 5.185 39.179l14.131 23.093c1.808 2.962 1.64 6.78-0.415 9.59-15.625 21.503-34.424 40.303-55.933 55.923-2.8 2.051-6.607 2.223-9.585 0.42l-23.083-14.141c-8.425-5.144-17.21-7.828-25.528-7.828-18.162 0-32.617 13.017-37.705 33.989l-6.294 26.379c-0.851 3.377-3.661 5.975-7.099 6.496-26.055 4.091-53.011 4.091-79.066 0-3.443-0.522-6.243-3.119-7.043-6.496l-6.359-26.379c-5.073-20.972-19.539-33.989-37.705-33.989-8.309 0-17.103 2.683-25.518 7.828l-23.093 14.141c-2.962 1.802-6.775 1.63-9.585-0.42-21.498-15.62-40.293-34.424-55.918-55.923-2.071-2.81-2.223-6.628-0.425-9.59l14.146-23.093c8.258-13.438 10.061-27.377 5.18-39.179-4.871-11.822-16-20.339-31.341-23.999l-26.384-6.359c-3.382-0.835-5.98-3.6-6.511-7.083-2.010-13.038-3.073-26.318-3.073-39.513 0-13.235 1.063-26.531 3.073-39.548 0.527-3.448 3.124-6.248 6.511-7.048l26.384-6.364c15.341-3.691 26.47-12.228 31.341-24.035 4.881-11.822 3.073-25.736-5.18-39.199l-14.146-23.083c-1.797-2.967-1.64-6.775 0.425-9.58 15.62-21.498 34.419-40.308 55.918-55.923 2.81-2.076 6.623-2.223 9.585-0.37l23.093 14.086c8.415 5.134 17.21 7.888 25.518 7.888 18.167 0 32.632-13.083 37.705-34.050l6.359-26.374c0.8-3.397 3.6-5.939 7.043-6.521 13.028-2.010 26.323-3.068 39.558-3.068 13.195 0 26.48 1.058 39.503 3.068 3.443 0.582 6.248 3.124 7.099 6.521l6.294 26.374c5.088 20.967 19.544 34.050 37.705 34.050 8.319 0 17.103-2.754 25.528-7.888l23.083-14.086c2.977-1.853 6.785-1.706 9.585 0.37 21.508 15.615 40.308 34.424 55.933 55.923 2.056 2.805 2.223 6.612 0.415 9.58l-14.131 23.083c-8.263 13.463-10.121 27.377-5.185 39.199 4.861 11.807 16.040 20.344 31.346 24.035l26.369 6.364c3.397 0.795 5.995 3.6 6.511 7.048 2.010 13.017 3.068 26.313 3.068 39.548 0.005 13.195-1.053 26.475-3.063 39.513zM748.674 413.999l-20.643-4.967c-20.865-5.028-36.283-17.169-43.331-34.207-7.043-17.058-4.759-36.5 6.41-54.819l11.129-18.111c-12.714-16.572-27.533-31.351-44.12-44.060l-18.111 11.068c-11.109 6.78-23.027 10.385-34.521 10.385-26.161 0-47.563-18.531-54.5-47.285l-4.972-20.658c-20.592-2.699-41.726-2.699-62.328 0l-4.977 20.658c-6.947 28.754-28.339 47.285-54.5 47.285-11.483 0-23.402-3.605-34.521-10.385l-18.111-11.068c-16.562 12.709-31.407 27.488-44.065 44.060l11.017 18.111c11.225 18.319 13.503 37.761 6.456 54.819-7.078 17.038-22.445 29.179-43.3 34.207l-20.668 4.967c-1.372 10.334-2.010 20.759-2.010 31.194 0 10.374 0.643 20.86 2.010 31.149l20.668 4.972c20.86 5.033 36.222 17.159 43.3 34.207 7.043 17.048 4.764 36.536-6.456 54.804l-11.023 18.111c12.658 16.577 27.503 31.407 44.065 44.115l18.111-11.068c11.124-6.835 23.042-10.435 34.521-10.435 26.161 0 47.553 18.582 54.5 47.29l4.977 20.653c20.602 2.714 41.731 2.714 62.328 0l4.972-20.653c6.937-28.708 28.339-47.29 54.561-47.29 11.433 0 23.346 3.595 34.46 10.435l18.111 11.068c16.582-12.709 31.407-27.539 44.12-44.115l-11.129-18.111c-11.169-18.268-13.448-37.756-6.41-54.804 7.048-17.048 22.465-29.179 43.331-34.207l20.643-4.972c1.337-10.288 2.076-20.774 2.076-31.149 0.005-10.44-0.739-20.86-2.071-31.194zM509.485 590.222c-4.914 0-8.863-3.938-8.863-8.811 0-4.852 3.949-8.785 8.863-8.785 70.082 0 127.135-57.079 127.135-127.151 0-4.852 3.938-8.853 8.801-8.853 4.857 0 8.801 4 8.801 8.853 0.005 79.796-64.951 144.747-144.737 144.747zM594.3 363.938c-22.988-22.979-53.515-35.641-86.021-35.641-32.546 0-63.087 12.657-86.066 35.641-47.429 47.419-47.429 124.633 0 172.052 3.3 3.304 3.3 8.628 0 11.931-3.314 3.304-8.639 3.304-11.944 0-53.989-54.032-53.989-141.883 0-195.915 26.204-26.144 60.968-40.54 98.014-40.54 36.987 0 71.766 14.396 97.945 40.54 3.309 3.299 3.309 8.628 0 11.931-3.3 3.319-8.624 3.319-11.929 0zM509.176 368.356c42.328 0 76.779 34.452 76.779 76.823 0 42.335-34.451 76.777-76.779 76.777-42.385 0-76.821-34.442-76.821-76.777 0.005-42.371 34.436-76.823 76.821-76.823zM509.176 504.363c32.603 0 59.172-26.575 59.172-59.184 0-32.671-26.569-59.179-59.172-59.179-32.675 0-59.172 26.513-59.172 59.179 0 32.609 26.502 59.184 59.172 59.184z" />
<glyph unicode="&#xe911;" glyph-name="logo" d="M543.866 218.248c-161.572 0-229.93 111.236-230.551 224.461-0.621 113.598 73.329 229.184 230.551 229.184 59.036 0 114.965-22.372 159.708-66.493l-54.686-52.822c-28.586 27.964-67.115 41.015-105.022 41.015-105.022 0-150.387-78.3-149.765-150.884 0.621-72.21 42.257-147.279 149.765-147.279 37.907 0 80.786 15.412 109.372 43.997l55.929-56.426c-44.743-44.246-102.536-64.753-165.301-64.753v0zM511.179 937.244l-412.382-244.969v-489.937l412.382-244.969 412.507 244.969v489.937l-412.507 244.969z" />
<glyph unicode="&#xe912;" glyph-name="lost" d="M514.907 942.933l412.382-246.142v-492.533l-412.382-246.267-412.507 246.267v492.533l412.507 246.142zM678.542 281.458c5.12 5.12 5.12 13.653 0 18.773l-109.796 109.227c42.667 51.2 40.391 122.88-7.964 171.236-50.631 50.631-130.844 50.631-181.476 0s-50.631-130.844 0-181.476c45.511-45.511 120.604-47.787 171.236-7.964l109.227-109.796c5.689-5.12 13.653-5.12 18.773 0zM542.009 561.92c40.391-39.822 40.391-104.676 0-144.498s-104.676-40.391-144.498 0c-39.822 40.391-40.391 104.676 0 144.498s104.676 39.822 144.498 0zM437.902 449.849c0 0-2.276 2.844-5.12 5.12-18.773 18.773-18.773 53.476 0 72.249 2.276 2.276 2.276 5.12 5.12 5.12 5.12 5.689 5.12 13.653 0 18.773-5.689 5.12-13.653 5.12-18.773 0-2.276-2.276-2.276-2.276-5.12-5.12-29.582-32.427-29.582-80.213 0-109.796 2.276-2.276 2.276-2.276 5.12-5.12 5.689-5.12 13.653-5.689 18.773 0s5.12 13.653 0 18.773z" />
<glyph unicode="&#xe913;" glyph-name="meeting" d="M734.168 226.773c-6.308-5.338-15.77-4.488-21.107 1.82l-98.623 106.386v-31.904c-0.121-8.249-6.915-14.921-15.163-14.799s-14.799 6.915-14.678 15.163v69.752c-0.121 7.642 5.701 14.072 13.344 14.921h71.693c8.249-0.121 14.799-6.915 14.678-15.163s-6.793-14.799-15.042-14.678h-35.543l101.17-109.298c0.364-0.364 0.728-0.728 1.092-1.213 5.338-6.308 4.488-15.77-1.82-20.986v0zM514.844 373.191c-41.002 0-74.725 33.602-74.725 74.604 0 41.123 33.723 74.725 74.725 74.725 41.123 0 74.725-33.602 74.725-74.725 0-41.002-33.602-74.604-74.725-74.604v0zM445.214 303.076c-0.121-8.249-6.915-14.921-15.163-14.799s-14.921 6.915-14.799 15.163v31.782l-98.623-106.629c-0.364-0.364-0.728-0.849-1.092-1.213-5.944-5.701-15.406-5.459-21.107 0.485s-5.58 15.406 0.364 21.107l101.17 109.298h-35.422c-8.249-0.485-15.285 5.823-15.77 14.072-0.364 8.249 5.944 15.285 14.193 15.77h71.207c8.249 0 14.921-6.672 15.042-14.921v-70.116zM304.619 672.092c4.488 0.243 8.977-1.456 12.009-4.852l98.623-106.629v31.782c0 8.249 6.551 15.042 14.799 15.042h0.485c8.249-0.121 14.799-6.915 14.678-15.163v-69.752c-0.121-8.249-6.793-14.921-15.042-14.921h-70.116c-8.249 0.121-14.799 6.915-14.678 15.163s6.915 14.799 15.163 14.678h35.543l-101.292 109.419c-2.305 2.547-3.761 5.823-4.003 9.341-0.607 8.128 5.58 15.285 13.829 15.891v0zM584.596 592.393c-0.121 8.249 6.551 15.042 14.799 15.042h0.485c8.249-0.121 14.678-6.915 14.557-15.163v-31.661l98.623 106.629c2.669 2.79 6.187 4.488 9.947 4.852 4.246 0.243 8.37-1.213 11.403-4.124 5.944-5.701 6.187-15.163 0.485-21.107l-101.292-109.419h36.028c8.249-0.121 14.799-6.915 14.678-15.163s-6.793-14.799-15.042-14.678h-69.752c-8.249 0-14.921 6.672-14.921 14.921v69.873zM514.844 925.867l-412.444-239.096v-478.193l412.444-239.096 412.444 239.096v478.193l-412.444 239.096zM559.728 447.795c0-24.868-19.894-44.762-44.884-44.762-24.868 0-44.762 19.894-44.762 44.762 0 24.989 19.894 44.884 44.762 44.884 24.989 0 44.884-19.894 44.884-44.884z" />
<glyph unicode="&#xe914;" glyph-name="minus" d="M626.139 442.93c0-9.558-7.856-17.414-17.414-17.414h-187.76c-9.558 0-17.414 7.856-17.414 17.414v4.452c0 9.558 7.856 17.414 17.414 17.414h187.76c9.558 0 17.414-7.856 17.414-17.414v-4.452zM514.844 857.6c-227.826 0-412.444-184.618-412.444-412.444s184.618-412.444 412.444-412.444c227.826 0 412.444 184.618 412.444 412.444s-184.618 412.444-412.444 412.444v0z" />
<glyph unicode="&#xe915;" glyph-name="notifications" d="M704.709 336.173h-391.705v15.406c0 108.45 87.463 195.913 195.913 195.913s195.792-87.463 195.792-195.913v-15.406zM313.004 245.434v32.025h391.705v-32.025h-391.705zM463.548 604.992v32.025h89.647v-32.025h-89.647zM508.917 919.423l-412.206-239.099v-478.198l412.206-239.099 412.206 239.099v478.198l-412.206 239.099zM672.684 367.107h-326.441c8.856 89.647 88.555 156.003 179.294 147.147 77.395-7.764 139.383-69.752 147.147-147.147z" />
<glyph unicode="&#xe916;" glyph-name="pax-picker" d="M753.111 245.188c-40.149-39.226-158.146-53.188-247.018-53.188-42.599 0-185.229 3.856-235.721 53.188-1.905 1.862-2.994 4.388-2.994 7.047 0 84.835 45.457 159.298 113.914 201.583 0.544-0.665 0.953-1.33 1.497-2.128 3.675-4.654 7.758-9.042 11.841-13.164-62.877-37.896-105.34-105.046-106.837-182.036 31.983-27.126 116.636-44.545 218.301-44.545 104.795 0 197.75 18.217 229.597 44.678-1.497 76.857-43.96 144.007-106.837 181.903 4.083 4.122 8.030 8.51 11.841 13.164 0.544 0.798 0.953 1.463 1.497 2.128 68.457-42.285 113.914-116.748 113.914-201.583 0-2.659-1.089-5.186-2.994-7.047v0zM641.707 561.522c0 73.184-59.662 132.806-132.942 132.806-73.164 0-132.806-59.642-132.806-132.806 0-29.75 9.935-57.985 27.969-81.248 4.176-5.35 8.479-10.121 13.209-14.603 24.56-23.645 57.064-37.092 91.628-37.092 34.682 0 67.192 13.435 91.82 37.146 4.674 4.428 8.977 9.199 13.134 14.524 18.054 23.287 27.989 51.522 27.989 81.272zM661.049 561.522c0-34.101-11.396-66.49-32.064-93.148-4.756-6.094-9.706-11.581-15.042-16.636-28.133-27.086-65.432-42.5-105.179-42.5-39.631 0-76.923 15.427-104.987 42.446-5.393 5.109-10.342 10.596-15.117 16.715-20.648 26.634-32.045 59.023-32.045 93.123 0 83.846 68.302 152.149 152.149 152.149 83.96 0 152.284-68.28 152.284-152.149z" />
<glyph unicode="&#xe917;" glyph-name="plus" d="M626.139 442.93c0-9.558-7.856-17.414-17.414-17.414h-74.24v-74.24c0-9.558-7.856-17.414-17.414-17.414h-4.452c-9.558 0-17.414 7.856-17.414 17.414v74.24h-74.24c-9.558 0-17.414 7.856-17.414 17.414v4.452c0 9.558 7.856 17.414 17.414 17.414h74.24v74.24c0 9.558 7.856 17.414 17.414 17.414h4.452c9.558 0 17.414-7.856 17.414-17.414v-74.24h74.24c9.558 0 17.414-7.856 17.414-17.414v-4.452zM514.844 857.6c-227.826 0-412.444-184.618-412.444-412.444s184.618-412.444 412.444-412.444c227.826 0 412.444 184.618 412.444 412.444s-184.618 412.444-412.444 412.444v0z" />
<glyph unicode="&#xe918;" glyph-name="reversed--camera" d="M514.111 960l434.479-256.373v-512.084l-434.479-256.373-434.466 256.373v512.084l434.466 256.373zM113.778 684.136v-473.101l400.333-236.232 400.346 236.232v473.101l-400.346 236.232-400.333-236.232zM514.149 501.54c47.097 0 85.089-38.218 85.089-85.593s-37.993-85.606-85.089-85.606c-47.097 0-85.089 38.231-85.089 85.606s37.993 85.593 85.089 85.593v0zM514.149 518.664c-56.292 0-102.113-46.092-102.113-102.717s45.82-102.717 102.113-102.717c56.292 0 102.113 46.092 102.113 102.717s-45.82 102.717-102.113 102.717v0zM442.879 647.060h142.541l31.637-63.674c1.394-2.882 4.52-4.835 7.711-4.808h86.965c17.948 0 32.171-14.294 32.171-32.636v-260.003c0-18.342-14.223-32.636-32.171-32.636h-395.165c-17.948 0-32.171 14.294-32.171 32.636v260.003c0 18.342 14.223 32.636 32.171 32.636h86.965c3.191-0.026 6.317 1.926 7.711 4.808l31.637 63.674zM437.565 664.171c-3.946-0.013-6.603-2.686-7.711-4.546l-31.65-63.923h-81.638c-27.104 0-49.194-22.312-49.194-49.76v-260.003c0-27.435 22.090-49.747 49.194-49.747h395.165c27.104 0 49.194 22.312 49.194 49.747v260.003c0 27.448-22.090 49.76-49.194 49.76h-81.638l-31.65 63.923c-1.472 2.791-4.572 4.625-7.711 4.546h-153.169z" />
<glyph unicode="&#xe919;" glyph-name="reversed-addcookoon" d="M613.055 655.983c0.474 0.112 0.961 0.162 1.435 0.162 3.033 0 5.816-2.122 6.503-5.23l2.209-9.973c73.69 12.793 145.384-34.386 161.809-108.114l0.225-1.298c0.462-2.309-0.599-4.818-2.684-5.991-2.084-1.223-4.718-0.874-6.453 0.736-6.478 5.954-9.948 11.758-12.831 16.426-4.955 8.125-6.428 10.584-19.471 7.651-9.062-2.022-12.481-10.11-16.875-23.24-4.206-12.619-9.086-26.91-24.913-30.442-15.764-3.557-26.261 7.377-35.422 17.062-9.536 9.96-15.926 15.826-25 13.842-9.062-2.034-12.394-10.172-16.788-23.253-4.206-12.669-8.987-26.947-24.813-30.442-15.777-3.545-26.273 7.426-35.422 17.075-9.548 10.010-16.026 15.901-25.1 13.929-13.043-2.896-13.268-5.779-14.291-15.227-0.624-5.442-1.41-12.182-4.705-20.295-0.899-2.272-3.17-3.607-5.629-3.42-2.409 0.237-4.368 1.985-4.893 4.344l-0.287 1.286c-16.438 73.778 28.52 146.869 100.65 166.515l-2.222 9.96c-0.799 3.557 1.385 7.139 4.98 7.938h-0.012zM644.346 515.479c0.499 0.125 1.011 0.187 1.51 0.187 2.983 0 5.642-2.097 6.328-5.155l46.493-208.864h18.086c14.828 0 26.848-12.020 26.848-26.848h-97.792c0 14.778 12.057 26.748 26.848 26.748h12.456l-45.769 206.006c-0.799 3.582 1.448 7.127 4.993 7.926zM623.889 464.106c0.225 0 0.449 0.012 0.686 0.012 2.446 0 4.93-0.836 6.877-2.596 4.393-3.832 4.83-10.559 1.011-14.953l-80.081-91.239c-2.034-2.322-4.905-3.595-7.926-3.595h-217.626l-62.37-63.555c-2.072-2.134-4.83-3.145-7.551-3.145-2.659 0-5.255 1.061-7.289 3.045-4.244 4.106-4.319 10.697-0.212 14.853l65.49 66.788c1.997 2.034 4.73 3.145 7.576 3.145h217.252l76.935 87.632c1.922 2.197 4.531 3.432 7.202 3.607h0.025zM331.050 387.433h195.209c2.746 0 5.080-2.184 5.080-4.98 0-2.783-2.297-5.067-5.080-5.067h-195.209c-2.733 0-4.98 2.284-4.98 5.067 0 2.746 2.197 4.98 4.98 4.98zM450.51 310.41c0 19.596 15.926 35.522 35.522 35.522 19.658 0 35.522-15.876 35.522-35.522s-15.914-35.522-35.522-35.522c-19.596 0-35.522 15.914-35.522 35.522zM464.539 310.41c0-11.87 9.686-21.505 21.493-21.505 11.87 0 21.418 9.636 21.418 21.505 0 11.845-9.548 21.493-21.418 21.493-11.807 0-21.493-9.648-21.493-21.493zM485.208 315.015c0.125 0.012 0.275 0.025 0.412 0.025 0.15 0 0.275-0.012 0.412-0.025 2.534-0.037 4.581-2.084 4.618-4.606 0.012-2.571-2.047-4.681-4.618-4.705h-0.050c-2.584 0.012-4.668 2.122-4.656 4.705 0 2.272 1.635 4.219 3.882 4.606zM514.111 960l434.479-256.373v-512.084l-434.479-256.373-434.466 256.373v512.084l434.466 256.373zM113.778 684.136v-473.101l400.333-236.232 400.346 236.232v473.101l-400.346 236.232-400.333-236.232z" />
<glyph unicode="&#xe91a;" glyph-name="reversed-bank" d="M514.111 960l434.479-256.373v-512.084l-434.479-256.373-434.466 256.373v512.084l434.466 256.373zM113.778 684.136v-473.101l400.333-236.232 400.346 236.232v473.101l-400.346 236.232-400.333-236.232zM401.367 253.912v86.317h75.531v-86.317h-75.531zM437.956 610.125c-5.563-0.606-9.732-5.369-9.611-10.956v-11.635c-7.611-1.151-14.883-3.551-21.246-7.587-9.308-5.902-16.519-16.337-16.519-28.821 0-12.799 7.332-22.991 15.683-29.342 8.338-6.339 17.901-10.169 26.13-13.477 8.023-3.236 15.95-6.896 21.076-10.799 5.115-3.89 7.248-6.799 7.248-12.132 0-5.054-1.915-7.66-6.581-10.617-4.666-2.969-12.229-5.066-20.398-5.066-12.265 0-21.707 4.921-24.955 7.926-4.375 4.096-11.235 3.866-15.332-0.509s-3.878-11.235 0.497-15.332c6.63-6.145 16.568-10.993 29.003-12.823v-11.623c-0.085-5.963 4.678-10.859 10.629-10.944 5.963-0.085 10.859 4.678 10.944 10.629v11.938c7.611 1.151 14.895 3.563 21.246 7.587 9.308 5.914 16.519 16.35 16.519 28.833 0 12.799-7.332 22.979-15.683 29.33-8.338 6.351-17.901 10.181-26.13 13.489-8.023 3.236-15.938 6.896-21.064 10.787-5.127 3.903-7.248 6.811-7.248 12.144 0 5.042 1.903 7.66 6.569 10.617s12.229 5.054 20.398 5.054c12.265 0 21.707-4.909 24.955-7.914 4.375-4.096 11.247-3.878 15.344 0.497s3.866 11.247-0.509 15.344c-6.63 6.145-16.568 10.981-29.003 12.811v11.635c0.097 5.963-4.654 10.859-10.617 10.956h-0.339c-0.339 0.012-0.667 0.012-1.006 0v0zM325.848 642.327h226.58v-388.416h-53.957v97.104c0 5.951-4.824 10.787-10.787 10.787h-97.104c-0.339 0.012-0.679 0.012-1.006 0-5.563-0.521-9.805-5.199-9.781-10.787v-97.104h-53.945v388.416zM314.043 663.901c-5.563-0.521-9.805-5.199-9.781-10.787v-410.001c0-5.951 4.836-10.787 10.799-10.787h453.147c5.963 0 10.787 4.836 10.787 10.787v269.738c0 5.963-4.824 10.787-10.787 10.787h-161.836c-5.963 0.085-10.859-4.678-10.944-10.629-0.085-5.963 4.678-10.859 10.641-10.944h151.352v-248.153h-183.421v399.202c0 5.963-4.836 10.787-10.787 10.787h-248.153c-0.339 0.024-0.679 0.024-1.018 0v0z" />
<glyph unicode="&#xe91b;" glyph-name="reversed-cb" d="M403.584 252.066l-53.621 89.006 333.296 200.791 53.621-89.006-333.296-200.791zM618.229 649.804l28.52-47.343-333.296-200.791-28.52 47.343 333.296 200.791zM615.895 679.373l-356.012-214.484c-6.278-3.782-8.3-11.932-4.518-18.211l132.342-219.664c3.782-6.278 11.932-8.3 18.211-4.518l356.012 214.484c6.278 3.782 8.3 11.932 4.518 18.211l-132.342 219.664c-3.782 6.278-11.932 8.3-18.211 4.518v0zM514.111 960l434.479-256.373v-512.084l-434.479-256.373-434.466 256.373v512.084l434.466 256.373zM113.778 684.136v-473.101l400.333-236.232 400.346 236.232v473.101l-400.346 236.232-400.333-236.232z" />
<glyph unicode="&#xe91c;" glyph-name="reversed-check" d="M514.111 960l434.479-256.373v-512.084l-434.479-256.373-434.466 256.373v512.084l434.466 256.373zM113.778 684.136v-473.101l400.333-236.232 400.346 236.232v473.101l-400.346 236.232-400.333-236.232zM679.102 613.099c-6.578 6.578-17.362 6.578-23.94 0l-212.299-212.312c-6.578-6.578-17.349-6.578-23.94 0l-52.285 52.285c-6.578 6.578-17.362 6.578-23.94 0l-32.065-32.090c-6.578-6.578-6.578-17.362 0-23.94l108.29-108.265c6.59-6.578 17.362-6.578 23.94 0l268.304 268.317c6.59 6.578 6.59 17.362 0 23.94l-32.065 32.065z" />
<glyph unicode="&#xe91d;" glyph-name="reversed-cleaning" d="M514.111 960l434.479-256.373v-512.084l-434.479-256.373-434.466 256.373v512.084l434.466 256.373zM113.778 684.136v-473.101l400.333-236.232 400.346 236.232v473.101l-400.346 236.232-400.333-236.232zM492.916 519.93l-1.507-0.881-1.676-0.49c-0.295-0.086-0.631-0.206-1.019-0.366l-9.995-4.104-6.633 8.528c-8.969 11.531-15.114 24.984-17.855 39.552-9.403 50.049 23.424 98.296 73.342 107.743 49.941 9.449 98.038-23.518 107.443-73.596 6.741-35.932-8.325-71.943-37.708-92.586l-11.6-8.15-8.187 11.574c-1.489 2.106-3.588 3.401-6.637 3.834l-4.5 0.638-3.296 3.129c-1.318 1.251-2.97 2.069-5.173 2.426l-3.945 0.639-3.035 2.6c-1.644 1.409-3.877 2.226-7.033 2.271l-3.031 0.042-2.75 1.275c-1.429 0.662-3.167 1.033-5.303 1.033-0.035 0-0.212-0.013-0.866-0.081-0.357-0.037-0.357-0.037-0.769-0.078l-1.474-0.141-1.471 0.166c-0.816 0.092-1.45 0.134-1.993 0.134-0.869 0-1.754-0.082-2.698-0.247l-2.463-0.43-2.462 0.436c-0.914 0.162-1.75 0.241-2.582 0.241-1.461 0-2.783-0.203-4.054-0.594l-1.212-0.373-1.259-0.153c-1.404-0.17-2.599-0.528-3.64-1.050l-3.434-1.723-3.835 0.241c-2.382-0.052-4.153-0.561-5.688-1.459zM496.483 549.785c2.652 1.023 5.444 1.762 8.353 2.204 3.586 0.986 7.32 1.498 11.203 1.498 1.716 0 3.4-0.105 5.076-0.308 1.695 0.203 3.399 0.308 5.13 0.308 1.195 0 2.361-0.053 3.565-0.154 1.136 0.108 1.924 0.154 3.009 0.154 5.101 0 9.945-0.84 14.419-2.489 7.092-0.561 13.551-2.797 19.027-6.539 4.765-1.247 9.115-3.329 12.932-6.155 3.673-0.929 7.094-2.348 10.21-4.205 14.678 14.654 21.62 35.829 17.655 56.97-6.507 34.644-39.731 57.417-74.199 50.895-34.477-6.525-57.184-39.899-50.676-74.539 1.25-6.644 3.521-12.945 6.709-18.76 2.441 0.599 4.974 0.975 7.589 1.119zM478.559 544.486l7.178-12.278-3.996 13.649c-0.564-0.165-1.122-0.344-1.676-0.535-0.722-0.25-1.438-0.522-2.155-0.816l5.402-13.156 11.226 8.732c-2.115 2.719-4.001 5.587-5.644 8.584-3.099-0.76-6.049-1.881-8.828-3.344-0.508-0.267-1.010-0.546-1.506-0.836zM523.532 524.327c-47.1 0-85.305-38.345-85.305-85.67s38.205-85.67 85.305-85.67c47.1 0 85.305 38.345 85.305 85.67s-38.205 85.67-85.305 85.67zM523.532 552.771c62.833 0 113.75-51.104 113.75-114.114s-50.917-114.114-113.75-114.114c-62.833 0-113.75 51.104-113.75 114.114s50.917 114.114 113.75 114.114zM439.55 454.343l-0.509-2.783c-0.060-0.328-0.123-0.628-0.188-0.912-0.047-1.255-0.092-2.522-0.14-3.951-0.021-0.625-0.121-3.657-0.149-4.46-0.122-3.565-0.223-5.883-0.373-8.268-0.115-1.817-0.255-3.576-0.431-5.384-0.007-1.409 0.156-2.783 0.476-4.040l1.714-6.735-4.26-5.491c-10.44-13.456-25.143-22.719-42.005-25.895-38.121-7.23-74.832 17.929-82.011 56.154-7.177 38.197 17.885 75.026 55.987 82.223 31.933 6.047 63.531-10.718 76.82-40.002l2.856-6.294-3.183-6.135c-0.164-0.317-0.331-0.716-0.499-1.211-0.274-3.046-1.094-6.055-2.606-10.745-0.135-0.417-0.135-0.417-0.267-0.824-0.862-2.654-1.168-3.621-1.398-4.479l0.165-0.77zM411.727 461.777c0.467 1.831 0.786 2.852 2.002 6.599 0.125 0.386 0.125 0.386 0.247 0.763 0.922 2.86 1.34 4.542 1.34 4.432v1.863l0.48 1.8c0.060 0.225 0.121 0.448 0.183 0.669-8.957 14.381-25.925 22.189-43.032 18.949-22.661-4.28-37.599-26.232-33.317-49.022s26.113-37.753 48.773-33.456c8.037 1.514 15.238 5.379 21.013 11.090-0.097 1.452-0.124 2.912-0.081 4.371l0.066 1.020c0.168 1.655 0.297 3.241 0.402 4.905 0.129 2.052 0.22 4.134 0.334 7.447 0.027 0.784 0.127 3.807 0.148 4.448 0.065 1.931 0.124 3.581 0.191 5.301l0.059 0.856c0.053 0.534 0.111 0.966 0.185 1.383 0.017 2.098 0.394 4.178 1.007 6.581zM616.372 373.639c0.628 0.731 1.041 1.202 1.206 1.382-0.001-0.012-0.001-0.012-0.743-0.715-0.145-0.234-0.241-0.389-0.55-0.592l0.087-0.075zM594.784 392.159c3.575 4.173 4.968 5.946 6.247 8.083 0.368 0.61 0.67 1.265 0.906 1.959l3.547 10.452 11.006-0.842c20.316-1.554 37.265-16.463 41.074-36.773 4.635-24.644-11.536-48.409-36.139-53.053-22.368-4.235-44.249 8.846-51.349 30.327l-3.369 10.193 8.879 6.034c0.837 0.569 1.549 1.265 2.131 2.076l1.323 1.845 1.832 1.341c1.591 1.165 2.972 2.39 4.058 3.589 1.781 1.957 3.473 4.341 5.84 8.143l0.608 0.899c0.090 0.123 0.164 0.24 0.23 0.365l0.547 0.943c0.215 0.338 0.215 0.338 0.389 0.608 0.32 0.497 0.347 0.54 0.287 0.438 0.503 0.856 0.926 1.46 1.858 2.743 0.492 0.675 0.659 0.904 0.786 1.082-0.221-0.309-0.361-0.503-0.46-0.651l-0.233 0.199zM594.343 390.453c-0.586-1.241-0.586-1.241-1.091-5.833 0.31-4.292 0.31-4.292 5.080-10.528 7.133-3.655 7.133-3.655 11.634-3.099 4.272 1.737 5.708 2.321 6.318 2.72l-21.269 18.247c-0.261-0.391-0.236-0.462-0.673-1.507zM597.083 361.239c0.935-2.83 2.554-5.267 4.621-7.166 3.786-3.478 9.078-5.152 14.437-4.138 9.16 1.729 15.204 10.612 13.466 19.853-0.878 4.681-3.622 8.581-7.387 11.010-0.329 0.212-0.665 0.413-1.009 0.602-2.076 1.143-4.414 1.86-6.892 2.050l1.085 14.181 13.468-4.57c-0.886-2.61-2.046-5.122-3.455-7.461-1.041-1.74-2.025-3.223-3.197-4.802-0.805-1.085-1.7-2.215-2.763-3.504-0.886-1.074-1.889-2.259-3.055-3.621-0.005-0.006-10.817 9.234-10.817 9.234l-10.787 9.268c0.822 0.957 1.404 1.62 1.84 2.095 0.39 0.429 0.39 0.429 1.342 1.332 0.506 0.759 0.506 0.759 6.979 3.391 4.22 0.522 4.489 0.555 10.363-2.444 0.4-0.204 0.827-0.423 1.282-0.656 4.773-6.239 4.773-6.239 5.084-10.538-0.228-2.071-0.353-3.211-0.476-3.954-0.151-0.91-0.298-1.224-0.626-1.922-0.671-1.323-0.95-1.873-1.128-2.184-0.127-0.221-0.202-0.322-0.331-0.494-0.285-0.416-0.285-0.416-0.517-0.741-0.205-0.287-0.451-0.625-0.874-1.204-0.295-0.406-0.551-0.771-0.488-0.661-0.21-0.346-0.372-0.602-0.66-1.048-0.085-0.132-0.085-0.132-0.16-0.248-0.134-0.207-0.135-0.208-0.225-0.351l-12.023 7.597 12.57-6.653c-0.106-0.201-0.214-0.4-0.325-0.598-0.538-0.965-1.124-1.897-1.759-2.797-3.085-4.927-5.598-8.444-8.678-11.828-1.315-1.451-2.75-2.853-4.283-4.195-0.752-0.658-1.528-1.302-2.326-1.929-0.557-0.438-1.124-0.869-1.701-1.292l-8.403 11.475 11.557-8.288c-0.464-0.648-0.949-1.279-1.453-1.895-2.236-2.728-4.857-5.128-7.805-7.131l-7.994 11.763 13.504 4.463zM666.318 537.427c-12.749 0-23.109-10.396-23.109-23.246 0-12.84 10.361-23.234 23.109-23.234s23.109 10.395 23.109 23.234c0 12.85-10.36 23.246-23.109 23.246zM666.318 565.871c28.481 0 51.554-23.153 51.554-51.691 0-28.529-23.076-51.679-51.554-51.679s-51.554 23.15-51.554 51.679c0 28.538 23.073 51.691 51.554 51.691zM537.963 258.796c-2.978 0-5.416-2.446-5.416-5.488 0-3.030 2.439-5.476 5.416-5.476s5.416 2.446 5.416 5.476c0 3.042-2.439 5.488-5.416 5.488zM537.963 287.241c18.708 0 33.861-15.202 33.861-33.933 0-18.722-15.156-33.921-33.861-33.921s-33.861 15.199-33.861 33.921c0 18.73 15.153 33.933 33.861 33.933zM466.341 315.592c-12.745 0-23.109-10.403-23.109-23.246 0-12.84 10.361-23.234 23.109-23.234s23.109 10.395 23.109 23.234c0 12.843-10.365 23.246-23.109 23.246zM466.341 344.036c28.477 0 51.554-23.161 51.554-51.691s-23.076-51.679-51.554-51.679c-28.478 0-51.554 23.15-51.554 51.679s23.077 51.691 51.554 51.691z" />
<glyph unicode="&#xe91e;" glyph-name="reversed-concierge" d="M514.111 960l434.479-256.373v-512.084l-434.479-256.373-434.466 256.373v512.084l434.466 256.373zM113.778 684.136v-473.101l400.333-236.232 400.346 236.232v473.101l-400.346 236.232-400.333-236.232zM365.679 511.883c-11.654-11.641-31.461-11.641-42.523 0-5.833 5.814-8.744 13.377-8.744 21.532 0 8.142 2.91 15.705 8.744 21.519 5.821 5.827 13.393 8.734 21.545 8.734 8.164 0 15.737-2.907 21.557-8.734 11.075-12.207 11.075-31.411-0.58-43.051v0zM316.744 642.219c5.821 5.814 13.406 8.734 21.557 8.734s15.724-2.92 21.557-8.734c11.642-11.641 11.642-30.844 0-42.472-11.654-11.641-31.461-11.641-42.535 0-5.821 5.814-8.731 13.377-8.731 21.519-1.172 7.576 2.331 15.139 8.152 20.953v0zM407.043 642.219c5.821 5.814 13.393 8.734 21.545 8.734 8.164 0 15.737-2.92 21.557-8.734 11.654-11.641 11.654-30.844 0-42.472-11.642-11.641-31.448-11.641-42.523 0-5.821 5.814-8.744 13.377-8.744 21.519-1.159 7.576 2.331 15.139 8.164 20.953v0zM747.83 248.304l-316.911 316.534c13.985 0.579 27.391 6.393 37.281 16.284 22.137 22.111 22.137 57.599 0 79.13-10.483 10.483-24.455 16.297-39.612 16.297-15.144 0-29.117-5.814-39.612-16.297-1.739-1.737-4.070-4.065-5.241-6.393-1.739 2.328-3.49 4.656-5.241 6.393-10.483 10.483-24.468 16.297-39.612 16.297s-29.13-5.814-39.612-16.297c-10.483-10.47-16.316-24.439-16.316-39.565s5.833-29.095 16.316-39.565c2.331-2.328 5.241-4.656 8.152-6.393-0.58-0.591-1.159-1.17-1.739-1.749-10.495-10.47-16.316-24.439-16.316-39.565s5.821-29.095 16.316-39.565c10.483-10.483 24.468-16.297 39.612-16.297s29.13 5.814 39.612 16.297c8.152 8.142 13.393 18.612 15.724 29.674l189.33-189.105-30.301-30.253 91.471-91.35 30.289 30.253 30.289-30.253 36.122 35.488zM707.051 511.883c-11.642-11.641-31.461-11.641-42.523 0-11.654 11.641-11.654 30.844 0 42.472 5.821 5.827 13.393 8.734 21.557 8.734 8.152 0 15.724-2.907 21.545-8.734 5.833-5.814 8.744-13.377 8.744-21.519-0.58-7.576-4.082-15.139-9.324-20.953zM579.47 642.219c5.833 5.814 13.406 8.734 21.557 8.734s15.724-2.92 21.557-8.734c5.821-5.814 8.731-13.377 8.731-21.532 0-8.142-2.91-15.705-8.731-21.532-11.654-11.628-31.461-11.628-42.523 0-12.247 12.219-12.247 31.423-0.592 43.064zM670.349 642.219c5.821 5.814 13.393 8.734 21.557 8.734 8.152 0 15.724-2.92 21.557-8.734 5.821-5.814 8.731-13.377 8.731-21.532 0-8.142-2.91-15.705-8.731-21.532-11.654-11.628-31.461-11.628-42.535 0-12.814 12.219-12.814 31.423-0.58 43.064zM723.367 574.729c2.91 1.737 5.241 4.065 8.152 6.393 10.483 10.47 16.316 24.439 16.316 39.565s-5.833 29.095-16.316 39.565c-10.483 10.483-24.468 16.297-39.612 16.297s-29.13-5.814-39.612-16.297c-1.751-1.737-4.082-4.065-5.241-6.393-1.751 2.328-3.503 4.656-5.241 6.393-10.495 10.483-24.481 16.297-39.612 16.297-15.157 0-29.13-5.814-39.625-16.297-22.124-22.111-22.124-57.599 0-79.13 9.903-9.891 23.309-15.705 37.294-16.284l-318.070-316.534 36.689-36.658 30.301 30.253 30.289-30.253 91.459 91.35-30.289 30.253 189.33 189.105c1.739-11.049 6.993-20.94 15.724-29.674 10.483-10.47 24.468-16.284 39.612-16.284s29.13 5.814 39.612 16.284c10.483 10.47 16.316 24.439 16.316 39.565 0 15.139-5.833 29.095-16.316 39.565 0 1.749-0.58 2.328-1.159 2.92z" />
<glyph unicode="&#xe91f;" glyph-name="reversed-email" d="M514.111 960l434.479-256.373v-512.084l-434.479-256.373-434.466 256.373v512.084l434.466 256.373zM113.778 684.136v-473.101l400.333-236.232 400.346 236.232v473.101l-400.346 236.232-400.333-236.232zM481.324 464.866c-1.485-18.935-0.112-33.276 4.131-43.037 4.256-9.761 11.146-14.641 20.682-14.641 8.35 0 15.914 1.935 22.692 5.816 6.79 3.869 12.856 11.021 18.223 21.456v1.448c0 0.374 0.075 0.861 0.225 1.46l9.835 110.886c-3.432 1.048-6.852 1.86-10.285 2.459s-7.002 0.899-10.734 0.899c-16.538 0-29.132-7.189-37.782-21.581-8.637-14.379-14.304-36.097-16.987-65.166zM707.128 486.546c-1.348-32.49-10.884-60.511-28.62-84.051-17.736-23.553-44.272-35.323-79.595-35.323-11.62 0-21.681 3.27-30.18 9.835-8.487 6.553-14.529 15.727-18.098 27.497-6.565-12.219-14.728-21.393-24.489-27.497-9.761-6.116-21.194-9.174-34.312-9.174-21.019 0-37.145 8.874-48.404 26.611s-15.39 41.214-12.407 70.421c3.72 37.857 14.416 68.187 32.078 90.991s39.092 34.2 64.28 34.2c17.287 0 31.179-1.935 41.689-5.804 10.51-3.882 22.030-9.835 34.549-17.886l-0.674-0.899h1.111l-11.396-128.099c-1.048-14.167 0-23.852 3.133-29.070 3.12-5.217 7.377-7.826 12.744-7.826 17.137 0 30.879 8.126 41.239 24.377 10.36 16.239 16.139 36.808 17.324 61.697 2.396 52.622-7.776 93.674-30.505 123.193-22.729 29.506-57.877 44.26-105.42 44.26-45.158 0-81.23-15.877-108.203-47.617s-41.576-74.303-43.823-127.649c-2.534-52.922 8.35-94.648 32.652-125.203 24.289-30.555 59.238-45.832 104.845-45.832 12.669 0 25.75 1.498 39.23 4.468 13.493 2.983 25.088 6.715 34.774 11.184l8.487-32.864c-9.985-6.266-22.692-11.146-38.119-14.641-15.415-3.507-30.505-5.255-45.271-5.255-59.013 0-104.508 18.56-136.486 55.668-31.965 37.108-46.681 87.933-44.147 152.475 2.684 63.631 21.718 114.569 57.116 152.8s82.017 57.34 139.844 57.34c57.677 0 101.875-18.073 132.567-54.208 30.705-36.147 44.871-85.511 42.487-148.119z" />
<glyph unicode="&#xe920;" glyph-name="reversed-home" d="M514.111 960l434.479-256.373v-512.084l-434.479-256.373-434.466 256.373v512.084l434.466 256.373zM113.778 684.136v-473.101l400.333-236.232 400.346 236.232v473.101l-400.346 236.232-400.333-236.232zM302.023 505.653l7.706-10.894 201.381 145.569 201.405-145.569 7.706 10.894-209.111 151.125zM307.075 478.808l-20.849 29.473 224.892 162.526 224.892-162.526-20.849-29.473-204.043 147.485-204.043-147.485zM504.453 647.547h13.329l-6.664-4.816-6.664 4.816zM511.118 654.371l-208.058-150.387 15.954-2.65-7.706 10.894-2.624-15.792 202.434 146.296 202.434-146.296-2.624 15.792-7.706-10.894 15.954 2.65-208.058 150.387zM645.31 452.044v-210.304h-268.4v210.304h-13.232v-223.68h294.865v223.68zM633.932 463.427h35.988v-246.448h-317.621v246.448h35.988v-210.304h245.645v210.304zM375.055 452.049l-11.378-11.378h13.232l-11.378 11.378v-221.682h291.156v221.682l-11.378-11.378h13.232l-11.378 11.378v-223.693l11.378 11.378h-294.865l11.378-11.378v223.693z" />
<glyph unicode="&#xe921;" glyph-name="reversed-logo" d="M514.111 962.75l434.479-256.373v-512.084l-434.479-256.373-434.466 256.373v512.084l434.466 256.373zM113.778 686.885v-473.101l400.333-236.232 400.346 236.232v473.101l-400.346 236.232-400.333-236.232zM714.425 285.058c-45.282-44.364-103.771-64.984-167.292-64.984-163.519 0-232.699 111.848-233.328 225.57-0.629 114.335 74.212 230.569 233.328 230.569 59.747 0 116.35-22.507 161.632-66.871l-55.345-53.1c-28.93 28.106-67.923 41.24-106.287 41.24-106.287 0-152.198-78.731-151.569-151.838 0.629-72.495 42.766-148.089 151.569-148.089 38.364 0 81.759 15.609 110.689 44.364l56.603-56.861z" />
<glyph unicode="&#xe922;" glyph-name="reversed-meeting" d="M514.111 960l434.479-256.373v-512.084l-434.479-256.373-434.466 256.373v512.084l434.466 256.373zM113.778 684.136v-473.101l400.333-236.232 400.346 236.232v473.101l-400.346 236.232-400.333-236.232zM591.815 388.593c-7.635-0.8-13.417-7.248-13.368-14.919v-69.653c-0.121-8.241 6.472-15.016 14.713-15.138 8.241-0.109 15.016 6.472 15.138 14.713v31.984l98.558-106.339c5.296-6.314 14.701-7.139 21.028-1.854 6.314 5.296 7.151 14.713 1.854 21.028-0.351 0.424-0.727 0.824-1.115 1.2l-101.055 109.127h35.45c8.241-0.109 15.016 6.472 15.138 14.713 0.109 8.241-6.472 15.016-14.713 15.138h-70.077c-0.509 0.024-1.030 0.024-1.551 0zM353.030 388.593c-8.241-0.424-14.58-7.454-14.144-15.707 0.424-8.241 7.454-14.568 15.695-14.144h35.45l-101.055-109.127c-5.951-5.708-6.157-15.15-0.448-21.101 5.696-5.963 15.15-6.157 21.101-0.461 0.388 0.376 0.764 0.776 1.115 1.188l98.558 106.497v-31.718c-0.109-8.241 6.472-15.016 14.713-15.138 8.241-0.109 15.016 6.472 15.138 14.713v70.077c0 8.241-6.678 14.919-14.919 14.919h-69.653c-0.521 0.024-1.030 0.024-1.551 0zM508.794 493.066c24.906 0 44.783-19.876 44.783-44.771 0-24.906-19.876-44.783-44.783-44.783-24.894 0-44.771 19.876-44.771 44.783 0 24.894 19.876 44.771 44.771 44.771zM508.794 522.905c-41.026 0-74.61-33.584-74.61-74.61 0-41.038 33.584-74.622 74.61-74.622 41.038 0 74.622 33.584 74.622 74.622 0 41.026-33.584 74.61-74.622 74.61zM716.806 672.306c-3.818-0.267-7.369-2-9.95-4.824l-98.558-106.485v31.56c0.17 8.241-6.375 15.065-14.616 15.235h-0.473c-8.241-0.085-14.847-6.836-14.762-15.077v-69.81c0-8.241 6.678-14.919 14.919-14.919h69.653c8.241-0.121 15.016 6.472 15.138 14.713 0.109 8.241-6.472 15.016-14.713 15.138h-36.032l101.213 109.284c5.684 5.975 5.454 15.416-0.521 21.101-3.030 2.885-7.126 4.363-11.296 4.084zM298.77 672.306c-8.217-0.558-14.435-7.684-13.877-15.901 0.242-3.478 1.685-6.763 4.084-9.284l101.213-109.284h-35.608c-8.241 0.109-15.016-6.472-15.138-14.713-0.109-8.241 6.472-15.016 14.713-15.138h70.077c8.241 0 14.919 6.678 14.919 14.919v69.653c0.17 8.241-6.375 15.065-14.616 15.235h-0.461c-8.241-0.085-14.859-6.836-14.774-15.077v-31.718l-98.558 106.485c-3.054 3.345-7.454 5.115-11.974 4.824z" />
<glyph unicode="&#xe923;" glyph-name="reversed-minus" d="M514.844 15.644c-237.212 0-429.511 192.299-429.511 429.511s192.299 429.511 429.511 429.511c237.212 0 429.511-192.299 429.511-429.511s-192.299-429.511-429.511-429.511zM514.844 49.778c218.361 0 395.378 177.017 395.378 395.378s-177.017 395.378-395.378 395.378c-218.361 0-395.378-177.017-395.378-395.378s177.017-395.378 395.378-395.378zM422.070 464.574h185.576c9.531 0 17.259-7.72 17.259-17.262v-4.306c0-9.542-7.728-17.272-17.259-17.272h-185.576c-9.531 0-17.279 7.729-17.279 17.272v4.306c0 9.542 7.749 17.262 17.279 17.262z" />
<glyph unicode="&#xe924;" glyph-name="reversed-notifications" d="M514.111 960l434.479-256.373v-512.084l-434.479-256.373-434.466 256.373v512.084l434.466 256.373zM113.778 684.136v-473.101l400.333-236.232 400.346 236.232v473.101l-400.346 236.232-400.333-236.232zM349.721 365.030h330.903c-7.858 78.523-70.677 141.329-149.188 149.188-91.977 8.965-172.738-58.33-181.716-149.188zM713.153 349.326v-15.705h-397.079v15.705c0 109.932 88.607 198.54 198.54 198.54 109.92 0 198.54-88.607 198.54-198.54zM316.071 241.645h397.079v32.528h-397.079zM468.616 606.196h90.858v32.528h-90.858z" />
<glyph unicode="&#xe925;" d="M995.556 448c0-267.060-216.495-483.556-483.556-483.556s-483.556 216.495-483.556 483.556c0 267.060 216.495 483.556 483.556 483.556s483.556-216.495 483.556-483.556z" />
<glyph unicode="&#xe926;" d="M759.828 581.797c0 0 45.952-361.37-91.905-457.732-137.84-96.362-291.003 32.115-313.98 128.477-22.976 96.379-76.582 377.444-38.299 449.711 38.299 72.267 467.159 240.913 444.183-120.457z" />
<glyph unicode="&#xe927;" d="M765.302 515.751c8.263 0-229.865 176.771-352.761 32.997l-69.132-135.78-51.837 19.976c0 0-78.735 251.6-1.927 291.536s161.308 175.716 261.16 119.808c99.852-55.924 291.305-96.915 214.497-328.538z" />
<glyph unicode="&#xe928;" glyph-name="reversed-plus" d="M514.844 15.644c-237.212 0-429.511 192.299-429.511 429.511s192.299 429.511 429.511 429.511c237.212 0 429.511-192.299 429.511-429.511s-192.299-429.511-429.511-429.511zM514.844 49.778c218.361 0 395.378 177.017 395.378 395.378s-177.017 395.378-395.378 395.378c-218.361 0-395.378-177.017-395.378-395.378s177.017-395.378 395.378-395.378zM422.070 464.574h185.576c9.531 0 17.259-7.72 17.259-17.262v-4.306c0-9.542-7.728-17.272-17.259-17.272h-185.576c-9.531 0-17.279 7.729-17.279 17.272v4.306c0 9.542 7.749 17.262 17.279 17.262zM512.673 555.202h4.33c9.531 0 17.259-7.72 17.259-17.262v-185.572c0-9.533-7.728-17.262-17.259-17.262h-4.33c-9.531 0-17.259 7.729-17.259 17.262v185.572c0 9.542 7.728 17.262 17.259 17.262z" />
<glyph unicode="&#xe929;" glyph-name="reversed-sad" d="M514.844 56.889c-214.099 0-388.267 174.182-388.267 388.267 0 48.727 8.945 96.036 26.447 140.881 10.304-4.137 21.519-6.481 33.286-6.481 49.414 0 89.6 40.186 89.6 89.6 0 16.173-9.184 39.902-21.205 64.094 71.486 64.631 163.386 100.173 260.139 100.173 214.099 0 388.267-174.182 388.267-388.267s-174.167-388.267-388.267-388.267zM186.311 791.624c26.895-41.425 59.733-99.516 59.733-122.468 0-32.943-26.79-59.733-59.733-59.733s-59.733 26.79-59.733 59.733c0 22.953 32.838 81.043 59.733 122.468zM240.235 760.458c-18.353 32.465-37.677 60.779-41.634 66.513-5.6 8.079-18.98 8.079-24.58 0-7.915-11.454-77.31-113.21-77.31-157.815 0-26.775 11.857-50.773 30.539-67.2-20.19-49.818-30.539-102.487-30.539-156.8 0-230.556 187.578-418.133 418.133-418.133s418.133 187.578 418.133 418.133c0 230.556-187.578 418.133-418.133 418.133-101.696 0-198.449-36.393-274.609-102.831zM514.844 295.822c-99.366 0-118.227-68.006-118.989-70.903-2.061-7.915 2.658-15.934 10.558-18.084 7.9-2.195 16.068 2.554 18.308 10.409 0.567 1.986 14.694 48.713 90.123 48.713s89.555-46.726 90.078-48.563c1.747-6.72 7.81-11.17 14.441-11.17 1.254 0 2.524 0.164 3.778 0.493 7.974 2.076 12.753 10.244 10.692 18.219-0.762 2.882-19.622 70.889-118.989 70.889zM380.444 385.422c-79.938 0-128.009-47.159-130.025-49.175-5.824-5.824-5.824-15.232-0.015-21.056 2.897-2.942 6.75-4.405 10.588-4.405 3.793 0 7.601 1.434 10.513 4.316 0.403 0.388 41.813 40.454 108.939 40.454 8.258 0 14.933 6.69 14.933 14.933s-6.675 14.933-14.933 14.933zM649.244 385.422c-8.258 0-14.933-6.69-14.933-14.933s6.675-14.933 14.933-14.933c67.021 0 108.416-39.947 108.939-40.454 2.912-2.897 6.72-4.346 10.528-4.346 3.823 0 7.646 1.463 10.558 4.375 5.839 5.839 5.839 15.277 0 21.116-2.016 2.016-50.086 49.175-130.025 49.175z" />
<glyph unicode="&#xe92a;" glyph-name="reversed-success" d="M635.819 607.532c1.023-0.562 2.134-0.811 3.22-0.811 2.434 0 4.793 1.298 6.016 3.582l19.484 36.247c1.797 3.32 0.537 7.452-2.783 9.236-3.295 1.797-7.439 0.537-9.236-2.771l-19.484-36.259c-1.785-3.308-0.537-7.439 2.783-9.224zM534.329 604.23c1.323-1.897 3.445-2.921 5.604-2.921 1.336 0 2.696 0.399 3.882 1.223 3.095 2.159 3.844 6.403 1.697 9.498l-23.528 33.788c-2.147 3.083-6.403 3.844-9.498 1.697-3.095-2.159-3.857-6.416-1.697-9.511l23.54-33.775zM583.26 613.002c3.769 0 6.827 3.046 6.827 6.827v46.694c0 3.769-3.058 6.827-6.827 6.827s-6.827-3.058-6.827-6.827v-46.694c0-3.769 3.058-6.827 6.827-6.827zM684.074 486.287l-56.978-56.978c-1.822-1.81-2.459-4.506-1.648-6.952 13.131-39.779 21.593-69.772 21.593-76.425 0-10.847-4.618-21.269-12.918-28.832l-80.044-80.044c-7.327-8.076-17.749-12.694-28.595-12.694-10.172 0-19.783 3.944-27.073 11.084-0.374 0.362-0.774 0.674-1.211 0.936l-39.192 39.155c-0.337 0.474-0.724 0.911-1.173 1.286 1.96 0.424 3.882 1.086 5.779 1.872 0.537 0.225 1.061 0.499 1.61 0.749 1.41 0.662 2.796 1.423 4.131 2.272 0.524 0.337 1.036 0.662 1.56 1.011 1.747 1.248 3.432 2.584 4.968 4.119 6.228 6.216 10.035 14.192 10.709 22.442 0.15 1.885 0.137 3.744-0.025 5.542 0.849-0.075 1.697-0.075 2.559-0.087 0.162 0 0.337-0.050 0.512-0.050 0.075 0 0.15 0.025 0.225 0.025 1.91 0.012 3.807 0.225 5.679 0.562 0.474 0.087 0.936 0.162 1.398 0.275 1.71 0.374 3.383 0.899 5.018 1.548 0.537 0.2 1.048 0.437 1.573 0.674 1.635 0.736 3.22 1.573 4.743 2.571 0.325 0.212 0.637 0.449 0.961 0.674 1.648 1.161 3.245 2.446 4.706 3.894 6.328 6.328 9.96 14.616 10.235 23.328 0.062 1.747-0.012 3.47-0.225 5.155 1.348-0.162 2.709-0.237 4.069-0.25 0.050 0 0.112-0.012 0.162-0.012 0.162 0 0.325 0.050 0.487 0.050 1.735 0.025 3.457 0.2 5.155 0.499 0.487 0.075 0.974 0.137 1.448 0.237 1.61 0.349 3.183 0.849 4.731 1.423 0.662 0.237 1.286 0.487 1.922 0.774 1.523 0.674 2.996 1.46 4.418 2.372 0.424 0.262 0.799 0.562 1.223 0.836 1.56 1.098 3.070 2.284 4.443 3.657 13.168 13.168 13.181 34.586 0.025 47.742l-184.128 184.166c-0.337 0.449-0.749 0.874-1.261 1.261-7.851 7.851-7.876 20.607-0.037 28.446 7.476 7.501 20.195 7.888 28.283 0.162 0.325-0.387 0.686-0.749 1.073-1.048l73.367-73.367c0.325-0.412 0.699-0.786 1.111-1.111l92.938-92.95c0.474-0.474 1.036-0.886 1.648-1.211 9.661-5.080 21.893-5.080 31.553 0 0.612 0.325 1.173 0.736 1.648 1.211l58.801 58.801c7.576 7.601 20.819 7.614 28.421 0.025 3.794-3.807 5.891-8.862 5.891-14.241 0-5.367-2.097-10.41-6.266-14.578v0zM346.584 386.696c-0.325 0.424-0.711 0.811-1.123 1.148-5.954 6.316-4.606 17.587 3.095 25.3 4.344 4.331 9.973 6.827 15.452 6.827 2.721 0 6.603-0.649 9.923-3.72 0.287-0.362 0.624-0.674 0.986-0.961l88.482-88.507c0.137-0.15 0.275-0.3 0.424-0.449l4.319-4.319c2.858-2.871 4.231-6.977 3.857-11.595-0.424-5.030-2.821-9.973-6.765-13.917-4.88-4.893-11.62-7.389-17.462-6.665-0.849 0.1-1.685 0.287-2.509 0.524-2.147 0.624-4.019 1.71-5.542 3.233l-93.138 93.1zM373.045 464.843c7.601 7.589 20.308 8.15 27.285 1.148l104.171-104.171c3.42-3.407 5.217-8.088 5.055-13.156-0.162-5.23-2.384-10.235-6.253-14.104-5.804-5.804-14.741-7.402-21.693-4.668-2.059 0.811-3.969 1.96-5.554 3.557l-2.272 2.222c-0.112 0.137-0.225 0.262-0.349 0.387l-89.356 89.343c-0.050 0.050-0.1 0.1-0.15 0.15s-0.1 0.1-0.137 0.15c-0.025 0.012-0.037 0.012-0.050 0.037l-11.271 11.258c-0.075 0.087-0.474 0.487-0.549 0.574-3.432 3.432-5.255 8.113-5.092 13.193 0.15 5.23 2.359 10.222 6.216 14.079v0zM402.015 511.999c7.614 7.614 20.869 7.614 28.483 0l110.924-110.911c7.813-7.826 7.813-20.607-0.037-28.458-6.303-6.291-16.538-7.252-24.164-3.046-1.523 0.836-2.983 1.797-4.231 3.058l-110.163 110.163c-0.3 0.362-0.624 0.686-0.974 0.974-7.614 7.863-7.564 20.47 0.162 28.221v0zM670.244 534.628c-9.024 0-17.499-3.52-23.877-9.91l-57.989-57.989c-5.33-2.484-11.833-2.471-17.137 0l-92.663 92.651c-0.075 0.087-0.15 0.162-0.237 0.225-0.037 0.050-0.087 0.1-0.125 0.137l-74.141 74.141c-0.087 0.1-0.175 0.175-0.262 0.262-0.037 0.037-0.062 0.062-0.1 0.1-6.366 6.391-14.841 9.91-23.865 9.91-9.012 0-17.499-3.52-23.89-9.91-13.156-13.156-13.143-34.574-0.037-47.667 0.062-0.050 0.137-0.137 0.225-0.212 0.075-0.087 0.15-0.15 0.212-0.225l55.056-55.056c-7.189-1.036-13.842-4.206-19.072-9.436-9.985-10.035-12.282-24.851-7.027-37.145-8.188-0.599-15.914-3.994-21.93-10.010-6.316-6.316-9.935-14.591-10.21-23.303-0.2-6.565 1.535-12.769 5.055-18.186-7.065-1.286-13.904-4.793-19.334-10.197-13.118-13.156-14.391-33.263-3.070-44.622 0.087-0.087 0.162-0.175 0.25-0.262 0.075-0.087 0.162-0.162 0.237-0.25l93.749-93.699c2.384-2.384 5.242-4.069 8.3-5.38 1.61-3.395 3.607-6.59 6.378-9.336 0.836-0.836 1.697-1.623 2.609-2.347 0.062-0.075 0.112-0.125 0.175-0.187l41.139-41.102c0.424-0.424 0.899-0.774 1.398-1.061 9.698-8.924 22.205-13.83 35.41-13.83 14.678 0 28.783 6.266 38.468 16.925l79.608 79.583c10.896 9.91 17.15 24.015 17.15 38.705 0 10.847-12.581 51.062-20.969 76.699l53.821 53.846c0.062 0.050 0.474 0.462 0.537 0.512 6.391 6.378 9.91 14.841 9.91 23.865 0 9.012-3.52 17.499-9.898 23.89-6.378 6.366-14.841 9.873-23.852 9.873v0zM514.111 960l434.479-256.373v-512.084l-434.479-256.373-434.466 256.373v512.084l434.466 256.373zM113.778 684.136v-473.101l400.333-236.232 400.346 236.232v473.101l-400.346 236.232-400.333-236.232z" />
<glyph unicode="&#xe92b;" glyph-name="reversed-user" d="M587.769 491.476c15.026 17.971 23.389 40.514 23.389 64.337 0 55.398-45.087 100.485-100.485 100.485s-100.485-45.087-100.485-100.485c0-23.826 8.366-46.381 23.379-64.337 3.982-4.742 8.327-9.085 12.967-12.951 17.96-14.921 40.412-23.21 64.139-23.21 23.735 0 46.195 8.294 64.138 23.222 4.646 3.861 8.983 8.195 12.958 12.939zM609.582 473.22c-5.070-6.053-10.619-11.597-16.585-16.556-22.994-19.13-51.873-29.794-82.323-29.794-30.439 0-59.302 10.656-82.332 29.789-5.962 4.968-11.501 10.504-16.577 16.548-19.266 23.043-30.021 52.037-30.021 82.605 0 71.107 57.822 128.929 128.929 128.929s128.929-57.822 128.929-128.929c0-30.566-10.752-59.547-30.021-82.592zM510.674 703.887c81.656 0 148.075-66.419 148.075-148.075 0-33.147-11.091-64.695-31.135-90.528-4.536-5.848-9.411-11.28-14.623-16.27-27.432-26.297-63.74-41.277-102.317-41.277-38.574 0-74.883 14.978-102.311 41.271-5.243 5.033-10.124 10.467-14.631 16.278-20.039 25.846-31.133 57.392-31.133 90.526 0 81.656 66.419 148.075 148.075 148.075zM510.674 675.442c-65.946 0-119.63-53.684-119.63-119.63 0-26.737 8.945-52.173 25.166-73.095 3.661-4.721 7.615-9.123 11.844-13.182 22.191-21.272 51.477-33.353 82.62-33.353 31.145 0 60.431 12.082 82.64 33.373 4.194 4.015 8.134 8.404 11.825 13.164 16.224 20.909 25.165 46.343 25.165 73.093 0 65.946-53.684 119.63-119.63 119.63zM612.937 437.486l-15.050 9.268 12.273 12.718c3.911 4.053 7.197 7.785 10.163 11.609 0.715 1.030 0.963 1.379 1.283 1.803l7.899 10.466 11.072-7.023c69.997-44.403 113.377-121.279 113.377-205.441 0-6.324-2.517-12.394-6.97-16.815-36.73-36.743-134.737-55.175-241.64-55.175-34.296 0-72.799 2.21-109.828 7.92-55.238 8.517-97.264 23.365-121.147 47.254-4.462 4.462-6.972 10.514-6.972 16.817 0 84.154 43.385 161.033 113.376 205.441l11.072 7.025 7.899-10.467c0.351-0.466 0.599-0.818 1.002-1.405 3.213-4.194 6.486-7.905 10.444-12.006l12.271-12.716-15.046-9.268c-54.482-33.562-89.568-91.403-93.13-155.705 30.531-21.063 103.533-35.298 190.059-35.298 89.293 0 169.458 14.928 200.713 35.476-3.61 64.232-38.685 122.005-93.12 155.526zM514.111 960l434.479-256.373v-512.084l-434.479-256.373-434.466 256.373v512.084l434.466 256.373zM113.778 684.136v-473.101l400.333-236.232 400.346 236.232v473.101l-400.346 236.232-400.333-236.232z" />
<glyph unicode="&#xe92c;" glyph-name="service-chef" d="M534.716 251.963h196.744v-65.581h-196.744v65.581zM288.791 251.963h65.581v-65.581h-65.581v65.581zM469.135 251.963h32.791v-65.581h-32.791v65.581zM387.162 251.963h49.182v-65.581h-49.182v65.581zM288.791 539.141c0 58.855 47.877 106.733 106.716 106.733 15.527 0 30.639-3.397 44.921-10.038l13.494-6.26 7.539 12.774c25.031 42.38 70.977 68.682 119.913 68.682 74.857 0 135.948-59.398 139.015-133.492-1.542-49.758-29.462-94.467-74.010-117.321-19.364-9.936-40.296-14.968-62.218-14.968-30.952 0-60.151 10.131-84.42 29.25l-20.296-25.76c30.105-23.727 66.318-36.281 104.716-36.281 26.793 0 62.218 3.676 98.109 32.791v-160.488h-344.297v163.978l-14.638 12.020c-22.278 20.491-34.544 48.309-34.544 78.381zM715.068 471.917c42.524 54.12 37.771 96.144 37.771 108.842 0 89.223-79.956 163.064-171.458 163.064-55.747 0-108.325-27.59-140.404-72.841-14.655 5.099-29.885 7.692-45.463 7.692-76.915-0.008-139.515-62.625-139.515-139.532 0-36.314 10.699-79.719 49.182-106.834v-147.553h-49.182v-131.162h508.25v131.162h-49.182v187.163z" />
<glyph unicode="&#xe92d;" glyph-name="service-concierge" d="M347.113 522.195c-12.836-12.852-34.65-12.852-46.833 0-6.425 6.419-9.63 14.769-9.63 23.773 0 8.99 3.205 17.34 9.63 23.759 6.411 6.433 14.751 9.643 23.729 9.643 8.992 0 17.332-3.21 23.743-9.643 12.197-13.477 12.197-34.68-0.638-47.532v0zM293.217 666.097c6.411 6.419 14.765 9.643 23.743 9.643s17.318-3.223 23.743-9.643c12.822-12.852 12.822-34.055 0-46.893-12.836-12.852-34.65-12.852-46.847 0-6.411 6.419-9.616 14.769-9.616 23.759-1.291 8.364 2.567 16.715 8.978 23.134v0zM392.669 666.097c6.411 6.419 14.751 9.643 23.729 9.643 8.992 0 17.332-3.223 23.743-9.643 12.836-12.852 12.836-34.055 0-46.893-12.822-12.852-34.636-12.852-46.833 0-6.411 6.419-9.63 14.769-9.63 23.759-1.277 8.364 2.567 16.715 8.992 23.134v0zM768 231.182l-349.035 349.48c15.403 0.639 30.167 7.058 41.060 17.979 24.381 24.412 24.381 63.594 0 87.367-11.545 11.574-26.934 17.993-43.628 17.993-16.68 0-32.069-6.419-43.628-17.993-1.915-1.917-4.482-4.488-5.773-7.058-1.915 2.57-3.844 5.141-5.773 7.058-11.545 11.574-26.948 17.993-43.628 17.993s-32.082-6.419-43.628-17.993c-11.545-11.56-17.97-26.982-17.97-43.683s6.425-32.123 17.97-43.683c2.567-2.57 5.773-5.141 8.978-7.058-0.638-0.653-1.277-1.292-1.915-1.931-11.559-11.56-17.97-26.982-17.97-43.683s6.411-32.123 17.97-43.683c11.545-11.574 26.948-17.993 43.628-17.993s32.082 6.419 43.628 17.993c8.978 8.99 14.751 20.549 17.318 32.762l208.522-208.788-33.373-33.402 100.743-100.858 33.359 33.402 33.359-33.402 39.784 39.182zM723.194 522.653c-12.79-12.82-34.563-12.82-46.717 0-12.804 12.82-12.804 33.969 0 46.775 6.395 6.417 14.714 9.618 23.684 9.618 8.956 0 17.275-3.201 23.67-9.618 6.409-6.403 9.606-14.732 9.606-23.699-0.637-8.343-4.485-16.673-10.243-23.076zM583.030 666.192c6.409 6.403 14.728 9.618 23.684 9.618s17.275-3.215 23.684-9.618c6.395-6.403 9.592-14.732 9.592-23.713 0-8.967-3.197-17.296-9.592-23.713-12.804-12.806-34.563-12.806-46.717 0-13.454 13.457-13.454 34.606-0.651 47.426zM682.872 666.192c6.395 6.403 14.714 9.618 23.684 9.618 8.956 0 17.275-3.215 23.684-9.618 6.395-6.403 9.592-14.732 9.592-23.713 0-8.967-3.197-17.296-9.592-23.713-12.804-12.806-34.563-12.806-46.73 0-14.077 13.457-14.077 34.606-0.637 47.426zM741.119 591.865c3.197 1.913 5.758 4.477 8.956 7.040 11.517 11.531 17.925 26.915 17.925 43.573s-6.409 32.042-17.925 43.573c-11.517 11.545-26.881 17.948-43.519 17.948s-32.003-6.403-43.519-17.948c-1.924-1.913-4.485-4.477-5.758-7.040-1.924 2.564-3.848 5.128-5.758 7.040-11.53 11.545-26.895 17.948-43.519 17.948-16.652 0-32.003-6.403-43.533-17.948-24.306-24.351-24.306-63.434 0-87.147 10.88-10.893 25.608-17.296 40.972-17.934l-349.44-348.6 40.308-40.372 33.29 33.317 33.276-33.317 100.479 100.604-33.276 33.317 208.003 208.262c1.91-12.168 7.682-23.062 17.275-32.68 11.517-11.531 26.881-17.934 43.519-17.934s32.003 6.403 43.519 17.934c11.517 11.531 17.925 26.915 17.925 43.573 0 16.673-6.409 32.042-17.925 43.573 0 1.926-0.637 2.564-1.273 3.215z" />
<glyph unicode="&#xe92e;" glyph-name="service-food" d="M820.494 291.979c-2.446 4.129-7.015 6.521-11.801 6.179h-38.183c-1.701 88.827-70.207 162.026-158.726 169.601 4.383 7.795 2.575 17.607-4.296 23.329s-16.849 5.722-23.721 0c-6.872-5.722-8.679-15.534-4.296-23.329-87.933-8.318-155.593-81.351-157.182-169.662h-17.609c1.786 3.055 2.724 6.532 2.719 10.071v185.356c0 0.494 0 0.989 0 1.483s0 1.545 0 2.286c0.065 18.832-11.157 35.871-28.483 43.25l-1.977 96.817c-0.017 1.019-0.227 2.025-0.618 2.966 0.885 1.497 1.355 3.204 1.359 4.943v3.398c0 5.426-4.398 9.824-9.824 9.824h-14.458c-2.616 0.016-5.131-1.011-6.986-2.855s-2.899-4.352-2.899-6.968v-3.46c0.005-1.739 0.474-3.446 1.359-4.943-0.391-0.941-0.6-1.947-0.618-2.966l-2.039-96.756c-17.326-7.379-28.548-24.418-28.483-43.25 0-0.741 0-1.545 0-2.286s0-0.989 0-1.483v-185.356c-0.006-3.539 0.933-7.016 2.719-10.071h-94.099c-4.786 0.342-9.355-2.050-11.801-6.179-1.282-2.749-0.822-5.995 1.174-8.279l26.197-31.325c8.875-8.61 20.959-13.094 33.302-12.357h488.598c12.342-0.73 24.424 3.753 33.302 12.357l26.197 31.387c1.996 2.284 2.456 5.53 1.174 8.279zM588.275 477.811c-0.041 3.839 2.89 7.057 6.716 7.374s7.247-2.375 7.838-6.168c0.591-3.793-1.848-7.399-5.589-8.261h-3.395c-3.252 0.801-5.546 3.706-5.57 7.056zM592.982 453.389c1.786-0.301 3.61-0.301 5.396 0 85.065-0.722 154.448-68.359 157.336-153.378h-318.569c2.702 84.565 71.242 152.156 155.837 153.678v-0.3zM353.521 648.665h14.149v-3.213h-14.149v3.213zM324.93 313.588v179.33c0 0.299 0 0.598 0 0.897v0.717c0 0.658 0 1.315 0 2.032 0.017 15.184 9.595 28.712 23.911 33.774l3.168 1.076 2.092 98.631h12.374l2.152-98.512 3.168-1.076c14.316-5.061 23.893-18.589 23.911-33.774 0-0.658 0-1.375 0-2.032v-0.717c0-0.299 0-0.598 0-0.897v-179.33c0.106-5.225-3.929-9.603-9.146-9.923h-51.886c-5.381 0-9.744 4.362-9.744 9.744v0.060zM780.216 259.364c-6.886-6.139-15.936-9.279-25.145-8.725h-479.139c-9.274-0.653-18.421 2.447-25.387 8.604l-24.236 28.781h577.536l-23.63-28.66z" />
<glyph unicode="&#xe92f;" glyph-name="service-pro" d="M277.335 345.995h469.33v326.709h-469.33v-326.709zM757.332 326.077h-490.665c-6.395 0-10.668 3.981-10.668 9.966v346.627c0 5.971 4.273 9.952 10.668 9.952h490.665c6.409 0 10.668-3.981 10.668-9.952v-346.627c0-5.986-4.258-9.966-10.668-9.966v0zM512 250.44c-6.975 0-11.636 4.113-11.636 10.267v31.829c0 6.155 4.661 10.267 11.636 10.267s11.636-4.113 11.636-10.267v-31.829c0-6.155-4.661-10.267-11.636-10.267zM704.974 203.895h-385.947c-6.407 0-10.663 4.661-10.663 11.636s4.256 11.636 10.663 11.636h385.947c6.392 0 10.663-4.661 10.663-11.636s-4.271-11.636-10.663-11.636z" />
<glyph unicode="&#xe930;" glyph-name="stain" d="M514.907 942.933l412.382-246.142v-492.533l-412.382-246.267-412.507 246.267v492.533l412.507 246.142zM351.817 302.337c13.976-11.012 28.528-21.288 42.265-32.562 13.484-11.077 29.779-18.161 45.657-21.279 16.215-3.174 32.913-4.785 49.293-8.661 19.982-4.743 40.447-0.88 60.65-0.136 29.076 1.063 56.232 10.721 82.675 21.925 15.311 6.484 29.006 16.363 38.114 30.408 15.274 23.582 29.526 47.829 43.699 72.090 4.24 7.243 7.028 15.333 7.618 24.032 2.563 37.234-2.052 73.71-11.301 109.727-1.715 6.672-1.926 14.059-5.013 19.991-8.963 17.098-16.75 34.725-27.844 50.867-19.092 27.735-39.819 51.551-73.239 63.541-25.825 9.27-51.387 17.664-78.781 19.397-5.552 0.356-12.181 3.708-16.801-3.202-0.782-1.161-3.79-1.194-5.13 0.459-2.478 3.043-4.859 1.545-7.548 0.52-5.229-1.971-10.537-3.708-15.827-5.515-15.958-5.426-32.318-9.242-47.948-16.264-19.092-8.582-37.407-18.315-55.215-29.083-9.844-5.951-19.078-12.968-24.504-23.807-1.523-3.020-2.989-5.656-0.529-8.591 2.188-2.626 5.060-2.032 7.801-1.011 11.483 4.237 22.077 10.88 31.274 18.207 7.796 6.203 15.616 9.504 24.677 11.48 4.859 1.063 10.457 0.482 14.351 3.83 18.254 15.67 41.309 17.332 63.269 22.21 1.204 0.276 2.525 0.262 3.767 0.108 15.325-1.901 30.655-2.35 46.126-2.205 17.382 0.169 33.897-5.351 50.267-10.782 1.982-0.651 4.357-3.137 5.856-0.669 6.573 10.824 12.514 2.701 18.188-0.623 5.369-3.141 10.945-6.601 15.002-11.189 6.152-6.948 16.764-8.043 22.034-17.978-2.877 1.699-4.685 2.734-6.447 3.83-3.083 1.915-6.32 3.783-8.916-0.365-2.104-3.376-0.248-6.119 2.572-8.011 16.108-10.773 24.532-27.58 31.916-44.163 7.52-16.915 14.918-34.331 13.723-54.051-0.923-15.319-4.629-30.394-4.193-45.708 0.305-10.314-1.748-19.729-4.985-29.359-3.495-10.384-7.67-20.469-12.135-30.431-2.24-5.024-0.45-9.284 2.6-12.449 2.83-2.926 4.854 0.323 6.091 2.964 11.783 25.047 26.907 49.079 24.649 78.518-0.211 2.753-0.047 5.642 2.966 5.965 4.296 0.449 3.12-3.647 3.65-5.974 3.223-14.050 1.663-28.367-0.623-42.089-2.361-14.209-4.559-28.896-14.355-41.129-9.019-11.264-15.639-24.13-18.478-38.629-0.722-3.694-3.167-6.611-6.236-9.143-15.883-13.043-33.143-23.577-52.975-29.467-2.076-0.609-4.151-4.429-6.325-1.119-1.855 2.818 0.066 5.318 2.685 7.088 6.761 4.56 12.748 10.047 18.877 15.408 14.997 13.174 30.679 25.717 37.58 45.446 0.998 2.837 3.903 6.189 0.853 9.19-3.804 3.745-6.372-0.492-8.696-2.397-8.368-6.873-16.614-14.49-23.604-22.234-21.411-23.723-49.991-32.623-78.135-43.091-4.085-1.517-8.208-3.277-12.467-3.933-28.716-4.452-56.756-0.627-84.413 7.444-31.677 9.228-60.041 24.069-82.506 48.821-4.957 5.468-9.066 11.882-14.023 17.093-17.607 18.559-26.509 41.157-31.784 65.245-3.223 14.719-3.94 30.019-5.369 45.090-2.127 22.407-1.443 44.112 13.61 63.12 3.373 4.256 3.416 11.157 4.849 16.882 0.37 1.475 0.38 3.263-1.302 4.12-1.738 0.88-2.877-0.44-4.015-1.522-7.267-6.882-14.815-13.413-18.417-23.311-7.253-19.902-11.989-40.488-15.77-61.186-3.5-19.111-5.060-38.779-2.080-58.021 3.041-19.589 8.996-38.709 16.909-56.972 7.557-17.524 15.925-34.177 31.822-46.701zM317.205 550.422c8.909-0.439 19.385 5.774 18.371 11.76-1.009 6.015-0.607 14.242-8.188 16.432-6.978 2.022-19.64-9.707-20.188-17.728 0.525-5.275 2.489-10.094 10.005-10.464zM328.514 628.709c-2.798 3.091-4.844 6.702-7.971 9.514-3.264 2.936-7.081 3.943-11.326 2.639-4.849-1.481-8.556-3.978-7.538-9.562 1.261-6.919 8.742-12.831 15.96-12.627 9.522 0.275 15.123 5.327 10.873 10.037zM631.467 580.514c-1.244 4.088-1.060 9.861-5.85 9.705-3.854-0.111-5.611-3.109-5.525-8.404 0.094-6.146 3.322-7.959 6.715-8.593 3.498-0.662 3.878 3.676 4.66 7.291zM307.177 522.003c3.828-0.341 5.922 1.135 5.695 4.936-0.084 2.715 0.299 6.536-3.769 6.39-3.201-0.127-7.323-1.63-7.58-5.849-0.206-3.456 2.095-5.155 5.653-5.477z" />
<glyph unicode="&#xe931;" glyph-name="success" d="M677.607 479.518c0 0-0.369-0.492-0.492-0.492l-53.064-53.064c8.249-25.362 20.684-65.006 20.684-75.717 0-14.528-6.156-28.44-16.867-38.167l-78.549-78.549c-9.603-10.465-23.515-16.621-37.92-16.621-13.050 0-25.362 4.802-34.965 13.666-0.492 0.246-0.985 0.616-1.354 0.985l-40.629 40.506c0 0.123-0.123 0.123-0.123 0.246-0.985 0.739-1.724 1.477-2.585 2.339-2.709 2.709-4.678 5.787-6.279 9.234-3.078 1.231-5.91 2.832-8.249 5.294l-92.461 92.338c-0.123 0.123-0.123 0.246-0.246 0.246-0.123 0.123-0.123 0.246-0.246 0.246-11.204 11.204-9.849 31.026 3.078 44.076 5.294 5.294 12.066 8.741 19.083 10.096-3.447 5.294-5.171 11.45-5.048 17.852 0.246 8.618 3.817 16.744 10.096 23.023 5.91 5.91 13.543 9.234 21.669 9.849-5.171 12.189-2.955 26.717 6.895 36.689 5.171 5.171 11.696 8.249 18.837 9.234l-54.295 54.295c-0.123 0.123-0.123 0.246-0.246 0.246-0.123 0.123-0.123 0.246-0.246 0.246-12.927 12.927-12.927 34.104 0 47.031 6.402 6.279 14.774 9.726 23.639 9.726s17.236-3.447 23.515-9.726l0.123-0.123c0.123-0.123 0.123-0.123 0.246-0.246l73.255-73.255c0.123-0.123 0.123-0.123 0.246-0.246l91.353-91.353c5.294-2.462 11.696-2.462 16.99 0l57.127 57.127c6.279 6.402 14.651 9.849 23.639 9.849 8.864 0 17.236-3.447 23.515-9.726s9.726-14.651 9.726-23.639c0-8.864-3.447-17.236-9.849-23.515v0zM498.594 647.697c2.955 2.216 7.141 1.354 9.357-1.601l23.146-33.365c2.093-3.078 1.354-7.264-1.601-9.357-1.231-0.862-2.585-1.231-3.94-1.231-2.093 0-4.186 0.985-5.417 2.955l-23.269 33.242c-2.093 3.078-1.354 7.264 1.724 9.357v0zM561.63 666.534c0 3.694 2.955 6.648 6.771 6.648 3.694 0 6.648-2.955 6.648-6.648v-46.046c0-3.817-2.955-6.771-6.648-6.771-3.817 0-6.771 2.955-6.771 6.771v46.046zM617.403 617.41l19.329 35.704c1.724 3.324 5.787 4.555 9.111 2.832 3.201-1.847 4.432-5.91 2.709-9.111l-19.206-35.827c-1.231-2.216-3.57-3.447-5.91-3.447-1.108 0-2.216 0.246-3.201 0.739-3.324 1.724-4.555 5.787-2.832 9.111v0zM510.906 930.622l-408.505-242.542v-485.33l408.505-242.665 408.628 242.665v485.33l-408.628 242.542zM458.581 315.279c-0.369-5.048-2.709-9.849-6.648-13.789-4.802-4.802-11.45-7.264-17.236-6.525-0.862 0-1.601 0.246-2.462 0.492-2.093 0.616-3.94 1.601-5.417 3.201l-91.969 91.846c-0.246 0.369-0.616 0.739-1.108 1.108-5.787 6.156-4.432 17.36 3.078 24.993 4.309 4.186 9.849 6.648 15.267 6.648 2.709 0 6.525-0.616 9.849-3.694l88.152-88.152c0.123-0.246 0.246-0.369 0.492-0.492l4.186-4.309c2.832-2.832 4.186-6.895 3.817-11.327zM495.639 352.953c-0.123-5.171-2.339-10.096-6.156-13.912-5.663-5.787-14.528-7.264-21.422-4.555-1.97 0.739-3.94 1.847-5.417 3.447l-90.738 90.738c-0.123 0-0.123 0.123-0.123 0.123-0.123 0-0.123 0.123-0.246 0.123l-11.081 11.204c-0.123 0-0.492 0.492-0.616 0.492-3.324 3.447-5.171 8.003-4.925 13.050 0.123 5.171 2.339 10.096 6.033 13.912 7.51 7.51 20.068 8.003 26.963 1.108l102.803-102.803c3.324-3.324 5.048-8.003 4.925-12.927zM527.033 376.592c-6.156-6.279-16.252-7.141-23.885-3.078-1.477 0.862-2.832 1.847-4.063 3.078l-108.713 108.713c-0.246 0.246-0.616 0.616-0.985 0.862-7.51 7.756-7.387 20.191 0.123 27.948 7.51 7.387 20.684 7.51 28.194 0l109.329-109.452c7.756-7.756 7.756-20.314 0-28.071zM611.615 432.487c-1.847-1.847-2.462-4.432-1.601-6.895 12.927-39.151 21.299-68.823 21.299-75.348 0-10.711-4.555-20.93-12.804-28.44l-78.918-78.918c-7.264-8.003-17.483-12.558-28.194-12.558-10.096 0-19.576 3.94-26.717 10.957-0.369 0.369-0.739 0.616-1.231 0.862l-38.659 38.659c-0.369 0.492-0.739 0.862-1.108 1.231 1.847 0.492 3.817 1.108 5.663 1.847 0.492 0.246 1.108 0.492 1.601 0.739 1.354 0.739 2.709 1.477 4.063 2.339 0.492 0.246 0.985 0.616 1.601 0.985 1.601 1.231 3.324 2.462 4.802 4.063 6.156 6.033 9.973 13.912 10.588 22.038 0.123 1.97 0.123 3.694 0 5.54 0.862-0.123 1.724-0.123 2.462-0.123h0.739c1.97 0 3.817 0.246 5.663 0.492 0.492 0.123 0.862 0.246 1.354 0.369 1.724 0.369 3.324 0.862 4.925 1.477 0.492 0.246 1.108 0.369 1.601 0.616 1.601 0.739 3.201 1.601 4.678 2.585 0.246 0.246 0.616 0.492 0.862 0.616 1.724 1.231 3.324 2.462 4.678 3.94 6.279 6.156 9.849 14.405 10.096 23.023 0.123 1.601 0 3.324-0.246 5.048 1.354-0.246 2.709-0.246 4.063-0.246h0.616c1.724 0 3.447 0.246 5.171 0.492 0.369 0.123 0.862 0.123 1.354 0.246 1.601 0.369 3.201 0.862 4.678 1.354 0.616 0.246 1.231 0.492 1.847 0.862 1.601 0.616 2.955 1.354 4.432 2.339 0.369 0.246 0.739 0.492 1.231 0.739 1.477 1.108 2.955 2.339 4.309 3.694 13.050 12.927 13.050 34.104 0 47.031l-181.599 181.722c-0.246 0.369-0.739 0.862-1.231 1.231-7.756 7.756-7.756 20.314 0 28.071 7.387 7.387 19.945 7.756 27.825 0.123 0.369-0.369 0.739-0.739 1.108-1.108l72.393-72.27c0.246-0.492 0.616-0.862 1.108-1.108l91.6-91.723c0.492-0.492 1.108-0.862 1.724-1.231 9.48-4.925 21.546-4.925 31.026 0 0.616 0.369 1.231 0.739 1.724 1.231l57.988 57.988c7.387 7.51 20.438 7.51 27.948 0 3.817-3.694 5.91-8.741 5.91-14.035s-2.093-10.219-6.279-14.405l-56.142-56.142z" />
<glyph unicode="&#xe932;" glyph-name="type-flat" d="M785.238 236.1c0-6.065-4.852-10.796-10.796-10.796h-453.568c-5.944 0-10.796 4.731-10.796 10.796v410.261c0 5.58 4.246 10.311 9.826 10.796 0.364 0.121 0.607 0.121 0.97 0h248.437c5.944 0 10.796-4.731 10.796-10.796v-399.465h183.538v248.316h-151.513c-5.944 0.121-10.675 4.974-10.554 10.918 0 6.065 4.974 10.796 10.918 10.675h161.945c5.944 0 10.796-4.852 10.796-10.796v-269.908zM514.844 919.424l-412.444-239.096v-478.193l412.444-239.096 412.444 239.096v478.193l-412.444 239.096zM407.245 246.898h75.696v86.371h-75.696zM331.671 635.566v-388.668h53.982v97.167c0 5.58 4.246 10.19 9.826 10.796h98.259c5.944 0 10.796-4.852 10.796-10.796v-97.167h53.982v388.668h-226.844z" />
<glyph unicode="&#xe933;" glyph-name="type-house" d="M514.844 925.867l-412.444-239.096v-478.193l412.444-239.096 412.444 239.096v478.193l-412.444 239.096zM301.95 511.239l212.894 152.119 213.015-152.119-7.885-11.039-205.13 146.539-205.13-146.539-7.764 11.039zM651.558 245.576v211.681h13.465v-225.267h-300.357v225.267h13.465v-211.681h273.426z" />
<glyph unicode="&#xe934;" glyph-name="type-loft" d="M514.844 925.867l-412.444-239.096v-478.193l412.444-239.096 412.444 239.096v478.193l-412.444 239.096zM651.558 449.399l-273.426 104.959v-308.782h273.426v203.824zM665.023 444.231v-212.241h-300.357c0 0 0.008 304.586 0.001 327.537l-34.711 13.324 4.484 11.682 362.154-139.018-4.484-11.682-27.087 10.398zM651.558 449.399l13.465-5.169v13.026h-13.465v-7.858zM364.667 559.526l13.464-5.168v6.534c0 0-13.473-0.202-13.465 0 0 0.008 0.001-0.459 0.001-1.365z" />
<glyph unicode="&#xe935;" glyph-name="user" d="M729.316 265.489c-36.32-36.32-143.063-49.247-223.459-49.247-38.536 0-167.563 3.57-213.24 49.247-1.724 1.724-2.709 4.063-2.709 6.525 0 78.549 41.121 147.495 103.050 186.647 0.492-0.616 0.862-1.231 1.354-1.97 3.324-4.309 7.018-8.372 10.711-12.189-56.88-35.089-95.293-97.263-96.647-168.548 28.933-25.116 105.512-41.244 197.481-41.244 94.801 0 178.89 16.867 207.7 41.368-1.354 71.162-39.767 133.337-96.647 168.425 3.694 3.817 7.264 7.88 10.711 12.189 0.492 0.739 0.862 1.354 1.354 1.97 61.928-39.151 103.050-108.097 103.050-186.647 0-2.462-0.985-4.802-2.709-6.525v0zM510.905 676.209c71.285 0 129.274-57.988 129.274-129.151 0-29.794-10.219-57.127-27.209-79.042-3.94-5.048-8.126-9.726-12.804-14.159-23.146-22.284-54.541-36.073-89.26-36.073-34.596 0-65.991 13.789-89.137 36.073-4.678 4.432-8.864 9.111-12.804 14.159-16.99 21.915-27.209 49.247-27.209 79.042 0 71.162 57.988 129.151 129.151 129.151v0zM510.905 931.556l-408.505-242.665v-485.33l408.505-242.665 408.628 242.665v485.33l-408.628 242.665zM621.711 547.059c0-26.963-9.726-51.709-25.855-70.916-4.309-5.171-8.988-9.973-14.159-14.282-19.206-16.005-43.83-25.608-70.793-25.608-26.84 0-51.463 9.603-70.67 25.608-5.171 4.309-9.849 9.111-14.159 14.282-16.128 19.206-25.855 43.953-25.855 70.916 0 61.066 49.74 110.683 110.683 110.683 61.066 0 110.806-49.616 110.806-110.683z" />
</font>
</defs>
</svg>
